STARTFONT 2.3
FONT -FontForge-Pacifico-Book-R-Normal--10-100-72-72-P-59-ISO10646-1
SIZE 10 72 72  2
FONTBOUNDINGBOX 23 21 -6 -5
COMMENT "Generated by fontforge, http://fontforge.sourceforge.net"
COMMENT "Copyright 2018 The Pacifico Project Authors (https://github.com/googlefonts/Pacifico)"
STARTPROPERTIES 41
FOUNDRY "FontForge"
FAMILY_NAME "Pacifico"
WEIGHT_NAME "Book"
SLANT "R"
SETWIDTH_NAME "Normal"
ADD_STYLE_NAME ""
PIXEL_SIZE 10
POINT_SIZE 100
RESOLUTION_X 72
RESOLUTION_Y 72
SPACING "P"
AVERAGE_WIDTH 59
CHARSET_REGISTRY "ISO10646"
CHARSET_ENCODING "1"
FONTNAME_REGISTRY ""
CHARSET_COLLECTIONS "ISO8859-2 ISO8859-5 ISO8859-9 ISO8859-4 ISO10646-1"
BITS_PER_PIXEL 2
FONT_NAME "Pacifico-Regular"
FACE_NAME "Pacifico Regular"
COPYRIGHT "Copyright 2018 The Pacifico Project Authors (https://github.com/googlefonts/Pacifico)"
FONT_VERSION "3.001"
FONT_ASCENT 8
FONT_DESCENT 2
UNDERLINE_POSITION -1
UNDERLINE_THICKNESS 1
X_HEIGHT 4
CAP_HEIGHT 8
DEFAULT_CHAR 1
RAW_ASCENT 800
RAW_DESCENT 200
NORM_SPACE 3
RELATIVE_WEIGHT 40
RELATIVE_SETWIDTH 50
SUPERSCRIPT_X 0
SUPERSCRIPT_Y 3
SUPERSCRIPT_SIZE 6
SUBSCRIPT_X 0
SUBSCRIPT_Y 0
SUBSCRIPT_SIZE 6
AVG_LOWERCASE_WIDTH 48
AVG_UPPERCASE_WIDTH 81
ENDPROPERTIES
CHARS 1514
STARTCHAR NULL.dup1
ENCODING 0
SWIDTH 0 0
DWIDTH 0 0
BBX 1 1 0 0
BITMAP
00
ENDCHAR
STARTCHAR nonmarkingreturn
ENCODING 13
SWIDTH 265 0
DWIDTH 3 0
BBX 1 1 0 0
BITMAP
00
ENDCHAR
STARTCHAR space
ENCODING 32
SWIDTH 265 0
DWIDTH 3 0
BBX 1 1 0 0
BITMAP
00
ENDCHAR
STARTCHAR exclam
ENCODING 33
SWIDTH 340 0
DWIDTH 3 0
BBX 4 9 0 0
BITMAP
0A
0D
1C
1C
28
24
10
70
70
ENDCHAR
STARTCHAR quotedbl
ENCODING 34
SWIDTH 510 0
DWIDTH 5 0
BBX 4 4 1 5
BITMAP
67
A7
AA
99
ENDCHAR
STARTCHAR numbersign
ENCODING 35
SWIDTH 700 0
DWIDTH 7 0
BBX 7 7 0 0
BITMAP
0510
0A70
7FF8
1CD0
BFF4
3680
2140
ENDCHAR
STARTCHAR dollar
ENCODING 36
SWIDTH 524 0
DWIDTH 5 0
BBX 5 9 0 -1
BITMAP
0200
2F40
3A80
3900
1F40
5A80
7F40
1D00
0800
ENDCHAR
STARTCHAR percent
ENCODING 37
SWIDTH 896 0
DWIDTH 9 0
BBX 9 8 0 0
BITMAP
2D0800
6A2800
67F000
29A000
01CB40
025980
072980
091F00
ENDCHAR
STARTCHAR ampersand
ENCODING 38
SWIDTH 851 0
DWIDTH 9 0
BBX 8 10 0 -1
BITMAP
07D0
0D70
0C70
0ED0
0B40
3B83
71EE
75B8
2FAD
0005
ENDCHAR
STARTCHAR quotesingle
ENCODING 39
SWIDTH 290 0
DWIDTH 3 0
BBX 2 4 1 5
BITMAP
60
A0
A0
90
ENDCHAR
STARTCHAR parenleft
ENCODING 40
SWIDTH 613 0
DWIDTH 6 0
BBX 6 11 1 -1
BITMAP
06E0
1E60
2800
7000
A000
A000
D000
D000
D000
E280
7E00
ENDCHAR
STARTCHAR parenright
ENCODING 41
SWIDTH 613 0
DWIDTH 6 0
BBX 7 11 -1 -1
BITMAP
06E0
0D74
0028
0028
0028
0034
0070
00B0
00D0
52C0
BE00
ENDCHAR
STARTCHAR asterisk
ENCODING 42
SWIDTH 520 0
DWIDTH 5 0
BBX 4 4 1 6
BITMAP
58
6F
AD
26
ENDCHAR
STARTCHAR plus
ENCODING 43
SWIDTH 700 0
DWIDTH 7 0
BBX 6 7 1 0
BITMAP
0400
0900
0D00
FFD0
5D40
1C00
1800
ENDCHAR
STARTCHAR comma
ENCODING 44
SWIDTH 257 0
DWIDTH 3 0
BBX 2 4 0 -2
BITMAP
10
B0
A0
90
ENDCHAR
STARTCHAR hyphen
ENCODING 45
SWIDTH 403 0
DWIDTH 4 0
BBX 4 2 0 2
BITMAP
69
24
ENDCHAR
STARTCHAR period
ENCODING 46
SWIDTH 257 0
DWIDTH 3 0
BBX 2 2 0 0
BITMAP
70
B0
ENDCHAR
STARTCHAR slash
ENCODING 47
SWIDTH 509 0
DWIDTH 5 0
BBX 6 10 0 0
BITMAP
0090
00D0
0280
0340
0A00
0D00
2800
3400
A000
9000
ENDCHAR
STARTCHAR zero
ENCODING 48
SWIDTH 543 0
DWIDTH 5 0
BBX 5 6 0 0
BITMAP
1F40
36C0
71C0
61C0
7680
2E00
ENDCHAR
STARTCHAR one
ENCODING 49
SWIDTH 376 0
DWIDTH 4 0
BBX 4 7 0 0
BITMAP
04
7D
1C
1C
1C
28
28
ENDCHAR
STARTCHAR two
ENCODING 50
SWIDTH 560 0
DWIDTH 6 0
BBX 5 6 0 0
BITMAP
1F40
36C0
11C0
0740
2D00
7FC0
ENDCHAR
STARTCHAR three
ENCODING 51
SWIDTH 520 0
DWIDTH 5 0
BBX 5 6 0 0
BITMAP
2F40
7680
0740
0B40
A680
7E40
ENDCHAR
STARTCHAR four
ENCODING 52
SWIDTH 577 0
DWIDTH 6 0
BBX 6 7 0 0
BITMAP
0400
1C00
29C0
7280
7FD0
1680
0240
ENDCHAR
STARTCHAR five
ENCODING 53
SWIDTH 518 0
DWIDTH 5 0
BBX 5 6 0 0
BITMAP
3FC0
3400
3E00
1680
6680
2E00
ENDCHAR
STARTCHAR six
ENCODING 54
SWIDTH 541 0
DWIDTH 5 0
BBX 5 6 0 0
BITMAP
1B80
3580
7B40
7680
7680
2E00
ENDCHAR
STARTCHAR seven
ENCODING 55
SWIDTH 497 0
DWIDTH 5 0
BBX 5 6 0 0
BITMAP
7FC0
0740
0E00
1C00
2800
2400
ENDCHAR
STARTCHAR eight
ENCODING 56
SWIDTH 512 0
DWIDTH 5 0
BBX 5 6 0 0
BITMAP
2F40
7680
3B40
3B40
A680
7E40
ENDCHAR
STARTCHAR nine
ENCODING 57
SWIDTH 541 0
DWIDTH 5 0
BBX 5 6 0 0
BITMAP
2F40
76C0
3FC0
11C0
A780
2E00
ENDCHAR
STARTCHAR colon
ENCODING 58
SWIDTH 257 0
DWIDTH 3 0
BBX 3 5 0 0
BITMAP
34
74
00
70
B0
ENDCHAR
STARTCHAR semicolon
ENCODING 59
SWIDTH 257 0
DWIDTH 3 0
BBX 3 7 0 -2
BITMAP
34
74
00
10
B0
A0
90
ENDCHAR
STARTCHAR less
ENCODING 60
SWIDTH 700 0
DWIDTH 7 0
BBX 6 5 1 1
BITMAP
01D0
6E40
F400
6E40
06C0
ENDCHAR
STARTCHAR equal
ENCODING 61
SWIDTH 700 0
DWIDTH 7 0
BBX 7 3 0 2
BITMAP
3FF4
0000
7FF0
ENDCHAR
STARTCHAR greater
ENCODING 62
SWIDTH 700 0
DWIDTH 7 0
BBX 7 5 0 1
BITMAP
2900
1BD0
01F4
1B90
7800
ENDCHAR
STARTCHAR question
ENCODING 63
SWIDTH 476 0
DWIDTH 5 0
BBX 5 9 0 0
BITMAP
1F80
35C0
21C0
0740
0D00
1800
1000
3400
7400
ENDCHAR
STARTCHAR at
ENCODING 64
SWIDTH 1015 0
DWIDTH 10 0
BBX 10 11 0 -3
BITMAP
01BE40
0B56D0
1C00A0
34B860
71DC60
A29CA0
A369D0
B1DB40
740000
2D0680
07FE40
ENDCHAR
STARTCHAR A
ENCODING 65
SWIDTH 786 0
DWIDTH 8 0
BBX 9 9 0 0
BITMAP
01BF40
0B9500
1D0D00
381C00
742C00
703800
707840
39F9C0
1F5F40
ENDCHAR
STARTCHAR B
ENCODING 66
SWIDTH 827 0
DWIDTH 8 0
BBX 9 10 0 -1
BITMAP
1BFD00
B95B40
490380
0D0B40
1CB900
1C1D00
280E00
296D00
3FE400
100000
ENDCHAR
STARTCHAR C
ENCODING 67
SWIDTH 686 0
DWIDTH 7 0
BBX 8 9 0 0
BITMAP
06F4
1E6C
281C
3414
7000
7000
3400
2D56
0BF9
ENDCHAR
STARTCHAR D
ENCODING 68
SWIDTH 836 0
DWIDTH 8 0
BBX 8 9 0 0
BITMAP
1BE4
756D
090B
0D07
1C07
2C0B
280E
3978
2F90
ENDCHAR
STARTCHAR E
ENCODING 69
SWIDTH 686 0
DWIDTH 7 0
BBX 8 9 0 0
BITMAP
06F4
1D6C
281C
2D08
0F80
7900
B000
7556
1FF9
ENDCHAR
STARTCHAR F
ENCODING 70
SWIDTH 712 0
DWIDTH 7 0
BBX 10 9 0 0
BITMAP
0AFFD0
38D000
30D000
21D000
07FD00
02C000
028000
D78000
7E0000
ENDCHAR
STARTCHAR G
ENCODING 71
SWIDTH 811 0
DWIDTH 8 0
BBX 9 14 0 -5
BITMAP
02F400
1E5D00
280D00
340400
700000
707D00
340D00
2D5EC0
0BFE00
002C00
00A800
01A400
02B000
01D000
ENDCHAR
STARTCHAR H
ENCODING 72
SWIDTH 873 0
DWIDTH 9 0
BBX 10 10 0 0
BITMAP
0002D0
2E0790
DB0A50
470D80
0A1F80
3FFD00
0D1C00
1D1C10
1C0D60
180780
ENDCHAR
STARTCHAR I
ENCODING 73
SWIDTH 495 0
DWIDTH 5 0
BBX 6 9 0 0
BITMAP
2FD0
0B00
0A00
0E00
0D00
0D00
1C00
2C00
FF40
ENDCHAR
STARTCHAR J
ENCODING 74
SWIDTH 743 0
DWIDTH 7 0
BBX 8 10 0 -1
BITMAP
1BF9
391D
701C
202C
0078
02F8
0E34
1C70
2CD0
1F80
ENDCHAR
STARTCHAR K
ENCODING 75
SWIDTH 937 0
DWIDTH 9 0
BBX 11 9 0 0
BITMAP
1BE0A0
35E1D0
70D280
21DB00
03F800
02EC00
428E04
A74B64
2E02E0
ENDCHAR
STARTCHAR L
ENCODING 76
SWIDTH 673 0
DWIDTH 7 0
BBX 9 9 -1 0
BITMAP
00BE00
02D740
034340
070100
070000
070000
0A0040
7F9580
79BE00
ENDCHAR
STARTCHAR M
ENCODING 77
SWIDTH 1232 0
DWIDTH 12 0
BBX 14 9 0 0
BITMAP
2D2D2D00
9A9A9A00
4B4B4A00
0B0B0E00
0E0E0D00
0D0D1C00
1D1D1C00
1C1C1D90
1C1C0B80
ENDCHAR
STARTCHAR N
ENCODING 78
SWIDTH 884 0
DWIDTH 9 0
BBX 10 9 0 0
BITMAP
2D2E00
9A9740
4A8740
0B0700
0E0B00
0D0A00
1D0E00
1C0E70
1C07D0
ENDCHAR
STARTCHAR O
ENCODING 79
SWIDTH 816 0
DWIDTH 8 0
BBX 8 9 0 0
BITMAP
06F4
1E5D
280A
340B
700B
700A
740D
2D68
0BE0
ENDCHAR
STARTCHAR P
ENCODING 80
SWIDTH 805 0
DWIDTH 8 0
BBX 9 11 0 -2
BITMAP
02F900
0A5B00
29C740
31C700
629E00
6BF400
A34000
634000
770000
2E0000
040000
ENDCHAR
STARTCHAR Q
ENCODING 81
SWIDTH 816 0
DWIDTH 8 0
BBX 9 12 0 -3
BITMAP
06F400
1E5D00
280B00
340B00
700B00
700A00
741D00
2DB800
0BD000
00E000
00B580
002F40
ENDCHAR
STARTCHAR R
ENCODING 82
SWIDTH 880 0
DWIDTH 9 0
BBX 10 9 0 0
BITMAP
02F900
0E5B00
25C700
329E00
67F400
63B800
635C10
370E70
1E0790
ENDCHAR
STARTCHAR S
ENCODING 83
SWIDTH 693 0
DWIDTH 7 0
BBX 7 9 0 0
BITMAP
0BE0
2968
381C
2D04
0BD0
01B4
A038
B474
2F90
ENDCHAR
STARTCHAR T
ENCODING 84
SWIDTH 697 0
DWIDTH 7 0
BBX 9 9 0 0
BITMAP
1BFF80
75E000
A0D000
51C000
01C000
028000
028000
038000
034000
ENDCHAR
STARTCHAR U
ENCODING 85
SWIDTH 890 0
DWIDTH 9 0
BBX 10 9 0 0
BITMAP
2E0340
AB0740
8B0700
0A0B00
0D0B00
0D1E00
1C2A00
1EAB70
0B87D0
ENDCHAR
STARTCHAR V
ENCODING 86
SWIDTH 763 0
DWIDTH 8 0
BBX 8 9 1 0
BITMAP
60B8
B0DC
A198
A0F8
A07F
A0A0
B0D0
7B80
2E00
ENDCHAR
STARTCHAR W
ENCODING 87
SWIDTH 1217 0
DWIDTH 12 0
BBX 13 9 1 0
BITMAP
60287C00
B0389D00
A0749D00
A0746C00
A0B42F80
A0F43400
A2A4A000
7B2EC000
2D0F4000
ENDCHAR
STARTCHAR X
ENCODING 88
SWIDTH 712 0
DWIDTH 7 0
BBX 9 9 0 0
BITMAP
2D0A00
9B2C00
03B400
02D000
03C000
0BD000
2CD000
74A640
D03D00
ENDCHAR
STARTCHAR Y
ENCODING 89
SWIDTH 851 0
DWIDTH 9 0
BBX 10 12 0 -3
BITMAP
2E0340
AB0340
4B0740
0A0B00
0E0B00
0D1E00
0D2A00
0BDF90
01AE00
031C00
0A2800
07E000
ENDCHAR
STARTCHAR Z
ENCODING 90
SWIDTH 721 0
DWIDTH 7 0
BBX 9 9 0 0
BITMAP
1BF900
756D00
703800
20B000
01D000
028000
0B4000
BF9640
B9BD00
ENDCHAR
STARTCHAR bracketleft
ENCODING 91
SWIDTH 405 0
DWIDTH 4 0
BBX 5 11 0 -1
BITMAP
0FC0
1D00
1C00
2C00
2800
2800
3400
3400
3400
7000
7E00
ENDCHAR
STARTCHAR backslash
ENCODING 92
SWIDTH 509 0
DWIDTH 5 0
BBX 4 10 1 0
BITMAP
90
A0
A0
70
34
28
1C
1C
0D
09
ENDCHAR
STARTCHAR bracketright
ENCODING 93
SWIDTH 405 0
DWIDTH 4 0
BBX 5 11 -1 -1
BITMAP
1F80
0280
0280
0380
0340
0340
0700
0700
0700
0A00
7E00
ENDCHAR
STARTCHAR asciicircum
ENCODING 94
SWIDTH 700 0
DWIDTH 7 0
BBX 5 6 1 1
BITMAP
0400
0E00
2B00
3340
A280
C180
ENDCHAR
STARTCHAR underscore
ENCODING 95
SWIDTH 354 0
DWIDTH 4 0
BBX 4 1 0 -1
BITMAP
FD
ENDCHAR
STARTCHAR grave
ENCODING 96
SWIDTH 600 0
DWIDTH 6 0
BBX 3 4 1 6
BITMAP
40
A0
70
14
ENDCHAR
STARTCHAR a
ENCODING 97
SWIDTH 470 0
DWIDTH 5 0
BBX 6 5 0 0
BITMAP
1E00
7740
A300
AB60
7AC0
ENDCHAR
STARTCHAR b
ENCODING 98
SWIDTH 473 0
DWIDTH 5 0
BBX 6 10 0 0
BITMAP
0B00
1A40
2640
3700
7900
7E00
7740
63F0
7740
2E00
ENDCHAR
STARTCHAR c
ENCODING 99
SWIDTH 368 0
DWIDTH 4 0
BBX 5 5 0 0
BITMAP
2D00
7600
A040
A580
2E00
ENDCHAR
STARTCHAR d
ENCODING 100
SWIDTH 515 0
DWIDTH 5 0
BBX 7 10 0 0
BITMAP
00A0
01B0
0260
0260
0390
1F80
7780
A340
A764
79D0
ENDCHAR
STARTCHAR e
ENCODING 101
SWIDTH 393 0
DWIDTH 4 0
BBX 5 5 0 0
BITMAP
2E00
7600
A900
B5C0
2E40
ENDCHAR
STARTCHAR f
ENCODING 102
SWIDTH 371 0
DWIDTH 4 0
BBX 5 13 0 -3
BITMAP
0740
0E80
1980
2640
3600
7800
7400
6F80
6800
6800
6800
7800
3800
ENDCHAR
STARTCHAR g
ENCODING 103
SWIDTH 479 0
DWIDTH 5 0
BBX 6 10 0 -5
BITMAP
1E00
7740
A310
ABA0
7F80
1E00
2900
9C00
D800
B400
ENDCHAR
STARTCHAR h
ENCODING 104
SWIDTH 502 0
DWIDTH 5 0
BBX 7 10 0 0
BITMAP
0B00
1A40
2600
3600
7900
7A80
7B80
7A40
7364
62D0
ENDCHAR
STARTCHAR i
ENCODING 105
SWIDTH 246 0
DWIDTH 2 0
BBX 4 7 0 0
BITMAP
38
00
30
70
61
66
78
ENDCHAR
STARTCHAR j
ENCODING 106
SWIDTH 254 0
DWIDTH 3 0
BBX 7 12 -3 -5
BITMAP
00D0
0000
00C0
01C0
01C0
01A4
02D0
0740
1B40
2700
6A00
3800
ENDCHAR
STARTCHAR k
ENCODING 107
SWIDTH 525 0
DWIDTH 5 0
BBX 7 10 0 0
BITMAP
0B00
1A40
2600
3600
7900
7A80
69C0
7A84
7764
62E0
ENDCHAR
STARTCHAR l
ENCODING 108
SWIDTH 326 0
DWIDTH 3 0
BBX 5 10 0 0
BITMAP
0B00
1A40
2640
3300
7600
7900
7800
7400
7640
2E00
ENDCHAR
STARTCHAR m
ENCODING 109
SWIDTH 744 0
DWIDTH 7 0
BBX 9 5 0 0
BITMAP
376C00
7BBC00
77D840
73AA80
625E00
ENDCHAR
STARTCHAR n
ENCODING 110
SWIDTH 496 0
DWIDTH 5 0
BBX 6 5 0 0
BITMAP
3640
7B80
7B40
7370
62D0
ENDCHAR
STARTCHAR o
ENCODING 111
SWIDTH 451 0
DWIDTH 5 0
BBX 6 5 0 0
BITMAP
2E00
7B40
A7E0
A740
2D00
ENDCHAR
STARTCHAR p
ENCODING 112
SWIDTH 481 0
DWIDTH 5 0
BBX 7 10 -1 -5
BITMAP
1AC0
1DD0
1CD4
2EDC
7FF4
A800
E800
A400
A400
E000
ENDCHAR
STARTCHAR q
ENCODING 113
SWIDTH 500 0
DWIDTH 5 0
BBX 7 11 0 -5
BITMAP
0040
1F80
7740
A300
ABB4
7E80
0A80
0A80
0A80
0740
0100
ENDCHAR
STARTCHAR r
ENCODING 114
SWIDTH 455 0
DWIDTH 5 0
BBX 6 5 0 0
BITMAP
3740
7B90
76E0
7000
6000
ENDCHAR
STARTCHAR s
ENCODING 115
SWIDTH 427 0
DWIDTH 4 0
BBX 6 5 0 0
BITMAP
0C00
2C00
6E10
9B90
6F80
ENDCHAR
STARTCHAR t
ENCODING 116
SWIDTH 393 0
DWIDTH 4 0
BBX 5 9 0 0
BITMAP
0700
1E40
2A00
3A00
FF40
7400
3000
39C0
1F40
ENDCHAR
STARTCHAR u
ENCODING 117
SWIDTH 462 0
DWIDTH 5 0
BBX 6 5 0 0
BITMAP
3240
7340
6710
7F60
7780
ENDCHAR
STARTCHAR v
ENCODING 118
SWIDTH 449 0
DWIDTH 4 0
BBX 6 5 0 0
BITMAP
6340
6740
67E0
7D00
3400
ENDCHAR
STARTCHAR w
ENCODING 119
SWIDTH 700 0
DWIDTH 7 0
BBX 9 5 0 0
BITMAP
621800
677800
6B7F40
7EA000
36C000
ENDCHAR
STARTCHAR x
ENCODING 120
SWIDTH 529 0
DWIDTH 5 0
BBX 7 5 0 0
BITMAP
39D0
2B90
4A04
AF24
BAE0
ENDCHAR
STARTCHAR y
ENCODING 121
SWIDTH 479 0
DWIDTH 5 0
BBX 6 10 0 -5
BITMAP
3240
7340
6710
7FA0
7B80
1E00
2900
9C00
D800
B400
ENDCHAR
STARTCHAR z
ENCODING 122
SWIDTH 445 0
DWIDTH 4 0
BBX 6 5 0 0
BITMAP
7F80
1E40
3410
75A0
2F80
ENDCHAR
STARTCHAR braceleft
ENCODING 123
SWIDTH 490 0
DWIDTH 5 0
BBX 6 11 0 -1
BITMAP
02E0
0740
0A00
0A00
0E00
7C00
1D00
0D00
1C00
1C00
0B80
ENDCHAR
STARTCHAR bar
ENCODING 124
SWIDTH 326 0
DWIDTH 3 0
BBX 3 13 0 -3
BITMAP
0C
1C
1C
18
28
24
34
34
70
70
60
A0
90
ENDCHAR
STARTCHAR braceright
ENCODING 125
SWIDTH 490 0
DWIDTH 5 0
BBX 6 11 -1 -1
BITMAP
1E00
0780
0280
0280
0380
02E0
0340
0700
0700
0A00
7D00
ENDCHAR
STARTCHAR asciitilde
ENCODING 126
SWIDTH 700 0
DWIDTH 7 0
BBX 6 3 1 2
BITMAP
1040
BDD0
8780
ENDCHAR
STARTCHAR uni00A0
ENCODING 160
SWIDTH 265 0
DWIDTH 3 0
BBX 1 1 0 0
BITMAP
00
ENDCHAR
STARTCHAR exclamdown
ENCODING 161
SWIDTH 340 0
DWIDTH 3 0
BBX 4 9 -1 -4
BITMAP
0B
0A
04
0D
1C
28
28
34
70
ENDCHAR
STARTCHAR cent
ENCODING 162
SWIDTH 466 0
DWIDTH 5 0
BBX 5 8 0 -1
BITMAP
0400
0900
2F00
6A00
A800
7B40
1900
1400
ENDCHAR
STARTCHAR sterling
ENCODING 163
SWIDTH 525 0
DWIDTH 5 0
BBX 5 6 0 0
BITMAP
0B80
29C0
3400
BF00
7500
BFC0
ENDCHAR
STARTCHAR currency
ENCODING 164
SWIDTH 700 0
DWIDTH 7 0
BBX 5 5 1 1
BITMAP
AE80
6640
5180
6240
AE80
ENDCHAR
STARTCHAR yen
ENCODING 165
SWIDTH 497 0
DWIDTH 5 0
BBX 5 7 0 0
BITMAP
5040
B1C0
3740
2E00
7F40
BF40
1C00
ENDCHAR
STARTCHAR brokenbar
ENCODING 166
SWIDTH 326 0
DWIDTH 3 0
BBX 3 13 0 -3
BITMAP
0C
1C
1C
18
28
14
00
20
30
70
60
A0
90
ENDCHAR
STARTCHAR section
ENCODING 167
SWIDTH 607 0
DWIDTH 6 0
BBX 6 9 0 0
BITMAP
0BD0
1DA0
1D50
1F80
24D0
1EC0
12C0
75C0
2F40
ENDCHAR
STARTCHAR dieresis
ENCODING 168
SWIDTH 600 0
DWIDTH 6 0
BBX 4 1 1 6
BITMAP
66
ENDCHAR
STARTCHAR copyright
ENCODING 169
SWIDTH 647 0
DWIDTH 6 0
BBX 6 6 1 4
BITMAP
2F40
AE90
A660
A160
AE90
7F80
ENDCHAR
STARTCHAR ordfeminine
ENCODING 170
SWIDTH 393 0
DWIDTH 4 0
BBX 4 4 0 4
BITMAP
1E
37
77
2A
ENDCHAR
STARTCHAR guillemotleft
ENCODING 171
SWIDTH 615 0
DWIDTH 6 0
BBX 6 4 0 0
BITMAP
1CA0
B780
7680
1890
ENDCHAR
STARTCHAR logicalnot
ENCODING 172
SWIDTH 700 0
DWIDTH 7 0
BBX 6 3 1 1
BITMAP
FFD0
01D0
00C0
ENDCHAR
STARTCHAR uni00AD
ENCODING 173
SWIDTH 403 0
DWIDTH 4 0
BBX 4 2 0 2
BITMAP
69
24
ENDCHAR
STARTCHAR registered
ENCODING 174
SWIDTH 647 0
DWIDTH 6 0
BBX 6 6 1 4
BITMAP
2F40
AAD0
8660
9D60
A690
7F80
ENDCHAR
STARTCHAR macron
ENCODING 175
SWIDTH 600 0
DWIDTH 6 0
BBX 4 1 1 6
BITMAP
7E
ENDCHAR
STARTCHAR degree
ENCODING 176
SWIDTH 385 0
DWIDTH 4 0
BBX 3 3 1 6
BITMAP
78
DC
B8
ENDCHAR
STARTCHAR plusminus
ENCODING 177
SWIDTH 700 0
DWIDTH 7 0
BBX 5 6 1 0
BITMAP
0900
BFC0
1D00
0C00
1500
FF40
ENDCHAR
STARTCHAR uni00B2
ENCODING 178
SWIDTH 450 0
DWIDTH 5 0
BBX 5 4 0 4
BITMAP
2F40
2340
0900
7F40
ENDCHAR
STARTCHAR uni00B3
ENCODING 179
SWIDTH 450 0
DWIDTH 5 0
BBX 4 4 1 4
BITMAP
BD
59
5D
BC
ENDCHAR
STARTCHAR acute
ENCODING 180
SWIDTH 600 0
DWIDTH 6 0
BBX 3 4 2 6
BITMAP
04
28
34
60
ENDCHAR
STARTCHAR uni00B5
ENCODING 181
SWIDTH 462 0
DWIDTH 5 0
BBX 6 8 0 -3
BITMAP
3240
7340
6710
BF60
B780
A000
9000
9000
ENDCHAR
STARTCHAR paragraph
ENCODING 182
SWIDTH 739 0
DWIDTH 7 0
BBX 6 9 1 0
BITMAP
2FE0
BEB0
FEB0
7DA0
0DE0
1CD0
1CD0
2DC0
29C0
ENDCHAR
STARTCHAR periodcentered
ENCODING 183
SWIDTH 257 0
DWIDTH 3 0
BBX 2 2 0 2
BITMAP
70
70
ENDCHAR
STARTCHAR cedilla
ENCODING 184
SWIDTH 600 0
DWIDTH 6 0
BBX 4 3 0 -3
BITMAP
2C
09
7C
ENDCHAR
STARTCHAR uni00B9
ENCODING 185
SWIDTH 450 0
DWIDTH 5 0
BBX 3 4 1 4
BITMAP
B8
28
24
24
ENDCHAR
STARTCHAR ordmasculine
ENCODING 186
SWIDTH 408 0
DWIDTH 4 0
BBX 4 4 1 4
BITMAP
78
CD
CC
B4
ENDCHAR
STARTCHAR guillemotright
ENCODING 187
SWIDTH 615 0
DWIDTH 6 0
BBX 6 4 0 0
BITMAP
6280
2DE0
2DA0
6280
ENDCHAR
STARTCHAR onequarter
ENCODING 188
SWIDTH 955 0
DWIDTH 10 0
BBX 8 8 1 0
BITMAP
B810
2870
24D0
2680
0719
0A36
0C7F
0009
ENDCHAR
STARTCHAR onehalf
ENCODING 189
SWIDTH 1024 0
DWIDTH 10 0
BBX 9 8 1 0
BITMAP
B81000
287000
24D000
268000
071F40
0A2280
0C0600
003F80
ENDCHAR
STARTCHAR threequarters
ENCODING 190
SWIDTH 1035 0
DWIDTH 10 0
BBX 9 8 1 0
BITMAP
BD0400
592800
5D7000
BDA000
01C940
035A80
062FC0
000240
ENDCHAR
STARTCHAR questiondown
ENCODING 191
SWIDTH 476 0
DWIDTH 5 0
BBX 5 9 -1 -4
BITMAP
01C0
02C0
0100
0300
0A00
2C00
7440
7180
3F40
ENDCHAR
STARTCHAR Agrave
ENCODING 192
SWIDTH 786 0
DWIDTH 8 0
BBX 9 13 0 0
BITMAP
014000
02D000
006000
000000
01BF40
0B9500
1D0D00
381C00
742C00
703800
707840
39F9C0
1F5F40
ENDCHAR
STARTCHAR Aacute
ENCODING 193
SWIDTH 786 0
DWIDTH 8 0
BBX 9 13 0 0
BITMAP
000140
000740
001900
000000
01BF40
0B9500
1D0D00
381C00
742C00
703800
707840
39F9C0
1F5F40
ENDCHAR
STARTCHAR Acircumflex
ENCODING 194
SWIDTH 786 0
DWIDTH 8 0
BBX 9 13 0 0
BITMAP
002C00
007900
009600
000000
01BF40
0B9500
1D0D00
381C00
742C00
703800
707840
39F9C0
1F5F40
ENDCHAR
STARTCHAR Atilde
ENCODING 195
SWIDTH 786 0
DWIDTH 8 0
BBX 9 12 0 0
BITMAP
007640
00DA00
000000
01BF40
0B9500
1D0D00
381C00
742C00
703800
707840
39F9C0
1F5F40
ENDCHAR
STARTCHAR Adieresis
ENCODING 196
SWIDTH 786 0
DWIDTH 8 0
BBX 9 11 0 0
BITMAP
00A600
000000
01BF40
0B9500
1D0D00
381C00
742C00
703800
707840
39F9C0
1F5F40
ENDCHAR
STARTCHAR Aring
ENCODING 197
SWIDTH 786 0
DWIDTH 8 0
BBX 9 13 0 0
BITMAP
002D00
003900
003D00
000000
01BF40
0B9500
1D0D00
381C00
742C00
703800
707840
39F9C0
1F5F40
ENDCHAR
STARTCHAR AE
ENCODING 198
SWIDTH 1015 0
DWIDTH 10 0
BBX 12 9 0 0
BITMAP
01B7F8
0B9A00
1D0D00
381D00
742FF0
702C00
707800
39ED59
1F47F8
ENDCHAR
STARTCHAR Ccedilla
ENCODING 199
SWIDTH 686 0
DWIDTH 7 0
BBX 8 12 0 -3
BITMAP
06F4
1E6C
281C
3414
7000
7000
7400
2D56
0BF9
02C0
01C0
0F40
ENDCHAR
STARTCHAR Egrave
ENCODING 200
SWIDTH 686 0
DWIDTH 7 0
BBX 8 13 0 0
BITMAP
0400
0B00
0180
0000
06F4
1D6C
281C
2D08
0F80
7900
B000
7556
1FF9
ENDCHAR
STARTCHAR Eacute
ENCODING 201
SWIDTH 686 0
DWIDTH 7 0
BBX 8 13 0 0
BITMAP
0004
002D
0060
0000
06F4
1D6C
281C
2D08
0F80
7900
B000
7556
1FF9
ENDCHAR
STARTCHAR Ecircumflex
ENCODING 202
SWIDTH 686 0
DWIDTH 7 0
BBX 8 13 0 0
BITMAP
00A0
01B4
0364
0000
06F4
1D6C
281C
2D08
0F80
7900
B000
7556
1FF9
ENDCHAR
STARTCHAR Edieresis
ENCODING 203
SWIDTH 686 0
DWIDTH 7 0
BBX 8 11 0 0
BITMAP
0264
0000
06F4
1D6C
281C
2D08
0F80
7900
B000
7556
1FF9
ENDCHAR
STARTCHAR Igrave
ENCODING 204
SWIDTH 495 0
DWIDTH 5 0
BBX 6 13 0 0
BITMAP
1000
3800
0A00
0000
2FD0
0B00
0A00
0E00
0D00
0D00
1C00
2C00
FF40
ENDCHAR
STARTCHAR Iacute
ENCODING 205
SWIDTH 495 0
DWIDTH 5 0
BBX 6 13 0 0
BITMAP
0010
00B0
0240
0000
2FD0
0B00
0A00
0E00
0D00
0D00
1C00
2C00
FF40
ENDCHAR
STARTCHAR Icircumflex
ENCODING 206
SWIDTH 495 0
DWIDTH 5 0
BBX 6 13 0 0
BITMAP
0340
0AC0
0CC0
0000
2FD0
0B00
0A00
0E00
0D00
0D00
1C00
2C00
FF40
ENDCHAR
STARTCHAR Idieresis
ENCODING 207
SWIDTH 495 0
DWIDTH 5 0
BBX 6 11 0 0
BITMAP
0DD0
0000
2FD0
0B00
0A00
0E00
0D00
0D00
1C00
2C00
FF40
ENDCHAR
STARTCHAR Eth
ENCODING 208
SWIDTH 821 0
DWIDTH 8 0
BBX 8 9 0 0
BITMAP
07E4
0A6D
0D0A
1C07
BFC7
280A
381D
3578
3F90
ENDCHAR
STARTCHAR Ntilde
ENCODING 209
SWIDTH 884 0
DWIDTH 9 0
BBX 10 12 0 0
BITMAP
00A600
019D00
000000
2D2E00
9A9740
4A8740
0B0700
0E0B00
0D0A00
1D0E00
1C0E70
1C07D0
ENDCHAR
STARTCHAR Ograve
ENCODING 210
SWIDTH 816 0
DWIDTH 8 0
BBX 8 13 0 0
BITMAP
0400
0B40
0180
0000
06F4
1E5D
280A
340B
700B
700A
740D
2D68
0BE0
ENDCHAR
STARTCHAR Oacute
ENCODING 211
SWIDTH 816 0
DWIDTH 8 0
BBX 8 13 0 0
BITMAP
0004
001D
0064
0000
06F4
1E5D
280A
340B
700B
700A
740D
2D68
0BE0
ENDCHAR
STARTCHAR Ocircumflex
ENCODING 212
SWIDTH 816 0
DWIDTH 8 0
BBX 8 13 0 0
BITMAP
00B0
01E4
0258
0000
06F4
1E5D
280A
340B
700B
700A
740D
2D68
0BE0
ENDCHAR
STARTCHAR Otilde
ENCODING 213
SWIDTH 816 0
DWIDTH 8 0
BBX 8 12 0 0
BITMAP
02D8
0378
0000
06F4
1E5D
280A
340B
700B
700A
740D
2D68
0BE0
ENDCHAR
STARTCHAR Odieresis
ENCODING 214
SWIDTH 816 0
DWIDTH 8 0
BBX 8 11 0 0
BITMAP
02A8
0000
06F4
1E5D
280A
340B
700B
700A
740D
2D68
0BE0
ENDCHAR
STARTCHAR multiply
ENCODING 215
SWIDTH 700 0
DWIDTH 7 0
BBX 5 5 1 1
BITMAP
61C0
3B40
1E00
7B40
9240
ENDCHAR
STARTCHAR Oslash
ENCODING 216
SWIDTH 816 0
DWIDTH 8 0
BBX 8 11 0 -1
BITMAP
0030
06F4
1EAD
289A
34CB
71CB
718A
764D
2B68
0BE0
0600
ENDCHAR
STARTCHAR Ugrave
ENCODING 217
SWIDTH 890 0
DWIDTH 9 0
BBX 10 13 0 0
BITMAP
010000
078000
009000
000000
2E0340
AB0740
8B0700
0A0B00
0D0B00
0D1E00
1C2A00
1EAB70
0B87D0
ENDCHAR
STARTCHAR Uacute
ENCODING 218
SWIDTH 890 0
DWIDTH 9 0
BBX 10 13 0 0
BITMAP
000100
000E00
002400
000000
2E0340
AB0740
8B0700
0A0B00
0D0B00
0D1E00
1C2A00
1EAB70
0B87D0
ENDCHAR
STARTCHAR Ucircumflex
ENCODING 219
SWIDTH 890 0
DWIDTH 9 0
BBX 10 13 0 0
BITMAP
007400
00AC00
018C00
000000
2E0340
AB0740
8B0700
0A0B00
0D0B00
0D1E00
1C2A00
1EAB70
0B87D0
ENDCHAR
STARTCHAR Udieresis
ENCODING 220
SWIDTH 890 0
DWIDTH 9 0
BBX 10 11 0 0
BITMAP
00DD00
000000
2E0340
AB0740
8B0700
0A0B00
0D0B00
0D1E00
1C2A00
1EAB70
0B87D0
ENDCHAR
STARTCHAR Yacute
ENCODING 221
SWIDTH 851 0
DWIDTH 9 0
BBX 10 16 0 -3
BITMAP
000100
000B00
002800
000000
2E0340
AB0340
4B0740
0A0B00
0E0B00
0D1E00
0D2A00
0BDF90
01AE00
031C00
0A2800
07E000
ENDCHAR
STARTCHAR Thorn
ENCODING 222
SWIDTH 776 0
DWIDTH 8 0
BBX 8 12 0 -2
BITMAP
01C0
01C0
02F8
1F9E
378A
734E
67AC
ABA0
6700
6A00
2D00
0400
ENDCHAR
STARTCHAR germandbls
ENCODING 223
SWIDTH 596 0
DWIDTH 6 0
BBX 7 11 0 -2
BITMAP
0B90
1DA0
34A0
7280
7700
6390
6AFC
ADA0
A7D0
A000
6000
ENDCHAR
STARTCHAR agrave
ENCODING 224
SWIDTH 470 0
DWIDTH 5 0
BBX 6 10 0 0
BITMAP
1000
2800
0C00
0500
0000
1E00
7740
A300
AB60
7AC0
ENDCHAR
STARTCHAR aacute
ENCODING 225
SWIDTH 470 0
DWIDTH 5 0
BBX 6 10 0 0
BITMAP
0040
0180
0340
0200
0000
1E00
7740
A300
AB60
7AC0
ENDCHAR
STARTCHAR acircumflex
ENCODING 226
SWIDTH 470 0
DWIDTH 5 0
BBX 6 10 0 0
BITMAP
0100
0B40
0E80
2580
0000
1E00
7740
A300
AB60
7AC0
ENDCHAR
STARTCHAR atilde
ENCODING 227
SWIDTH 470 0
DWIDTH 5 0
BBX 6 8 0 0
BITMAP
1D90
2680
0000
1E00
7740
A300
AB60
7AC0
ENDCHAR
STARTCHAR adieresis
ENCODING 228
SWIDTH 470 0
DWIDTH 5 0
BBX 6 7 0 0
BITMAP
1980
0000
1E00
7740
A300
AB60
7AC0
ENDCHAR
STARTCHAR aring
ENCODING 229
SWIDTH 470 0
DWIDTH 5 0
BBX 6 9 0 0
BITMAP
0B40
0E80
0B40
0000
1E00
7740
A300
AB60
7AC0
ENDCHAR
STARTCHAR ae
ENCODING 230
SWIDTH 653 0
DWIDTH 7 0
BBX 8 5 0 0
BITMAP
1EB4
76A4
A3A1
AB9A
79F8
ENDCHAR
STARTCHAR ccedilla
ENCODING 231
SWIDTH 368 0
DWIDTH 4 0
BBX 5 8 0 -3
BITMAP
2D00
7600
A000
A180
3E00
0900
0900
7800
ENDCHAR
STARTCHAR egrave
ENCODING 232
SWIDTH 393 0
DWIDTH 4 0
BBX 5 10 0 0
BITMAP
1000
3400
2800
0800
0000
2E00
7600
A900
B5C0
2E40
ENDCHAR
STARTCHAR eacute
ENCODING 233
SWIDTH 393 0
DWIDTH 4 0
BBX 5 10 0 0
BITMAP
0100
0340
0700
0900
0000
2E00
7600
A900
B5C0
2E40
ENDCHAR
STARTCHAR ecircumflex
ENCODING 234
SWIDTH 393 0
DWIDTH 4 0
BBX 5 10 0 0
BITMAP
0500
0F00
2B00
3240
0000
2E00
7600
A900
B5C0
2E40
ENDCHAR
STARTCHAR edieresis
ENCODING 235
SWIDTH 393 0
DWIDTH 4 0
BBX 5 7 0 0
BITMAP
2640
0000
2E00
7600
A900
B5C0
2E40
ENDCHAR
STARTCHAR igrave
ENCODING 236
SWIDTH 246 0
DWIDTH 2 0
BBX 4 10 0 0
BITMAP
40
D0
A0
20
00
30
70
61
66
78
ENDCHAR
STARTCHAR iacute
ENCODING 237
SWIDTH 246 0
DWIDTH 2 0
BBX 4 10 0 0
BITMAP
04
0D
1C
24
00
30
70
61
66
78
ENDCHAR
STARTCHAR icircumflex
ENCODING 238
SWIDTH 246 0
DWIDTH 2 0
BBX 4 10 0 0
BITMAP
14
3C
AC
C9
00
30
70
61
66
78
ENDCHAR
STARTCHAR idieresis
ENCODING 239
SWIDTH 246 0
DWIDTH 2 0
BBX 4 7 0 0
BITMAP
99
00
30
70
61
66
78
ENDCHAR
STARTCHAR eth
ENCODING 240
SWIDTH 451 0
DWIDTH 5 0
BBX 5 10 0 0
BITMAP
1840
0EC0
0B40
2B40
0240
2F80
7780
A340
A700
2D00
ENDCHAR
STARTCHAR ntilde
ENCODING 241
SWIDTH 496 0
DWIDTH 5 0
BBX 6 8 0 0
BITMAP
1D90
2680
0000
3640
7B80
7B40
7370
62D0
ENDCHAR
STARTCHAR ograve
ENCODING 242
SWIDTH 451 0
DWIDTH 5 0
BBX 6 10 0 0
BITMAP
1000
3400
2800
0800
0000
2E00
7B40
A7E0
A740
2D00
ENDCHAR
STARTCHAR oacute
ENCODING 243
SWIDTH 451 0
DWIDTH 5 0
BBX 6 10 0 0
BITMAP
0100
0340
0600
0900
0000
2E00
7B40
A7E0
A740
2D00
ENDCHAR
STARTCHAR ocircumflex
ENCODING 244
SWIDTH 451 0
DWIDTH 5 0
BBX 6 10 0 0
BITMAP
0500
0F00
2B00
3240
0000
2E00
7B40
A7E0
A740
2D00
ENDCHAR
STARTCHAR otilde
ENCODING 245
SWIDTH 451 0
DWIDTH 5 0
BBX 6 8 0 0
BITMAP
2980
6740
0000
2E00
7B40
A7E0
A740
2D00
ENDCHAR
STARTCHAR odieresis
ENCODING 246
SWIDTH 451 0
DWIDTH 5 0
BBX 6 7 0 0
BITMAP
3640
0000
2E00
7B40
A7E0
A740
2D00
ENDCHAR
STARTCHAR divide
ENCODING 247
SWIDTH 700 0
DWIDTH 7 0
BBX 6 6 1 0
BITMAP
0D00
0000
FFD0
0000
0000
1C00
ENDCHAR
STARTCHAR oslash
ENCODING 248
SWIDTH 459 0
DWIDTH 5 0
BBX 6 8 0 -2
BITMAP
0500
2E00
7B50
AAE0
AB40
3D00
1400
1000
ENDCHAR
STARTCHAR ugrave
ENCODING 249
SWIDTH 462 0
DWIDTH 5 0
BBX 6 10 0 0
BITMAP
1000
2800
1C00
0900
0000
3240
7340
6710
7F60
7780
ENDCHAR
STARTCHAR uacute
ENCODING 250
SWIDTH 462 0
DWIDTH 5 0
BBX 6 10 0 0
BITMAP
0040
0280
0340
0500
0000
3240
7340
6710
7F60
7780
ENDCHAR
STARTCHAR ucircumflex
ENCODING 251
SWIDTH 462 0
DWIDTH 5 0
BBX 6 10 0 0
BITMAP
0100
0B40
1E40
2580
0000
3240
7340
6710
7F60
7780
ENDCHAR
STARTCHAR udieresis
ENCODING 252
SWIDTH 462 0
DWIDTH 5 0
BBX 6 7 0 0
BITMAP
2980
0000
3240
7340
6710
7F60
7780
ENDCHAR
STARTCHAR yacute
ENCODING 253
SWIDTH 479 0
DWIDTH 5 0
BBX 6 15 0 -5
BITMAP
0040
0280
0340
0500
0000
3240
7340
6710
7FA0
7B80
1E00
2900
9C00
D800
B400
ENDCHAR
STARTCHAR thorn
ENCODING 254
SWIDTH 508 0
DWIDTH 5 0
BBX 7 13 0 -4
BITMAP
1400
2800
3400
3000
7740
7A80
B280
A764
BED0
A000
9000
9000
4000
ENDCHAR
STARTCHAR ydieresis
ENCODING 255
SWIDTH 479 0
DWIDTH 5 0
BBX 6 12 0 -5
BITMAP
2980
0000
3240
7340
6710
7FA0
7B80
1E00
2900
9C00
D800
B400
ENDCHAR
STARTCHAR Amacron
ENCODING 256
SWIDTH 786 0
DWIDTH 8 0
BBX 9 11 0 0
BITMAP
007E00
000000
01BF40
0B9500
1D0D00
381C00
742C00
703800
707840
39F9C0
1F5F40
ENDCHAR
STARTCHAR amacron
ENCODING 257
SWIDTH 470 0
DWIDTH 5 0
BBX 6 7 0 0
BITMAP
1F80
0000
1E00
7740
A300
AB60
7AC0
ENDCHAR
STARTCHAR Abreve
ENCODING 258
SWIDTH 786 0
DWIDTH 8 0
BBX 9 12 0 0
BITMAP
009200
007E00
000000
01BF40
0B9500
1D0D00
381C00
742C00
703800
707840
39F9C0
1F5F40
ENDCHAR
STARTCHAR abreve
ENCODING 259
SWIDTH 470 0
DWIDTH 5 0
BBX 6 9 0 0
BITMAP
1000
28C0
1F80
0000
1E00
7740
A300
AB60
7AC0
ENDCHAR
STARTCHAR Aogonek
ENCODING 260
SWIDTH 786 0
DWIDTH 8 0
BBX 9 12 0 -3
BITMAP
01BF40
0B5500
1D0D00
381C00
742C00
703800
707800
39B9C0
1F5F40
000D00
001800
000F40
ENDCHAR
STARTCHAR aogonek
ENCODING 261
SWIDTH 470 0
DWIDTH 5 0
BBX 6 8 0 -3
BITMAP
1E00
7740
A300
AB70
7BD0
0700
0600
03C0
ENDCHAR
STARTCHAR Cacute
ENCODING 262
SWIDTH 686 0
DWIDTH 7 0
BBX 8 13 0 0
BITMAP
0004
001D
0064
0000
06F4
1E6C
281C
3414
7000
7000
3400
2D56
0BF9
ENDCHAR
STARTCHAR cacute
ENCODING 263
SWIDTH 368 0
DWIDTH 4 0
BBX 5 10 0 0
BITMAP
0100
0340
0600
0800
0000
2D00
7600
A040
A580
2E00
ENDCHAR
STARTCHAR Ccircumflex
ENCODING 264
SWIDTH 686 0
DWIDTH 7 0
BBX 8 13 0 0
BITMAP
00B0
01E4
0254
0000
06F4
1E6C
281C
3414
7000
7000
3400
2D56
0BF9
ENDCHAR
STARTCHAR ccircumflex
ENCODING 265
SWIDTH 368 0
DWIDTH 4 0
BBX 5 10 0 0
BITMAP
0500
0F00
2B00
3240
0000
2D00
7600
A040
A580
2E00
ENDCHAR
STARTCHAR Cdotaccent
ENCODING 266
SWIDTH 686 0
DWIDTH 7 0
BBX 8 11 0 0
BITMAP
00A0
0000
06F4
1E6C
281C
3414
7000
7000
3400
2D56
0BF9
ENDCHAR
STARTCHAR cdotaccent
ENCODING 267
SWIDTH 368 0
DWIDTH 4 0
BBX 5 7 0 0
BITMAP
0D00
0000
2D00
7600
A040
A580
2E00
ENDCHAR
STARTCHAR Ccaron
ENCODING 268
SWIDTH 686 0
DWIDTH 7 0
BBX 8 13 0 0
BITMAP
0144
01A4
00A0
0000
06F4
1E6C
281C
3414
7000
7000
3400
2D56
0BF9
ENDCHAR
STARTCHAR ccaron
ENCODING 269
SWIDTH 368 0
DWIDTH 4 0
BBX 5 10 0 0
BITMAP
1040
2A40
1B00
0D00
0000
2D00
7600
A040
A580
2E00
ENDCHAR
STARTCHAR Dcaron
ENCODING 270
SWIDTH 836 0
DWIDTH 8 0
BBX 8 13 0 0
BITMAP
0114
0270
01D0
0000
1BE4
756D
090B
0D07
1C07
2C0B
280E
3978
2F90
ENDCHAR
STARTCHAR dcaron
ENCODING 271
SWIDTH 470 0
DWIDTH 5 0
BBX 7 9 0 0
BITMAP
00E8
01E4
0180
0280
1F40
7740
A300
AB60
7AC0
ENDCHAR
STARTCHAR Dcroat
ENCODING 272
SWIDTH 821 0
DWIDTH 8 0
BBX 8 9 0 0
BITMAP
07E4
0A6D
0D0A
1C07
BFC7
280A
381D
3578
3F90
ENDCHAR
STARTCHAR dcroat
ENCODING 273
SWIDTH 470 0
DWIDTH 5 0
BBX 6 9 0 0
BITMAP
00C0
01C0
1FD0
0280
1F40
7740
A300
AB60
7AC0
ENDCHAR
STARTCHAR Emacron
ENCODING 274
SWIDTH 686 0
DWIDTH 7 0
BBX 8 11 0 0
BITMAP
02F4
0000
06F4
1D6C
281C
2D08
0F80
7900
B000
7556
1FF9
ENDCHAR
STARTCHAR emacron
ENCODING 275
SWIDTH 393 0
DWIDTH 4 0
BBX 5 7 0 0
BITMAP
2F40
0000
2E00
7600
A900
B5C0
2E40
ENDCHAR
STARTCHAR Ebreve
ENCODING 276
SWIDTH 686 0
DWIDTH 7 0
BBX 8 12 0 0
BITMAP
0218
02F4
0000
06F4
1D6C
281C
2D08
0F80
7900
B000
7556
1FF9
ENDCHAR
STARTCHAR ebreve
ENCODING 277
SWIDTH 393 0
DWIDTH 4 0
BBX 5 9 0 0
BITMAP
1040
7180
2F40
0000
2E00
7600
A900
B5C0
2E40
ENDCHAR
STARTCHAR Edotaccent
ENCODING 278
SWIDTH 686 0
DWIDTH 7 0
BBX 8 11 0 0
BITMAP
00E0
0000
06F4
1D6C
281C
2D08
0F80
7900
B000
7556
1FF9
ENDCHAR
STARTCHAR edotaccent
ENCODING 279
SWIDTH 393 0
DWIDTH 4 0
BBX 5 7 0 0
BITMAP
0D00
0000
2E00
7600
A900
B5C0
2E40
ENDCHAR
STARTCHAR Eogonek
ENCODING 280
SWIDTH 686 0
DWIDTH 7 0
BBX 8 12 0 -3
BITMAP
06F4
1D6C
281C
2D08
0F80
7900
B000
B556
2FFE
0180
0240
01F0
ENDCHAR
STARTCHAR eogonek
ENCODING 281
SWIDTH 393 0
DWIDTH 4 0
BBX 5 8 0 -3
BITMAP
2E00
7700
AA00
B4C0
7F40
1C00
1800
0F00
ENDCHAR
STARTCHAR Ecaron
ENCODING 282
SWIDTH 686 0
DWIDTH 7 0
BBX 8 13 0 0
BITMAP
0104
01A4
00E0
0000
06F4
1D6C
281C
2D08
0F80
7900
B000
7556
1FF9
ENDCHAR
STARTCHAR ecaron
ENCODING 283
SWIDTH 393 0
DWIDTH 4 0
BBX 5 10 0 0
BITMAP
1440
1A80
1B00
0D00
0000
2E00
7600
A900
B5C0
2E40
ENDCHAR
STARTCHAR Gcircumflex
ENCODING 284
SWIDTH 811 0
DWIDTH 8 0
BBX 9 18 0 -5
BITMAP
007000
01E400
025800
000000
02F400
1E5D00
280D00
340400
700000
707D00
340D00
2D5EC0
0BFE00
002C00
00A800
01A400
02B000
01D000
ENDCHAR
STARTCHAR gcircumflex
ENCODING 285
SWIDTH 479 0
DWIDTH 5 0
BBX 6 15 0 -5
BITMAP
0100
0B40
0E80
2580
0000
1E00
7740
A310
ABA0
7F80
1E00
2900
9C00
D800
B400
ENDCHAR
STARTCHAR Gbreve
ENCODING 286
SWIDTH 811 0
DWIDTH 8 0
BBX 9 17 0 -5
BITMAP
024800
01F800
000000
02F400
1E5D00
280D00
340400
700000
707D00
340D00
2D5EC0
0BFE00
002C00
00A800
01A400
02B000
01D000
ENDCHAR
STARTCHAR gbreve
ENCODING 287
SWIDTH 479 0
DWIDTH 5 0
BBX 6 14 0 -5
BITMAP
1000
28C0
1F80
0000
1E00
7740
A310
ABA0
7F80
1E00
2900
9C00
D800
B400
ENDCHAR
STARTCHAR Gdotaccent
ENCODING 288
SWIDTH 811 0
DWIDTH 8 0
BBX 9 16 0 -5
BITMAP
00B000
000000
02F400
1E5D00
280D00
340400
700000
707D00
340D00
2D5EC0
0BFE00
002C00
00A800
01A400
02B000
01D000
ENDCHAR
STARTCHAR gdotaccent
ENCODING 289
SWIDTH 479 0
DWIDTH 5 0
BBX 6 12 0 -5
BITMAP
0B00
0000
1E00
7740
A310
ABA0
7F80
1E00
2900
9C00
D800
B400
ENDCHAR
STARTCHAR uni0122
ENCODING 290
SWIDTH 811 0
DWIDTH 8 0
BBX 9 14 0 -5
BITMAP
02F400
1E5D00
280D00
340400
700000
707D00
340D00
2D5EC0
0BFE00
002C00
0DA800
0DA400
02B000
01D000
ENDCHAR
STARTCHAR uni0123
ENCODING 291
SWIDTH 479 0
DWIDTH 5 0
BBX 6 14 0 -5
BITMAP
0200
0700
0600
0000
1E00
7740
A310
ABA0
7F80
1E00
2900
9C00
D800
B400
ENDCHAR
STARTCHAR Hcircumflex
ENCODING 292
SWIDTH 873 0
DWIDTH 9 0
BBX 10 13 0 0
BITMAP
007400
00A800
018C00
0002D0
2E0790
DB0A50
470D80
0A1F80
3FFD00
0D1C00
1D1C10
1C0D60
180780
ENDCHAR
STARTCHAR hcircumflex
ENCODING 293
SWIDTH 502 0
DWIDTH 5 0
BBX 7 14 0 0
BITMAP
0740
0A80
18C0
0000
0B00
1A40
2600
3600
7900
7A80
7B80
7A40
7364
62D0
ENDCHAR
STARTCHAR Hbar
ENCODING 294
SWIDTH 856 0
DWIDTH 9 0
BBX 9 9 0 0
BITMAP
0D0700
3FFF80
1D0A00
1C0A00
7FFF40
281D00
281D00
341C00
341800
ENDCHAR
STARTCHAR hbar
ENCODING 295
SWIDTH 502 0
DWIDTH 5 0
BBX 7 9 0 0
BITMAP
1C00
2800
7F40
3400
3680
7B80
7A40
7364
62D0
ENDCHAR
STARTCHAR Itilde
ENCODING 296
SWIDTH 495 0
DWIDTH 5 0
BBX 6 12 0 0
BITMAP
0E60
26D0
0000
2FD0
0B00
0A00
0E00
0D00
0D00
1C00
2C00
FF40
ENDCHAR
STARTCHAR itilde
ENCODING 297
SWIDTH 246 0
DWIDTH 2 0
BBX 5 8 -1 0
BITMAP
2980
6740
0000
0C00
1C00
1840
1980
1E00
ENDCHAR
STARTCHAR Imacron
ENCODING 298
SWIDTH 495 0
DWIDTH 5 0
BBX 6 11 0 0
BITMAP
0FC0
0000
2FD0
0B00
0A00
0E00
0D00
0D00
1C00
2C00
FF40
ENDCHAR
STARTCHAR imacron
ENCODING 299
SWIDTH 246 0
DWIDTH 2 0
BBX 4 7 0 0
BITMAP
BD
00
30
70
61
66
78
ENDCHAR
STARTCHAR Ibreve
ENCODING 300
SWIDTH 495 0
DWIDTH 5 0
BBX 6 12 0 0
BITMAP
1850
0FD0
0000
2FD0
0B00
0A00
0E00
0D00
0D00
1C00
2C00
FF40
ENDCHAR
STARTCHAR ibreve
ENCODING 301
SWIDTH 246 0
DWIDTH 2 0
BBX 5 9 -1 0
BITMAP
1040
7180
2F40
0000
0C00
1C00
1840
1980
1E00
ENDCHAR
STARTCHAR Iogonek
ENCODING 302
SWIDTH 495 0
DWIDTH 5 0
BBX 6 12 0 -3
BITMAP
2FD0
0B00
0A00
0E00
0D00
0D00
1C00
2C00
FF40
2400
3400
2E00
ENDCHAR
STARTCHAR iogonek
ENCODING 303
SWIDTH 246 0
DWIDTH 2 0
BBX 4 10 0 -3
BITMAP
34
00
30
70
60
A6
7C
60
90
78
ENDCHAR
STARTCHAR Idotaccent
ENCODING 304
SWIDTH 495 0
DWIDTH 5 0
BBX 6 11 0 0
BITMAP
0740
0000
2FD0
0B00
0A00
0E00
0D00
0D00
1C00
2C00
FF40
ENDCHAR
STARTCHAR dotlessi
ENCODING 305
SWIDTH 246 0
DWIDTH 2 0
BBX 4 5 0 0
BITMAP
30
70
61
66
78
ENDCHAR
STARTCHAR Jcircumflex
ENCODING 308
SWIDTH 743 0
DWIDTH 7 0
BBX 8 14 0 -1
BITMAP
00D0
02B0
0330
0000
1BF9
391D
701C
202C
0078
02F8
0E34
1C70
2CD0
1F80
ENDCHAR
STARTCHAR jcircumflex
ENCODING 309
SWIDTH 254 0
DWIDTH 3 0
BBX 7 15 -3 -5
BITMAP
0050
00F0
02B0
0324
0000
00C0
01C0
01C0
01A4
02D0
0740
1B40
2700
6A00
3800
ENDCHAR
STARTCHAR uni0136
ENCODING 310
SWIDTH 937 0
DWIDTH 9 0
BBX 11 12 0 -3
BITMAP
1BE0A0
35E1D0
70D280
21DB00
03F800
02EC00
428E04
A74B64
2E02E0
000000
00A000
009000
ENDCHAR
STARTCHAR uni0137
ENCODING 311
SWIDTH 525 0
DWIDTH 5 0
BBX 7 13 0 -3
BITMAP
0B00
1A40
2600
3600
7900
7A80
69C0
7A84
7764
62E0
0800
1800
1400
ENDCHAR
STARTCHAR kgreenlandic
ENCODING 312
SWIDTH 465 0
DWIDTH 5 0
BBX 6 5 0 0
BITMAP
3780
7DC0
7C50
7D60
6780
ENDCHAR
STARTCHAR Lacute
ENCODING 313
SWIDTH 673 0
DWIDTH 7 0
BBX 9 13 -1 0
BITMAP
000140
000780
000900
000000
00BE00
02D740
034340
070100
070000
070000
0A0040
7F9580
79BE00
ENDCHAR
STARTCHAR lacute
ENCODING 314
SWIDTH 326 0
DWIDTH 3 0
BBX 6 14 0 0
BITMAP
0010
00E0
0240
0000
0B00
1A40
2640
3300
7600
7900
7800
7400
7640
2E00
ENDCHAR
STARTCHAR uni013B
ENCODING 315
SWIDTH 673 0
DWIDTH 7 0
BBX 9 12 -1 -3
BITMAP
00BE00
02D740
034340
070100
070000
070000
0A0040
7F9580
79BE00
000000
018000
014000
ENDCHAR
STARTCHAR uni013C
ENCODING 316
SWIDTH 326 0
DWIDTH 3 0
BBX 5 13 0 -3
BITMAP
0B00
1A40
2640
3300
7600
7900
7800
7400
7640
2E00
2400
3400
2000
ENDCHAR
STARTCHAR Lcaron
ENCODING 317
SWIDTH 673 0
DWIDTH 7 0
BBX 10 9 -1 0
BITMAP
00BE10
02D770
0343A0
070100
070000
070000
0A0040
7F9580
79BE00
ENDCHAR
STARTCHAR lcaron
ENCODING 318
SWIDTH 237 0
DWIDTH 2 0
BBX 5 9 0 0
BITMAP
1B40
2A00
3400
3400
7000
7000
A100
A900
7800
ENDCHAR
STARTCHAR Ldot
ENCODING 319
SWIDTH 673 0
DWIDTH 7 0
BBX 9 9 -1 0
BITMAP
00BE00
02D740
034340
070100
073800
070000
0A0040
7F9580
79BE00
ENDCHAR
STARTCHAR ldot
ENCODING 320
SWIDTH 363 0
DWIDTH 4 0
BBX 5 10 0 0
BITMAP
0C00
1C00
2800
3400
3600
7600
7000
6040
7580
2E00
ENDCHAR
STARTCHAR Lslash
ENCODING 321
SWIDTH 673 0
DWIDTH 7 0
BBX 9 11 -1 0
BITMAP
00BF40
019400
00BE00
02D740
034340
070200
070000
070000
0A0040
7F9580
79BE00
ENDCHAR
STARTCHAR lslash
ENCODING 322
SWIDTH 326 0
DWIDTH 3 0
BBX 6 11 0 0
BITMAP
0BE0
2940
0B00
1A40
3640
7300
7500
7800
7400
7640
2E00
ENDCHAR
STARTCHAR Nacute
ENCODING 323
SWIDTH 884 0
DWIDTH 9 0
BBX 10 13 0 0
BITMAP
000100
000B00
002800
000000
2D2E00
9A9740
4A8740
0B0700
0E0B00
0D0A00
1D0E00
1C0E70
1C07D0
ENDCHAR
STARTCHAR nacute
ENCODING 324
SWIDTH 496 0
DWIDTH 5 0
BBX 6 10 0 0
BITMAP
0040
01C0
0240
0200
0000
3640
7B80
7B40
7370
62D0
ENDCHAR
STARTCHAR uni0145
ENCODING 325
SWIDTH 884 0
DWIDTH 9 0
BBX 10 12 0 -3
BITMAP
2D2E00
9A9740
4A8740
0B0700
0E0B00
0D0A00
1D0E00
1C0E70
1C07D0
000000
018000
018000
ENDCHAR
STARTCHAR uni0146
ENCODING 326
SWIDTH 496 0
DWIDTH 5 0
BBX 6 8 0 -3
BITMAP
3640
7B80
7B40
7370
62D0
0800
1800
1400
ENDCHAR
STARTCHAR Ncaron
ENCODING 327
SWIDTH 884 0
DWIDTH 9 0
BBX 10 13 0 0
BITMAP
004500
009D00
003400
000000
2D2E00
9A9740
4A8740
0B0700
0E0B00
0D0A00
1D0E00
1C0E70
1C07D0
ENDCHAR
STARTCHAR ncaron
ENCODING 328
SWIDTH 496 0
DWIDTH 5 0
BBX 6 10 0 0
BITMAP
0440
0CC0
0A40
0600
0000
3640
7B80
7B40
7370
62D0
ENDCHAR
STARTCHAR napostrophe
ENCODING 329
SWIDTH 496 0
DWIDTH 5 0
BBX 6 9 0 0
BITMAP
8000
C000
8000
0000
3640
7B80
7B40
7370
62D0
ENDCHAR
STARTCHAR Eng
ENCODING 330
SWIDTH 884 0
DWIDTH 9 0
BBX 10 13 0 -4
BITMAP
2D2E00
9A9740
4A8740
0B0700
0E0B00
0D0A00
1D0D00
1C0D70
1C1FD0
002800
003400
1D7000
0BD000
ENDCHAR
STARTCHAR eng
ENCODING 331
SWIDTH 495 0
DWIDTH 5 0
BBX 6 8 0 -3
BITMAP
3640
7B80
7740
7370
67D0
0A00
9D00
7400
ENDCHAR
STARTCHAR Omacron
ENCODING 332
SWIDTH 816 0
DWIDTH 8 0
BBX 8 11 0 0
BITMAP
02F4
0000
06F4
1E5D
280A
340B
700B
700A
740D
2D68
0BE0
ENDCHAR
STARTCHAR omacron
ENCODING 333
SWIDTH 451 0
DWIDTH 5 0
BBX 6 7 0 0
BITMAP
3F00
0000
2E00
7B40
A7E0
A740
2D00
ENDCHAR
STARTCHAR Obreve
ENCODING 334
SWIDTH 816 0
DWIDTH 8 0
BBX 8 12 0 0
BITMAP
0248
02F8
0000
06F4
1E5D
280A
340B
700B
700A
740D
2D68
0BE0
ENDCHAR
STARTCHAR obreve
ENCODING 335
SWIDTH 451 0
DWIDTH 5 0
BBX 6 9 0 0
BITMAP
1040
7180
2F40
0000
2E00
7B40
A7E0
A740
2D00
ENDCHAR
STARTCHAR Ohungarumlaut
ENCODING 336
SWIDTH 816 0
DWIDTH 8 0
BBX 8 13 0 0
BITMAP
0044
00DC
0194
0000
06F4
1E5D
280A
340B
700B
700A
740D
2D68
0BE0
ENDCHAR
STARTCHAR ohungarumlaut
ENCODING 337
SWIDTH 451 0
DWIDTH 5 0
BBX 6 10 0 0
BITMAP
0440
0DC0
1A80
2600
0000
2E00
7B40
A7E0
A740
2D00
ENDCHAR
STARTCHAR OE
ENCODING 338
SWIDTH 1124 0
DWIDTH 11 0
BBX 13 9 0 0
BITMAP
06F5FE00
1E5F8000
280B4000
340B4000
700BFC00
700B0000
740F0000
2D6F9640
0BE1FE00
ENDCHAR
STARTCHAR oe
ENCODING 339
SWIDTH 668 0
DWIDTH 7 0
BBX 8 5 0 0
BITMAP
2EB4
77A8
A3B5
A79A
2DB8
ENDCHAR
STARTCHAR Racute
ENCODING 340
SWIDTH 880 0
DWIDTH 9 0
BBX 10 13 0 0
BITMAP
000100
001E00
003400
000000
02F900
0E5B00
25C700
329E00
67F400
63B800
635C10
370E70
1E0790
ENDCHAR
STARTCHAR racute
ENCODING 341
SWIDTH 455 0
DWIDTH 5 0
BBX 6 10 0 0
BITMAP
0040
0280
0300
0500
0000
3740
7B90
76E0
7000
6000
ENDCHAR
STARTCHAR uni0156
ENCODING 342
SWIDTH 880 0
DWIDTH 9 0
BBX 10 12 0 -3
BITMAP
02F900
0E5B00
25C700
329E00
67F400
63B800
635C10
370E70
1E0790
000000
009000
009000
ENDCHAR
STARTCHAR uni0157
ENCODING 343
SWIDTH 455 0
DWIDTH 5 0
BBX 6 8 0 -3
BITMAP
3740
7B90
76E0
7000
6000
5000
A000
9000
ENDCHAR
STARTCHAR Rcaron
ENCODING 344
SWIDTH 880 0
DWIDTH 9 0
BBX 10 13 0 0
BITMAP
004400
00D800
007000
000000
02F900
0E5B00
25C700
329E00
67F400
63B800
635C10
370E70
1E0790
ENDCHAR
STARTCHAR rcaron
ENCODING 345
SWIDTH 455 0
DWIDTH 5 0
BBX 6 10 0 0
BITMAP
0440
1D80
0E40
0A00
0000
3740
7B90
76E0
7000
6000
ENDCHAR
STARTCHAR Sacute
ENCODING 346
SWIDTH 693 0
DWIDTH 7 0
BBX 7 13 0 0
BITMAP
0004
0038
0090
0000
0BE0
2968
381C
2D04
0BD0
01B4
A038
B474
2F90
ENDCHAR
STARTCHAR sacute
ENCODING 347
SWIDTH 427 0
DWIDTH 4 0
BBX 6 10 0 0
BITMAP
0100
0340
0600
0900
0000
0C00
2C00
6E10
9B90
6F80
ENDCHAR
STARTCHAR Scircumflex
ENCODING 348
SWIDTH 693 0
DWIDTH 7 0
BBX 7 13 0 0
BITMAP
01D0
03A0
0630
0000
0BE0
2968
381C
2D04
0BD0
01B4
A038
B474
2F90
ENDCHAR
STARTCHAR scircumflex
ENCODING 349
SWIDTH 427 0
DWIDTH 4 0
BBX 6 10 0 0
BITMAP
0500
0F00
2B00
3240
0000
0C00
2C00
6E10
9B90
6F80
ENDCHAR
STARTCHAR Scedilla
ENCODING 350
SWIDTH 693 0
DWIDTH 7 0
BBX 7 12 0 -3
BITMAP
0BE0
2968
381C
2D04
0BD0
01B4
A038
A074
2F90
0240
0240
1E00
ENDCHAR
STARTCHAR scedilla
ENCODING 351
SWIDTH 427 0
DWIDTH 4 0
BBX 6 8 0 -3
BITMAP
0C00
2C00
3D00
9A50
6F80
0900
0900
7800
ENDCHAR
STARTCHAR Scaron
ENCODING 352
SWIDTH 693 0
DWIDTH 7 0
BBX 7 13 0 0
BITMAP
0110
0370
01D0
0000
0BE0
2968
381C
2D04
0BD0
01B4
A038
B474
2F90
ENDCHAR
STARTCHAR scaron
ENCODING 353
SWIDTH 427 0
DWIDTH 4 0
BBX 6 10 0 0
BITMAP
1040
2A80
1B00
0D00
0000
0C00
2C00
6E10
9B90
6F80
ENDCHAR
STARTCHAR uni0162
ENCODING 354
SWIDTH 697 0
DWIDTH 7 0
BBX 9 11 0 -2
BITMAP
1BFF80
75E000
A0D000
51C000
02C000
028000
038000
034000
074000
018000
0F4000
ENDCHAR
STARTCHAR uni0163
ENCODING 355
SWIDTH 393 0
DWIDTH 4 0
BBX 5 12 0 -3
BITMAP
0700
1E40
2A00
3A00
FF40
7400
3000
3480
2F80
2E00
0900
7C00
ENDCHAR
STARTCHAR Tcaron
ENCODING 356
SWIDTH 697 0
DWIDTH 7 0
BBX 9 13 0 0
BITMAP
004400
00D800
00B000
000000
1BFF80
75E000
A0D000
51C000
01C000
028000
028000
038000
034000
ENDCHAR
STARTCHAR tcaron
ENCODING 357
SWIDTH 343 0
DWIDTH 3 0
BBX 5 9 0 0
BITMAP
0280
1A40
2800
2800
BF00
7400
7000
7680
2E00
ENDCHAR
STARTCHAR Tbar
ENCODING 358
SWIDTH 697 0
DWIDTH 7 0
BBX 9 9 0 0
BITMAP
1BFF80
75E000
A0D000
51C000
0FF800
028000
028000
038000
034000
ENDCHAR
STARTCHAR tbar
ENCODING 359
SWIDTH 343 0
DWIDTH 3 0
BBX 5 8 0 0
BITMAP
1800
2800
2800
BE00
FD00
7040
7640
2E00
ENDCHAR
STARTCHAR Utilde
ENCODING 360
SWIDTH 890 0
DWIDTH 9 0
BBX 10 12 0 0
BITMAP
00E600
026D00
000000
2E0340
AB0740
8B0700
0A0B00
0D0B00
0D1E00
1C2A00
1EAB70
0B87D0
ENDCHAR
STARTCHAR utilde
ENCODING 361
SWIDTH 462 0
DWIDTH 5 0
BBX 6 8 0 0
BITMAP
2D90
2680
0000
3240
7340
6710
7F60
7780
ENDCHAR
STARTCHAR Umacron
ENCODING 362
SWIDTH 890 0
DWIDTH 9 0
BBX 10 11 0 0
BITMAP
00FC00
000000
2E0340
AB0740
8B0700
0A0B00
0D0B00
0D1E00
1C2A00
1EAB70
0B87D0
ENDCHAR
STARTCHAR umacron
ENCODING 363
SWIDTH 462 0
DWIDTH 5 0
BBX 6 7 0 0
BITMAP
2F40
0000
3240
7340
6710
7F60
7780
ENDCHAR
STARTCHAR Ubreve
ENCODING 364
SWIDTH 890 0
DWIDTH 9 0
BBX 10 12 0 0
BITMAP
018500
01FD00
000000
2E0340
AB0740
8B0700
0A0B00
0D0B00
0D1E00
1C2A00
1EAB70
0B87D0
ENDCHAR
STARTCHAR ubreve
ENCODING 365
SWIDTH 462 0
DWIDTH 5 0
BBX 6 9 0 0
BITMAP
1040
35C0
1F40
0000
3240
7340
6710
7F60
7780
ENDCHAR
STARTCHAR Uring
ENCODING 366
SWIDTH 890 0
DWIDTH 9 0
BBX 10 13 0 0
BITMAP
007800
009C00
00B800
000000
2E0340
AB0740
8B0700
0A0B00
0D0B00
0D1E00
1C2A00
1EAB70
0B87D0
ENDCHAR
STARTCHAR uring
ENCODING 367
SWIDTH 462 0
DWIDTH 5 0
BBX 6 9 0 0
BITMAP
0B00
0A40
0F00
0000
3240
7340
6710
7F60
7780
ENDCHAR
STARTCHAR Uhungarumlaut
ENCODING 368
SWIDTH 890 0
DWIDTH 9 0
BBX 10 13 0 0
BITMAP
001400
00A900
008800
000000
2E0340
AB0740
8B0700
0A0B00
0D0B00
0D1E00
1C2A00
1EAB70
0B87D0
ENDCHAR
STARTCHAR uhungarumlaut
ENCODING 369
SWIDTH 462 0
DWIDTH 5 0
BBX 6 10 0 0
BITMAP
0440
0AD0
0DC0
1940
0000
3240
7340
6710
7F60
7780
ENDCHAR
STARTCHAR Uogonek
ENCODING 370
SWIDTH 890 0
DWIDTH 9 0
BBX 10 12 0 -3
BITMAP
2E0340
AB0340
4B0700
0A0B00
0E0B00
0D0E00
1C2E00
1D6A70
0B87D0
000340
000300
0002D0
ENDCHAR
STARTCHAR uogonek
ENCODING 371
SWIDTH 462 0
DWIDTH 5 0
BBX 6 8 0 -3
BITMAP
3240
7340
6710
7F60
77D0
0600
0A00
07C0
ENDCHAR
STARTCHAR Wcircumflex
ENCODING 372
SWIDTH 1217 0
DWIDTH 12 0
BBX 13 13 1 0
BITMAP
001C0000
007A0000
00A60000
00000000
60287C00
B0389D00
A0749D00
A0746C00
A0B42F80
A0F43400
A2A4A000
7B2EC000
2D0F4000
ENDCHAR
STARTCHAR wcircumflex
ENCODING 373
SWIDTH 700 0
DWIDTH 7 0
BBX 9 10 0 0
BITMAP
004000
03C000
069000
099000
000000
621800
677800
6B7F40
7EA000
36C000
ENDCHAR
STARTCHAR Ycircumflex
ENCODING 374
SWIDTH 851 0
DWIDTH 9 0
BBX 10 16 0 -3
BITMAP
003800
00AC00
00C900
000000
2E0340
AB0340
4B0740
0A0B00
0E0B00
0D1E00
0D2A00
0BDF90
01AE00
031C00
0A2800
07E000
ENDCHAR
STARTCHAR ycircumflex
ENCODING 375
SWIDTH 479 0
DWIDTH 5 0
BBX 6 15 0 -5
BITMAP
0100
0B40
1E40
2580
0000
3240
7340
6710
7FA0
7B80
1E00
2900
9C00
D800
B400
ENDCHAR
STARTCHAR Ydieresis
ENCODING 376
SWIDTH 851 0
DWIDTH 9 0
BBX 10 14 0 -3
BITMAP
00DD00
000000
2E0340
AB0340
4B0740
0A0B00
0E0B00
0D1E00
0D2A00
0BDF90
01AE00
031C00
0A2800
07E000
ENDCHAR
STARTCHAR Zacute
ENCODING 377
SWIDTH 721 0
DWIDTH 7 0
BBX 9 13 0 0
BITMAP
000400
002C00
00A000
000000
1BF900
756D00
703800
20B000
01D000
028000
0B4000
BF9640
B9BD00
ENDCHAR
STARTCHAR zacute
ENCODING 378
SWIDTH 445 0
DWIDTH 4 0
BBX 6 10 0 0
BITMAP
0040
0280
0300
0500
0000
7F80
1E40
3410
75A0
2F80
ENDCHAR
STARTCHAR Zdotaccent
ENCODING 379
SWIDTH 721 0
DWIDTH 7 0
BBX 9 11 0 0
BITMAP
00D000
000000
1BF900
756D00
703800
20B000
01D000
028000
0B4000
BF9640
B9BD00
ENDCHAR
STARTCHAR zdotaccent
ENCODING 380
SWIDTH 445 0
DWIDTH 4 0
BBX 6 7 0 0
BITMAP
0A00
0000
7F80
1E40
3410
75A0
2F80
ENDCHAR
STARTCHAR Zcaron
ENCODING 381
SWIDTH 721 0
DWIDTH 7 0
BBX 9 13 0 0
BITMAP
011400
027400
00D000
000000
1BF900
756D00
703800
20B000
01D000
028000
0B4000
BF9640
B9BD00
ENDCHAR
STARTCHAR zcaron
ENCODING 382
SWIDTH 445 0
DWIDTH 4 0
BBX 6 10 0 0
BITMAP
0440
1980
0E40
0A00
0000
7F80
1E40
3410
75A0
2F80
ENDCHAR
STARTCHAR uni018F
ENCODING 399
SWIDTH 792 0
DWIDTH 8 0
BBX 8 9 0 0
BITMAP
0BE4
296D
000E
000A
7FFE
741E
741D
3978
0BD0
ENDCHAR
STARTCHAR florin
ENCODING 402
SWIDTH 478 0
DWIDTH 5 0
BBX 7 11 -1 -3
BITMAP
01B4
0290
0340
2FE0
0740
0700
0700
0A00
0A00
0D00
B800
ENDCHAR
STARTCHAR Ohorn
ENCODING 416
SWIDTH 816 0
DWIDTH 8 0
BBX 9 11 0 0
BITMAP
000140
000280
06FF00
1E5D00
280B00
340B00
700B00
700A00
740D00
2D6800
0BE000
ENDCHAR
STARTCHAR ohorn
ENCODING 417
SWIDTH 451 0
DWIDTH 5 0
BBX 6 7 0 0
BITMAP
0040
00C0
2F40
7B40
A7E0
A740
2D00
ENDCHAR
STARTCHAR Uhorn
ENCODING 431
SWIDTH 890 0
DWIDTH 9 0
BBX 10 11 0 0
BITMAP
000010
000070
2E03D0
AB0740
8B0700
0A0B00
0D0B00
0D1E00
1C2A00
1EAB70
0B87D0
ENDCHAR
STARTCHAR uhorn
ENCODING 432
SWIDTH 512 0
DWIDTH 5 0
BBX 7 7 0 0
BITMAP
0010
0060
32D0
7340
6700
7F64
77D0
ENDCHAR
STARTCHAR uni01C4
ENCODING 452
SWIDTH 1531 0
DWIDTH 15 0
BBX 16 13 1 0
BITMAP
00000410
00000A90
00000380
00000000
2F906FE4
55B4D5B4
2039C0E0
702C81C0
A02C0380
A0380B00
D0741D01
D5E1FE59
FE42E6F8
ENDCHAR
STARTCHAR uni01C5
ENCODING 453
SWIDTH 1191 0
DWIDTH 12 0
BBX 12 10 1 0
BITMAP
000041
2F9099
55B46C
203834
702C00
A02EFC
A03874
D075D0
D5E380
FE43FC
ENDCHAR
STARTCHAR uni01C6
ENCODING 454
SWIDTH 895 0
DWIDTH 9 0
BBX 10 9 0 0
BITMAP
00C990
01CAC0
018740
028100
1F6FC0
775B40
A32810
AB7970
7A9F90
ENDCHAR
STARTCHAR uni01C7
ENCODING 455
SWIDTH 1276 0
DWIDTH 13 0
BBX 14 10 -1 -1
BITMAP
00BD1FE0
029A75E0
0747A0D0
070561D0
070002C0
07001EC0
0A007280
7F95D340
79BFDA00
0000BC00
ENDCHAR
STARTCHAR uni01C8
ENCODING 456
SWIDTH 927 0
DWIDTH 9 0
BBX 12 14 -1 -5
BITMAP
00BE00
02D740
0343B0
070100
070060
0700A0
0A00A0
7F95ED
79BEF4
0001C0
0006C0
001980
001B40
001E00
ENDCHAR
STARTCHAR uni01C9
ENCODING 457
SWIDTH 610 0
DWIDTH 6 0
BBX 7 15 0 -5
BITMAP
0B00
1A40
2640
33B0
7600
79A0
78A0
74D0
76EC
2EE0
02C0
0A80
1A40
2700
1D00
ENDCHAR
STARTCHAR uni01CA
ENCODING 458
SWIDTH 1497 0
DWIDTH 15 0
BBX 15 10 0 -1
BITMAP
2D2E0BF8
9A976928
4B877438
0B072434
0E0B00B4
0D0A07B0
1D0E1DA0
1C0E7490
1C07F5C0
00002F40
ENDCHAR
STARTCHAR uni01CB
ENCODING 459
SWIDTH 1138 0
DWIDTH 11 0
BBX 13 14 0 -5
BITMAP
2D2E0000
9A974000
4B875D00
0B070000
0E0B1C00
0D0A1800
1D0E2800
1C0E7A40
1C07FD00
00007400
0001B000
00026000
00069000
00078000
ENDCHAR
STARTCHAR uni01CC
ENCODING 460
SWIDTH 750 0
DWIDTH 8 0
BBX 9 12 0 -5
BITMAP
001D00
000000
364C00
7B9C00
7B5800
737A40
62FD00
007400
01B000
037000
069000
038000
ENDCHAR
STARTCHAR Gcaron
ENCODING 486
SWIDTH 811 0
DWIDTH 8 0
BBX 9 18 0 -5
BITMAP
004400
01D800
00A000
000000
02F400
1E5D00
280D00
340400
700000
707D00
340D00
2D5EC0
0BFE00
002C00
00A800
01A400
02B000
01D000
ENDCHAR
STARTCHAR gcaron
ENCODING 487
SWIDTH 479 0
DWIDTH 5 0
BBX 6 15 0 -5
BITMAP
0440
0DC0
0E40
0A00
0000
1E00
7740
A310
ABA0
7F80
1E00
2900
9C00
D800
B400
ENDCHAR
STARTCHAR uni01EA
ENCODING 490
SWIDTH 816 0
DWIDTH 8 0
BBX 8 12 0 -3
BITMAP
02F4
0E5D
280A
340B
740B
700A
740D
382C
1FF4
0280
0340
02E0
ENDCHAR
STARTCHAR uni01EB
ENCODING 491
SWIDTH 451 0
DWIDTH 5 0
BBX 6 8 0 -3
BITMAP
2E00
7B40
A7E0
A340
7E00
1800
2400
1E00
ENDCHAR
STARTCHAR Aringacute
ENCODING 506
SWIDTH 786 0
DWIDTH 8 0
BBX 10 14 0 0
BITMAP
0000A0
002D80
003900
003D00
000000
01BF40
0B9500
1D0D00
381C00
742C00
703800
707840
39F9C0
1F5F40
ENDCHAR
STARTCHAR aringacute
ENCODING 507
SWIDTH 470 0
DWIDTH 5 0
BBX 7 10 0 0
BITMAP
0014
0B64
0E80
0B40
0000
1E00
7740
A300
AB60
7AC0
ENDCHAR
STARTCHAR AEacute
ENCODING 508
SWIDTH 1015 0
DWIDTH 10 0
BBX 12 13 0 0
BITMAP
000050
0001E0
000240
000000
01B7F8
0B9A00
1D0D00
381D00
742FF0
702C00
707800
39ED59
1F47F8
ENDCHAR
STARTCHAR aeacute
ENCODING 509
SWIDTH 653 0
DWIDTH 7 0
BBX 8 10 0 0
BITMAP
0010
0070
00A0
0080
0000
1EB4
76A4
A3A1
AB9A
79F8
ENDCHAR
STARTCHAR Oslashacute
ENCODING 510
SWIDTH 816 0
DWIDTH 8 0
BBX 8 14 0 -1
BITMAP
0014
0074
0190
0030
06F4
1EAD
289A
34CB
71CB
718A
764D
2B68
0BE0
0600
ENDCHAR
STARTCHAR oslashacute
ENCODING 511
SWIDTH 459 0
DWIDTH 5 0
BBX 6 12 0 -2
BITMAP
0400
0D00
1C00
2400
0500
2E00
7B50
AAE0
AB40
3D00
1400
1000
ENDCHAR
STARTCHAR uni0200
ENCODING 512
SWIDTH 786 0
DWIDTH 8 0
BBX 9 13 0 0
BITMAP
004400
00DC00
005900
000000
01BF40
0B9500
1D0D00
381C00
742C00
703800
707840
39F9C0
1F5F40
ENDCHAR
STARTCHAR uni0201
ENCODING 513
SWIDTH 470 0
DWIDTH 5 0
BBX 6 10 0 0
BITMAP
1100
7700
2700
1540
0000
1E00
7740
A300
AB60
7AC0
ENDCHAR
STARTCHAR uni0202
ENCODING 514
SWIDTH 786 0
DWIDTH 8 0
BBX 9 12 0 0
BITMAP
007E00
00D700
000000
01BF40
0B9500
1D0D00
381C00
742C00
703800
707840
39F9C0
1F5F40
ENDCHAR
STARTCHAR uni0203
ENCODING 515
SWIDTH 470 0
DWIDTH 5 0
BBX 6 8 0 0
BITMAP
0B40
29C0
1040
1E00
7740
A300
AB60
7AC0
ENDCHAR
STARTCHAR uni0204
ENCODING 516
SWIDTH 686 0
DWIDTH 7 0
BBX 8 13 0 0
BITMAP
0110
0760
0260
0000
06F4
1D6C
281C
2D08
0F80
7900
B000
7556
1FF9
ENDCHAR
STARTCHAR uni0205
ENCODING 517
SWIDTH 393 0
DWIDTH 4 0
BBX 5 10 0 0
BITMAP
4400
A900
7600
2200
0000
2E00
7600
A900
B5C0
2E40
ENDCHAR
STARTCHAR uni0206
ENCODING 518
SWIDTH 686 0
DWIDTH 7 0
BBX 8 12 0 0
BITMAP
01F4
035C
0000
06F4
1D6C
281C
2D08
0F80
7900
B000
7556
1FF9
ENDCHAR
STARTCHAR uni0207
ENCODING 519
SWIDTH 393 0
DWIDTH 4 0
BBX 5 8 0 0
BITMAP
1F40
3680
1040
2E00
7600
A900
B5C0
2E40
ENDCHAR
STARTCHAR uni0208
ENCODING 520
SWIDTH 495 0
DWIDTH 5 0
BBX 6 13 0 0
BITMAP
1500
1A40
0980
0000
2FD0
0B00
0A00
0E00
0D00
0D00
1C00
2C00
FF40
ENDCHAR
STARTCHAR uni0209
ENCODING 521
SWIDTH 246 0
DWIDTH 2 0
BBX 5 10 -1 0
BITMAP
4400
A900
7600
2200
0000
0C00
1C00
1840
1980
1E00
ENDCHAR
STARTCHAR uni020A
ENCODING 522
SWIDTH 495 0
DWIDTH 5 0
BBX 6 12 0 0
BITMAP
0B80
19A0
0000
2FD0
0B00
0A00
0E00
0D00
0D00
1C00
2C00
FF40
ENDCHAR
STARTCHAR uni020B
ENCODING 523
SWIDTH 246 0
DWIDTH 2 0
BBX 4 8 0 0
BITMAP
7D
DA
41
30
70
61
66
78
ENDCHAR
STARTCHAR uni020C
ENCODING 524
SWIDTH 816 0
DWIDTH 8 0
BBX 8 13 0 0
BITMAP
0110
0370
0260
0000
06F4
1E5D
280A
340B
700B
700A
740D
2D68
0BE0
ENDCHAR
STARTCHAR uni020D
ENCODING 525
SWIDTH 451 0
DWIDTH 5 0
BBX 6 10 0 0
BITMAP
4400
AD00
7600
2200
0000
2E00
7B40
A7E0
A740
2D00
ENDCHAR
STARTCHAR uni020E
ENCODING 526
SWIDTH 816 0
DWIDTH 8 0
BBX 8 12 0 0
BITMAP
01F4
035C
0000
06F4
1E5D
280A
340B
700B
700A
740D
2D68
0BE0
ENDCHAR
STARTCHAR uni020F
ENCODING 527
SWIDTH 451 0
DWIDTH 5 0
BBX 6 8 0 0
BITMAP
1F00
3680
1040
2E00
7B40
A7E0
A740
2D00
ENDCHAR
STARTCHAR uni0210
ENCODING 528
SWIDTH 880 0
DWIDTH 9 0
BBX 10 13 0 0
BITMAP
011000
027400
019400
000000
02F900
0E5B00
25C700
329E00
67F400
63B800
635C10
370E70
1E0790
ENDCHAR
STARTCHAR uni0211
ENCODING 529
SWIDTH 455 0
DWIDTH 5 0
BBX 6 10 0 0
BITMAP
1500
7A00
3700
1600
0000
3740
7B90
76E0
7000
6000
ENDCHAR
STARTCHAR uni0212
ENCODING 530
SWIDTH 880 0
DWIDTH 9 0
BBX 10 12 0 0
BITMAP
00B800
029D00
000000
02F900
0E5B00
25C700
329E00
67F400
63B800
635C10
370E70
1E0790
ENDCHAR
STARTCHAR uni0213
ENCODING 531
SWIDTH 455 0
DWIDTH 5 0
BBX 6 8 0 0
BITMAP
1F40
35C0
1080
3740
7B90
76E0
7000
6000
ENDCHAR
STARTCHAR uni0214
ENCODING 532
SWIDTH 890 0
DWIDTH 9 0
BBX 10 13 0 0
BITMAP
015000
02A400
009800
000000
2E0340
AB0740
8B0700
0A0B00
0D0B00
0D1E00
1C2A00
1EAB70
0B87D0
ENDCHAR
STARTCHAR uni0215
ENCODING 533
SWIDTH 462 0
DWIDTH 5 0
BBX 6 10 0 0
BITMAP
1500
7A00
3700
1640
0000
3240
7340
6710
7F60
7780
ENDCHAR
STARTCHAR uni0216
ENCODING 534
SWIDTH 890 0
DWIDTH 9 0
BBX 10 12 0 0
BITMAP
00B800
019A00
000000
2E0340
AB0740
8B0700
0A0B00
0D0B00
0D1E00
1C2A00
1EAB70
0B87D0
ENDCHAR
STARTCHAR uni0217
ENCODING 535
SWIDTH 462 0
DWIDTH 5 0
BBX 6 8 0 0
BITMAP
1F40
29C0
1040
3240
7340
6710
7F60
7780
ENDCHAR
STARTCHAR uni0218
ENCODING 536
SWIDTH 693 0
DWIDTH 7 0
BBX 7 12 0 -3
BITMAP
0BE0
2968
381C
2D04
0BD0
01B4
A038
B474
2F90
0000
0600
0500
ENDCHAR
STARTCHAR uni0219
ENCODING 537
SWIDTH 427 0
DWIDTH 4 0
BBX 6 8 0 -3
BITMAP
0C00
2C00
6E10
9B90
6F80
1800
1800
1400
ENDCHAR
STARTCHAR uni021A
ENCODING 538
SWIDTH 697 0
DWIDTH 7 0
BBX 9 12 0 -3
BITMAP
1BFF80
75E000
A0D000
51C000
01C000
028000
028000
038000
034000
000000
030000
020000
ENDCHAR
STARTCHAR uni021B
ENCODING 539
SWIDTH 393 0
DWIDTH 4 0
BBX 5 12 0 -3
BITMAP
0700
1E40
2A00
3A00
FF40
7400
3000
39C0
1F40
0800
1800
1400
ENDCHAR
STARTCHAR uni022A
ENCODING 554
SWIDTH 816 0
DWIDTH 8 0
BBX 8 13 0 0
BITMAP
01F8
0000
02A8
0000
06F4
1E5D
280A
340B
700B
700A
740D
2D68
0BE0
ENDCHAR
STARTCHAR uni022B
ENCODING 555
SWIDTH 451 0
DWIDTH 5 0
BBX 6 9 0 0
BITMAP
2F40
0000
3640
0000
2E00
7B40
A7E0
A740
2D00
ENDCHAR
STARTCHAR uni022C
ENCODING 556
SWIDTH 816 0
DWIDTH 8 0
BBX 8 13 0 0
BITMAP
01F8
02DC
0378
0000
06F4
1E5D
280A
340B
700B
700A
740D
2D68
0BE0
ENDCHAR
STARTCHAR uni022D
ENCODING 557
SWIDTH 451 0
DWIDTH 5 0
BBX 6 10 0 0
BITMAP
2F40
0000
2980
6740
0000
2E00
7B40
A7E0
A740
2D00
ENDCHAR
STARTCHAR uni0230
ENCODING 560
SWIDTH 816 0
DWIDTH 8 0
BBX 8 13 0 0
BITMAP
01F8
0000
00A0
0000
06F4
1E5D
280A
340B
700B
700A
740D
2D68
0BE0
ENDCHAR
STARTCHAR uni0231
ENCODING 561
SWIDTH 451 0
DWIDTH 5 0
BBX 6 9 0 0
BITMAP
2F40
0000
0D00
0000
2E00
7B40
A7E0
A740
2D00
ENDCHAR
STARTCHAR uni0232
ENCODING 562
SWIDTH 851 0
DWIDTH 9 0
BBX 10 14 0 -3
BITMAP
00FC00
000000
2E0340
AB0340
4B0740
0A0B00
0E0B00
0D1E00
0D2A00
0BDF90
01AE00
031C00
0A2800
07E000
ENDCHAR
STARTCHAR uni0233
ENCODING 563
SWIDTH 479 0
DWIDTH 5 0
BBX 6 12 0 -5
BITMAP
2F40
0000
3240
7340
6710
7FA0
7B80
1E00
2900
9C00
D800
B400
ENDCHAR
STARTCHAR uni0237
ENCODING 567
SWIDTH 254 0
DWIDTH 3 0
BBX 7 10 -3 -5
BITMAP
00C0
01C0
01C0
01A4
02D0
0740
1B40
2700
6A00
3800
ENDCHAR
STARTCHAR uni0259
ENCODING 601
SWIDTH 458 0
DWIDTH 5 0
BBX 5 5 0 0
BITMAP
7E00
1740
7F40
A700
2D00
ENDCHAR
STARTCHAR uni02BC
ENCODING 700
SWIDTH 600 0
DWIDTH 6 0
BBX 2 3 2 6
BITMAP
20
60
50
ENDCHAR
STARTCHAR circumflex
ENCODING 710
SWIDTH 600 0
DWIDTH 6 0
BBX 4 4 1 6
BITMAP
04
2D
7A
96
ENDCHAR
STARTCHAR caron
ENCODING 711
SWIDTH 600 0
DWIDTH 6 0
BBX 3 4 2 6
BITMAP
44
DC
E4
A0
ENDCHAR
STARTCHAR uni02C9
ENCODING 713
SWIDTH 600 0
DWIDTH 6 0
BBX 4 1 1 6
BITMAP
7E
ENDCHAR
STARTCHAR breve
ENCODING 728
SWIDTH 600 0
DWIDTH 6 0
BBX 4 3 1 6
BITMAP
41
93
7E
ENDCHAR
STARTCHAR dotaccent
ENCODING 729
SWIDTH 600 0
DWIDTH 6 0
BBX 2 1 2 6
BITMAP
A0
ENDCHAR
STARTCHAR ring
ENCODING 730
SWIDTH 600 0
DWIDTH 6 0
BBX 3 3 2 6
BITMAP
B4
E4
F4
ENDCHAR
STARTCHAR ogonek
ENCODING 731
SWIDTH 600 0
DWIDTH 6 0
BBX 3 3 1 -3
BITMAP
60
90
7C
ENDCHAR
STARTCHAR tilde
ENCODING 732
SWIDTH 600 0
DWIDTH 6 0
BBX 5 2 1 6
BITMAP
7640
9A00
ENDCHAR
STARTCHAR hungarumlaut
ENCODING 733
SWIDTH 600 0
DWIDTH 6 0
BBX 4 4 2 6
BITMAP
54
AD
DC
94
ENDCHAR
STARTCHAR gravecomb
ENCODING 768
SWIDTH 0 0
DWIDTH 0 0
BBX 3 4 -5 6
BITMAP
40
A0
70
14
ENDCHAR
STARTCHAR acutecomb
ENCODING 769
SWIDTH 0 0
DWIDTH 0 0
BBX 3 4 -4 6
BITMAP
04
28
34
60
ENDCHAR
STARTCHAR uni0302
ENCODING 770
SWIDTH 0 0
DWIDTH 0 0
BBX 4 4 -5 6
BITMAP
04
2D
7A
96
ENDCHAR
STARTCHAR tildecomb
ENCODING 771
SWIDTH 0 0
DWIDTH 0 0
BBX 5 2 -5 6
BITMAP
7640
9A00
ENDCHAR
STARTCHAR uni0304
ENCODING 772
SWIDTH 0 0
DWIDTH 0 0
BBX 4 1 -5 6
BITMAP
7E
ENDCHAR
STARTCHAR uni0306
ENCODING 774
SWIDTH 0 0
DWIDTH 0 0
BBX 4 3 -5 6
BITMAP
41
93
7E
ENDCHAR
STARTCHAR uni0307
ENCODING 775
SWIDTH 0 0
DWIDTH 0 0
BBX 2 1 -4 6
BITMAP
A0
ENDCHAR
STARTCHAR uni0308
ENCODING 776
SWIDTH 0 0
DWIDTH 0 0
BBX 4 1 -5 6
BITMAP
66
ENDCHAR
STARTCHAR hookabovecomb
ENCODING 777
SWIDTH 0 0
DWIDTH 0 0
BBX 3 3 -4 6
BITMAP
B4
24
74
ENDCHAR
STARTCHAR uni030A
ENCODING 778
SWIDTH 0 0
DWIDTH 0 0
BBX 3 3 -4 6
BITMAP
B4
E4
F4
ENDCHAR
STARTCHAR uni030B
ENCODING 779
SWIDTH 0 0
DWIDTH 0 0
BBX 4 4 -4 6
BITMAP
54
AD
DC
94
ENDCHAR
STARTCHAR uni030C
ENCODING 780
SWIDTH 0 0
DWIDTH 0 0
BBX 3 4 -4 6
BITMAP
44
DC
E4
A0
ENDCHAR
STARTCHAR uni030F
ENCODING 783
SWIDTH 0 0
DWIDTH 0 0
BBX 5 4 -6 6
BITMAP
1100
7A00
3700
1640
ENDCHAR
STARTCHAR uni0311
ENCODING 785
SWIDTH 0 0
DWIDTH 0 0
BBX 4 3 -5 5
BITMAP
2D
A7
41
ENDCHAR
STARTCHAR uni0312
ENCODING 786
SWIDTH 0 0
DWIDTH 0 0
BBX 2 3 -4 6
BITMAP
20
60
50
ENDCHAR
STARTCHAR uni031B
ENCODING 795
SWIDTH 0 0
DWIDTH 0 0
BBX 2 2 -3 4
BITMAP
A0
D0
ENDCHAR
STARTCHAR dotbelowcomb
ENCODING 803
SWIDTH 0 0
DWIDTH 0 0
BBX 2 1 -5 -2
BITMAP
B0
ENDCHAR
STARTCHAR uni0324
ENCODING 804
SWIDTH 0 0
DWIDTH 0 0
BBX 4 1 -6 -2
BITMAP
66
ENDCHAR
STARTCHAR uni0326
ENCODING 806
SWIDTH 0 0
DWIDTH 0 0
BBX 2 3 -5 -3
BITMAP
60
60
50
ENDCHAR
STARTCHAR uni0327
ENCODING 807
SWIDTH 0 0
DWIDTH 0 0
BBX 4 3 -6 -3
BITMAP
2C
09
7C
ENDCHAR
STARTCHAR uni0328
ENCODING 808
SWIDTH 0 0
DWIDTH 0 0
BBX 3 3 -5 -3
BITMAP
60
90
7C
ENDCHAR
STARTCHAR uni032E
ENCODING 814
SWIDTH 0 0
DWIDTH 0 0
BBX 4 3 -6 -3
BITMAP
41
D7
7E
ENDCHAR
STARTCHAR uni0331
ENCODING 817
SWIDTH 0 0
DWIDTH 0 0
BBX 4 1 -6 -2
BITMAP
7E
ENDCHAR
STARTCHAR uni0394
ENCODING 916
SWIDTH 700 0
DWIDTH 7 0
BBX 7 9 0 0
BITMAP
0180
02C0
07D0
0A90
0CA0
2860
3470
7470
BFF4
ENDCHAR
STARTCHAR uni03A9
ENCODING 937
SWIDTH 816 0
DWIDTH 8 0
BBX 8 9 0 0
BITMAP
06F4
1E6D
280A
340B
700B
700A
741D
383C
FD7F
ENDCHAR
STARTCHAR uni03BC
ENCODING 956
SWIDTH 462 0
DWIDTH 5 0
BBX 6 8 0 -3
BITMAP
1100
7340
6700
BB60
B790
A000
9000
9000
ENDCHAR
STARTCHAR pi
ENCODING 960
SWIDTH 496 0
DWIDTH 5 0
BBX 6 5 0 0
BITMAP
BFD0
7240
7340
A360
A2D0
ENDCHAR
STARTCHAR uni0400
ENCODING 1024
SWIDTH 686 0
DWIDTH 7 0
BBX 8 13 0 0
BITMAP
0400
0B00
0180
0000
06F4
1D6C
281C
2D08
0F80
7900
B000
7556
1FF9
ENDCHAR
STARTCHAR uni0401
ENCODING 1025
SWIDTH 686 0
DWIDTH 7 0
BBX 8 11 0 0
BITMAP
0264
0000
06F4
1D6C
281C
2D08
0F80
7900
B000
7556
1FF9
ENDCHAR
STARTCHAR uni0402
ENCODING 1026
SWIDTH 974 0
DWIDTH 10 0
BBX 11 14 0 -5
BITMAP
1BFF80
74E000
A0D000
61C000
01DF80
02E6C0
0281C4
0381F8
0342D0
000B80
002F40
003700
006A00
003800
ENDCHAR
STARTCHAR uni0403
ENCODING 1027
SWIDTH 635 0
DWIDTH 6 0
BBX 9 13 0 0
BITMAP
000400
007800
00D000
000000
1BFF40
778000
A34000
574000
070000
0B0000
0A0000
0A0000
090000
ENDCHAR
STARTCHAR uni0404
ENCODING 1028
SWIDTH 687 0
DWIDTH 7 0
BBX 8 9 0 0
BITMAP
06F4
1E2C
281C
3400
7FD0
7400
3400
2D16
0BF9
ENDCHAR
STARTCHAR uni0405
ENCODING 1029
SWIDTH 693 0
DWIDTH 7 0
BBX 7 9 0 0
BITMAP
0BE0
2968
381C
2D04
0BD0
01B4
A038
B474
2F90
ENDCHAR
STARTCHAR uni0406
ENCODING 1030
SWIDTH 495 0
DWIDTH 5 0
BBX 6 9 0 0
BITMAP
2FD0
0B00
0A00
0E00
0D00
0D00
1C00
2C00
FF40
ENDCHAR
STARTCHAR uni0407
ENCODING 1031
SWIDTH 495 0
DWIDTH 5 0
BBX 6 11 0 0
BITMAP
0DD0
0000
2FD0
0B00
0A00
0E00
0D00
0D00
1C00
2C00
FF40
ENDCHAR
STARTCHAR uni0408
ENCODING 1032
SWIDTH 743 0
DWIDTH 7 0
BBX 8 10 0 -1
BITMAP
1BF9
391D
701C
202C
0078
02F8
0E34
1C70
2CD0
1F80
ENDCHAR
STARTCHAR uni0409
ENCODING 1033
SWIDTH 1158 0
DWIDTH 12 0
BBX 12 9 0 0
BITMAP
001C00
002C00
003C00
007EF8
00AD6D
01DC0D
429C0D
970E6C
7D07E0
ENDCHAR
STARTCHAR uni040A
ENCODING 1034
SWIDTH 1182 0
DWIDTH 12 0
BBX 12 9 0 0
BITMAP
2E0600
9B0A00
470D00
0A0EF8
3FFD1E
0D1C0A
1D1C0E
1C0D6C
1807E4
ENDCHAR
STARTCHAR uni040B
ENCODING 1035
SWIDTH 979 0
DWIDTH 10 0
BBX 11 9 0 0
BITMAP
1BFF80
74E000
A0D000
61C000
01DF80
02E6C0
02C1C0
0381D8
0341E0
ENDCHAR
STARTCHAR uni040C
ENCODING 1036
SWIDTH 937 0
DWIDTH 9 0
BBX 11 13 0 0
BITMAP
000040
0002C0
000A00
000000
1BE0A0
35E1D0
70D280
21DB00
03F800
02EC00
428E04
A74B64
2E02E0
ENDCHAR
STARTCHAR uni040D
ENCODING 1037
SWIDTH 890 0
DWIDTH 9 0
BBX 10 13 0 0
BITMAP
010000
078000
009000
000000
2E0340
AB0740
8B0700
0A0B00
0D0B00
0D1E00
1C2A00
1EAB70
0B87D0
ENDCHAR
STARTCHAR uni040E
ENCODING 1038
SWIDTH 824 0
DWIDTH 8 0
BBX 10 13 0 -2
BITMAP
018900
00B800
2E0340
9B0740
0A0B00
0E0F00
0E2E00
0BDA40
001FD0
01ED00
071C00
0A2800
07E000
ENDCHAR
STARTCHAR uni040F
ENCODING 1039
SWIDTH 890 0
DWIDTH 9 0
BBX 10 11 0 -2
BITMAP
2E0340
AB0740
8B0700
0A0B00
0D0B00
0D1E00
1C2E00
1EAB70
0B87D0
070000
060000
ENDCHAR
STARTCHAR uni0410
ENCODING 1040
SWIDTH 786 0
DWIDTH 8 0
BBX 9 9 0 0
BITMAP
01BF40
0B9500
1D0D00
381C00
742C00
703800
707840
39F9C0
1F5F40
ENDCHAR
STARTCHAR uni0411
ENCODING 1041
SWIDTH 917 0
DWIDTH 9 0
BBX 9 10 0 -1
BITMAP
1BFF40
76C000
A28000
638000
07FE40
0B5780
0702C0
070280
0B1F00
052400
ENDCHAR
STARTCHAR uni0412
ENCODING 1042
SWIDTH 827 0
DWIDTH 8 0
BBX 9 10 0 -1
BITMAP
1BFD00
B95B40
490380
0D0B40
1CB900
1C1D00
280E00
296D00
3FE400
100000
ENDCHAR
STARTCHAR uni0413
ENCODING 1043
SWIDTH 635 0
DWIDTH 6 0
BBX 9 9 0 0
BITMAP
1BFF40
778000
A34000
574000
070000
0B0000
0A0000
0A0000
090000
ENDCHAR
STARTCHAR uni0414
ENCODING 1044
SWIDTH 964 0
DWIDTH 10 0
BBX 10 9 0 0
BITMAP
06FE00
1D4780
0181D0
0280D0
0340D0
0701D0
7F02C0
AF9740
78BD00
ENDCHAR
STARTCHAR uni0415
ENCODING 1045
SWIDTH 686 0
DWIDTH 7 0
BBX 8 9 0 0
BITMAP
06F4
1D6C
281C
2D08
0F80
7900
B000
7556
1FF9
ENDCHAR
STARTCHAR uni0416
ENCODING 1046
SWIDTH 1234 0
DWIDTH 12 0
BBX 13 9 0 0
BITMAP
0B470B80
16C71D80
00D72800
00AAB000
007FC000
01DEE000
038D7000
AB1C3980
7D1C1F40
ENDCHAR
STARTCHAR uni0417
ENCODING 1047
SWIDTH 725 0
DWIDTH 7 0
BBX 7 9 0 0
BITMAP
0BE0
1D74
2834
0070
07F4
102C
7028
74B4
1F90
ENDCHAR
STARTCHAR uni0418
ENCODING 1048
SWIDTH 890 0
DWIDTH 9 0
BBX 10 9 0 0
BITMAP
2E0340
AB0740
8B0700
0A0B00
0D0B00
0D1E00
1C2A00
1EAB70
0B87D0
ENDCHAR
STARTCHAR uni0419
ENCODING 1049
SWIDTH 890 0
DWIDTH 9 0
BBX 10 11 0 0
BITMAP
018900
00B800
2E0340
AB0740
8B0700
0A0B00
0D0B00
0D1E00
1C2A00
1EAB70
0B87D0
ENDCHAR
STARTCHAR uni041A
ENCODING 1050
SWIDTH 937 0
DWIDTH 9 0
BBX 11 9 0 0
BITMAP
1BE0A0
35E1D0
70D280
21DB00
03F800
02EC00
428E04
A74B64
2E02E0
ENDCHAR
STARTCHAR uni041B
ENCODING 1051
SWIDTH 861 0
DWIDTH 9 0
BBX 10 9 0 0
BITMAP
001C00
002C00
003C00
007C00
00AC00
01DC00
429C10
D74E60
7D0780
ENDCHAR
STARTCHAR uni041C
ENCODING 1052
SWIDTH 1133 0
DWIDTH 11 0
BBX 13 9 0 0
BITMAP
00707000
00B0F000
00F1F000
01F2B000
01B7B000
027A7000
437D7040
AA2C7640
79182E00
ENDCHAR
STARTCHAR uni041D
ENCODING 1053
SWIDTH 873 0
DWIDTH 9 0
BBX 10 10 0 0
BITMAP
0002D0
2E0790
DB0A50
470D80
0A1F80
3FFD00
0D1C00
1D1C10
1C0D60
180780
ENDCHAR
STARTCHAR uni041E
ENCODING 1054
SWIDTH 816 0
DWIDTH 8 0
BBX 8 9 0 0
BITMAP
06F4
1E5D
280A
340B
700B
700A
740D
2D68
0BE0
ENDCHAR
STARTCHAR uni041F
ENCODING 1055
SWIDTH 892 0
DWIDTH 9 0
BBX 10 9 0 0
BITMAP
1BFFE0
768390
A34340
634700
070B00
070A00
0B0A00
0A0A60
0A07D0
ENDCHAR
STARTCHAR uni0420
ENCODING 1056
SWIDTH 805 0
DWIDTH 8 0
BBX 9 11 0 -2
BITMAP
02F900
0A5B00
29C740
31C700
629E00
6BF400
A34000
634000
770000
2E0000
040000
ENDCHAR
STARTCHAR uni0421
ENCODING 1057
SWIDTH 686 0
DWIDTH 7 0
BBX 8 9 0 0
BITMAP
06F4
1E6C
281C
3414
7000
7000
3400
2D56
0BF9
ENDCHAR
STARTCHAR uni0422
ENCODING 1058
SWIDTH 697 0
DWIDTH 7 0
BBX 9 9 0 0
BITMAP
1BFF80
75E000
A0D000
51C000
01C000
028000
028000
038000
034000
ENDCHAR
STARTCHAR uni0423
ENCODING 1059
SWIDTH 824 0
DWIDTH 8 0
BBX 10 11 0 -2
BITMAP
2E0340
9B0740
0A0B00
0E0F00
0E2E00
0BDA40
001FD0
01ED00
071C00
0A2800
07E000
ENDCHAR
STARTCHAR uni0424
ENCODING 1060
SWIDTH 977 0
DWIDTH 10 0
BBX 10 13 0 -2
BITMAP
180000
0FF800
003400
0BB780
29B9D0
3474E0
70A0E0
70E0D0
72E2C0
3DFF40
00C000
268000
1F4000
ENDCHAR
STARTCHAR uni0425
ENCODING 1061
SWIDTH 712 0
DWIDTH 7 0
BBX 9 9 0 0
BITMAP
2D0A00
9B2C00
03B400
02D000
03C000
0BD000
2CD000
74A640
D03D00
ENDCHAR
STARTCHAR uni0426
ENCODING 1062
SWIDTH 890 0
DWIDTH 9 0
BBX 10 12 0 -3
BITMAP
2E0340
9B0340
4B0700
0A0B00
0E0B00
0D0E00
1C2E00
1D6A60
0B87D0
001F40
003700
003E00
ENDCHAR
STARTCHAR uni0427
ENCODING 1063
SWIDTH 773 0
DWIDTH 8 0
BBX 7 9 1 0
BITMAP
7024
7034
B074
A0B0
E1F0
7FB0
04A0
00A0
0090
ENDCHAR
STARTCHAR uni0428
ENCODING 1064
SWIDTH 1272 0
DWIDTH 13 0
BBX 14 9 0 0
BITMAP
2E030300
AB070700
8B0B0B00
0A0A0B00
0D0D0E00
0D1D1E00
1C2C2D10
1E9E9E70
0B8B8790
ENDCHAR
STARTCHAR uni0429
ENCODING 1065
SWIDTH 1272 0
DWIDTH 13 0
BBX 14 12 0 -3
BITMAP
2E030300
AB070700
8B0B0B00
0A0A0A00
0D0D0E00
0D1D1E00
1C2C2D00
1E9E9BA0
0B8B8790
00002F40
00007700
00007D00
ENDCHAR
STARTCHAR uni042A
ENCODING 1066
SWIDTH 863 0
DWIDTH 9 0
BBX 8 9 1 0
BITMAP
BF40
0B00
0D00
1FF8
7D1D
2C0D
1C0D
1D68
07E0
ENDCHAR
STARTCHAR uni042B
ENCODING 1067
SWIDTH 1078 0
DWIDTH 11 0
BBX 11 9 0 0
BITMAP
0D0024
1C0034
1C0074
2FE470
B96C70
341CA0
342CA0
2874E0
0BD0D0
ENDCHAR
STARTCHAR uni042C
ENCODING 1068
SWIDTH 721 0
DWIDTH 7 0
BBX 7 9 0 0
BITMAP
0D00
1C00
1C00
2FE4
B96C
341C
342C
2874
0BD0
ENDCHAR
STARTCHAR uni042D
ENCODING 1069
SWIDTH 755 0
DWIDTH 8 0
BBX 8 9 0 0
BITMAP
0BE0
3978
101D
000D
0BFD
001C
6028
75B4
2F90
ENDCHAR
STARTCHAR uni042E
ENCODING 1070
SWIDTH 1246 0
DWIDTH 12 0
BBX 13 9 0 0
BITMAP
2E067800
DB0E5E00
472F0700
0A7D0740
3FB40740
1D340700
1D380E00
1C1D6C00
180BE000
ENDCHAR
STARTCHAR uni042F
ENCODING 1071
SWIDTH 850 0
DWIDTH 9 0
BBX 10 9 0 0
BITMAP
02FA00
0E1B00
0D0E00
0E1E00
07FD00
007D00
40DD10
D74D60
7D0B80
ENDCHAR
STARTCHAR uni0430
ENCODING 1072
SWIDTH 470 0
DWIDTH 5 0
BBX 6 5 0 0
BITMAP
1E00
7740
A300
AB60
7AC0
ENDCHAR
STARTCHAR uni0431
ENCODING 1073
SWIDTH 473 0
DWIDTH 5 0
BBX 6 10 0 0
BITMAP
0680
2E40
2400
1D00
0600
2F40
7740
A3F0
A740
3D00
ENDCHAR
STARTCHAR uni0432
ENCODING 1074
SWIDTH 473 0
DWIDTH 5 0
BBX 6 10 0 0
BITMAP
0B00
1A40
2640
3700
7900
7E00
7740
63F0
7740
2E00
ENDCHAR
STARTCHAR uni0433
ENCODING 1075
SWIDTH 380 0
DWIDTH 4 0
BBX 5 5 0 0
BITMAP
7D00
1A00
2800
A1C0
7E40
ENDCHAR
STARTCHAR uni0434
ENCODING 1076
SWIDTH 479 0
DWIDTH 5 0
BBX 6 10 0 -5
BITMAP
1E00
7740
A310
ABA0
7F80
1E00
2900
9C00
D800
B400
ENDCHAR
STARTCHAR uni0435
ENCODING 1077
SWIDTH 393 0
DWIDTH 4 0
BBX 5 5 0 0
BITMAP
2E00
7600
A900
B5C0
2E40
ENDCHAR
STARTCHAR uni0436
ENCODING 1078
SWIDTH 717 0
DWIDTH 7 0
BBX 9 5 0 0
BITMAP
39AD00
2BA900
4BE000
AEE640
B66D00
ENDCHAR
STARTCHAR uni0437
ENCODING 1079
SWIDTH 435 0
DWIDTH 4 0
BBX 7 10 -1 -5
BITMAP
0B80
05C0
0280
1D24
0AD0
0B40
2B00
3700
6A00
7800
ENDCHAR
STARTCHAR uni0438
ENCODING 1080
SWIDTH 462 0
DWIDTH 5 0
BBX 6 5 0 0
BITMAP
3240
7340
6710
7F60
7780
ENDCHAR
STARTCHAR uni0439
ENCODING 1081
SWIDTH 462 0
DWIDTH 5 0
BBX 6 9 0 0
BITMAP
0040
2180
2F40
0000
3240
7340
6710
7F60
7780
ENDCHAR
STARTCHAR uni043A
ENCODING 1082
SWIDTH 465 0
DWIDTH 5 0
BBX 6 5 0 0
BITMAP
3780
7DC0
7C50
7D60
6780
ENDCHAR
STARTCHAR uni043B
ENCODING 1083
SWIDTH 549 0
DWIDTH 5 0
BBX 7 5 0 0
BITMAP
0340
0780
4B84
EEA4
B5E0
ENDCHAR
STARTCHAR uni043C
ENCODING 1084
SWIDTH 734 0
DWIDTH 7 0
BBX 9 5 0 0
BITMAP
072800
0B7800
5EA840
EAD940
B59E00
ENDCHAR
STARTCHAR uni043D
ENCODING 1085
SWIDTH 475 0
DWIDTH 5 0
BBX 6 5 0 0
BITMAP
3240
7240
7F00
6760
63D0
ENDCHAR
STARTCHAR uni043E
ENCODING 1086
SWIDTH 451 0
DWIDTH 5 0
BBX 6 5 0 0
BITMAP
2E00
7B40
A7E0
A740
2D00
ENDCHAR
STARTCHAR uni043F
ENCODING 1087
SWIDTH 496 0
DWIDTH 5 0
BBX 6 5 0 0
BITMAP
3640
7B80
7B40
7370
62D0
ENDCHAR
STARTCHAR uni0440
ENCODING 1088
SWIDTH 481 0
DWIDTH 5 0
BBX 7 10 -1 -5
BITMAP
1AC0
1DD0
1CD4
2EDC
7FF4
A800
E800
A400
A400
E000
ENDCHAR
STARTCHAR uni0441
ENCODING 1089
SWIDTH 368 0
DWIDTH 4 0
BBX 5 5 0 0
BITMAP
2D00
7600
A040
A580
2E00
ENDCHAR
STARTCHAR uni0442
ENCODING 1090
SWIDTH 744 0
DWIDTH 7 0
BBX 9 5 0 0
BITMAP
376C00
7BBC00
77D840
73AA80
625E00
ENDCHAR
STARTCHAR uni0443
ENCODING 1091
SWIDTH 479 0
DWIDTH 5 0
BBX 6 10 0 -5
BITMAP
3240
7340
6710
7FA0
7B80
1E00
2900
9C00
D800
B400
ENDCHAR
STARTCHAR uni0444
ENCODING 1092
SWIDTH 721 0
DWIDTH 7 0
BBX 9 13 0 -4
BITMAP
004000
01C000
018000
024000
1FB400
77A800
A36800
AB7640
7BED00
070000
070000
070000
010000
ENDCHAR
STARTCHAR uni0445
ENCODING 1093
SWIDTH 529 0
DWIDTH 5 0
BBX 7 5 0 0
BITMAP
39D0
2B90
4A04
AF24
BAE0
ENDCHAR
STARTCHAR uni0446
ENCODING 1094
SWIDTH 501 0
DWIDTH 5 0
BBX 6 8 0 -3
BITMAP
3240
7300
6700
7F60
77D0
0B40
2700
2D00
ENDCHAR
STARTCHAR uni0447
ENCODING 1095
SWIDTH 555 0
DWIDTH 6 0
BBX 7 6 0 0
BITMAP
0D00
1BE0
26C0
7704
DA68
07E0
ENDCHAR
STARTCHAR uni0448
ENCODING 1096
SWIDTH 693 0
DWIDTH 7 0
BBX 8 5 0 0
BITMAP
3258
7368
6734
7FB7
77AD
ENDCHAR
STARTCHAR uni0449
ENCODING 1097
SWIDTH 732 0
DWIDTH 7 0
BBX 9 8 0 -3
BITMAP
325800
736400
673400
7FB640
77AE00
007800
01A400
01E000
ENDCHAR
STARTCHAR uni044A
ENCODING 1098
SWIDTH 542 0
DWIDTH 5 0
BBX 7 5 0 0
BITMAP
7C00
3F40
7684
36A4
2FE0
ENDCHAR
STARTCHAR uni044B
ENCODING 1099
SWIDTH 702 0
DWIDTH 7 0
BBX 8 5 0 0
BITMAP
3028
7B78
76F5
77B7
2E2D
ENDCHAR
STARTCHAR uni044C
ENCODING 1100
SWIDTH 517 0
DWIDTH 5 0
BBX 7 5 0 0
BITMAP
3000
7B40
7684
77A4
2FD0
ENDCHAR
STARTCHAR uni044D
ENCODING 1101
SWIDTH 466 0
DWIDTH 5 0
BBX 6 5 0 0
BITMAP
2E00
1740
1FF0
A740
7E00
ENDCHAR
STARTCHAR uni044E
ENCODING 1102
SWIDTH 676 0
DWIDTH 7 0
BBX 8 5 0 0
BITMAP
31E0
7374
7F3F
6764
62E0
ENDCHAR
STARTCHAR uni044F
ENCODING 1103
SWIDTH 543 0
DWIDTH 5 0
BBX 7 5 0 0
BITMAP
0FC0
19C0
9F88
DAA4
B8E0
ENDCHAR
STARTCHAR uni0450
ENCODING 1104
SWIDTH 393 0
DWIDTH 4 0
BBX 5 10 0 0
BITMAP
1000
3400
2800
0800
0000
2E00
7600
A900
B5C0
2E40
ENDCHAR
STARTCHAR uni0451
ENCODING 1105
SWIDTH 393 0
DWIDTH 4 0
BBX 5 7 0 0
BITMAP
2640
0000
2E00
7600
A900
B5C0
2E40
ENDCHAR
STARTCHAR uni0452
ENCODING 1106
SWIDTH 514 0
DWIDTH 5 0
BBX 6 14 0 -5
BITMAP
1C00
2800
7F40
3400
3680
7B80
7A50
73B0
6380
0B00
2A00
6900
9C00
7400
ENDCHAR
STARTCHAR uni0453
ENCODING 1107
SWIDTH 380 0
DWIDTH 4 0
BBX 5 10 0 0
BITMAP
0100
0700
0900
0800
0000
7D00
1A00
2800
A1C0
7E40
ENDCHAR
STARTCHAR uni0454
ENCODING 1108
SWIDTH 379 0
DWIDTH 4 0
BBX 5 5 0 0
BITMAP
2E00
7600
BC00
B5C0
2E40
ENDCHAR
STARTCHAR uni0455
ENCODING 1109
SWIDTH 427 0
DWIDTH 4 0
BBX 6 5 0 0
BITMAP
0C00
2C00
6E10
9B90
6F80
ENDCHAR
STARTCHAR uni0456
ENCODING 1110
SWIDTH 246 0
DWIDTH 2 0
BBX 4 7 0 0
BITMAP
38
00
30
70
61
66
78
ENDCHAR
STARTCHAR uni0457
ENCODING 1111
SWIDTH 246 0
DWIDTH 2 0
BBX 4 7 0 0
BITMAP
99
00
30
70
61
66
78
ENDCHAR
STARTCHAR uni0458
ENCODING 1112
SWIDTH 254 0
DWIDTH 3 0
BBX 7 12 -3 -5
BITMAP
00D0
0000
00C0
01C0
01C0
01A4
02D0
0740
1B40
2700
6A00
3800
ENDCHAR
STARTCHAR uni0459
ENCODING 1113
SWIDTH 794 0
DWIDTH 8 0
BBX 9 5 0 0
BITMAP
034000
07AC00
8ADD40
E99DC0
B4FF40
ENDCHAR
STARTCHAR uni045A
ENCODING 1114
SWIDTH 751 0
DWIDTH 8 0
BBX 9 5 0 0
BITMAP
324000
73B400
7FAC40
636980
61FE00
ENDCHAR
STARTCHAR uni045B
ENCODING 1115
SWIDTH 502 0
DWIDTH 5 0
BBX 7 9 0 0
BITMAP
1C00
2800
7F40
3400
3680
7B80
7A40
7364
62D0
ENDCHAR
STARTCHAR uni045C
ENCODING 1116
SWIDTH 465 0
DWIDTH 5 0
BBX 6 10 0 0
BITMAP
0040
0280
0300
0500
0000
3780
7DC0
7C50
7D60
6780
ENDCHAR
STARTCHAR uni045D
ENCODING 1117
SWIDTH 462 0
DWIDTH 5 0
BBX 6 10 0 0
BITMAP
1000
2800
1C00
0900
0000
3240
7340
6710
7F60
7780
ENDCHAR
STARTCHAR uni045E
ENCODING 1118
SWIDTH 479 0
DWIDTH 5 0
BBX 6 14 0 -5
BITMAP
0040
2180
2F40
0000
3240
7340
6710
7FA0
7B80
1E00
2900
9C00
D800
B400
ENDCHAR
STARTCHAR uni045F
ENCODING 1119
SWIDTH 600 0
DWIDTH 6 0
BBX 6 6 0 -1
BITMAP
3240
7340
6710
7F60
7780
2000
ENDCHAR
STARTCHAR uni0462
ENCODING 1122
SWIDTH 721 0
DWIDTH 7 0
BBX 7 9 0 0
BITMAP
0D00
7F40
2C00
2FE4
B96C
341C
342C
2874
0BD0
ENDCHAR
STARTCHAR uni0463
ENCODING 1123
SWIDTH 517 0
DWIDTH 5 0
BBX 7 7 0 0
BITMAP
2400
3400
BD00
7B40
7684
77A4
2FD0
ENDCHAR
STARTCHAR uni046A
ENCODING 1130
SWIDTH 1234 0
DWIDTH 12 0
BBX 13 9 0 0
BITMAP
0FFFFF40
01D01D00
00D02800
00A0B000
007FC000
01DEE000
038D7000
AB1C3980
7D1C1F40
ENDCHAR
STARTCHAR uni046B
ENCODING 1131
SWIDTH 788 0
DWIDTH 8 0
BBX 9 9 0 0
BITMAP
003400
007400
00B400
00E400
0BAA00
036800
037400
9BF9C0
B9CB40
ENDCHAR
STARTCHAR uni0472
ENCODING 1138
SWIDTH 816 0
DWIDTH 8 0
BBX 8 9 0 0
BITMAP
06F4
1E5D
280A
340B
7FFF
740A
740D
2978
0BE0
ENDCHAR
STARTCHAR uni0473
ENCODING 1139
SWIDTH 451 0
DWIDTH 5 0
BBX 6 5 0 0
BITMAP
2E00
7750
BFE0
B700
2D00
ENDCHAR
STARTCHAR uni0474
ENCODING 1140
SWIDTH 797 0
DWIDTH 8 0
BBX 9 9 1 0
BITMAP
601F80
B02D40
A02800
A03400
A07000
A0A000
B1D000
7B8000
2E0000
ENDCHAR
STARTCHAR uni0475
ENCODING 1141
SWIDTH 420 0
DWIDTH 4 0
BBX 6 5 0 0
BITMAP
62D0
6340
6A00
7D00
3400
ENDCHAR
STARTCHAR uni048A
ENCODING 1162
SWIDTH 890 0
DWIDTH 9 0
BBX 10 15 0 -2
BITMAP
000100
018900
00F800
000000
2E0340
AB0740
8B0700
0A0B00
0D0B00
0D1E00
1C2A00
1EAB70
0B87D0
000340
000600
ENDCHAR
STARTCHAR uni048B
ENCODING 1163
SWIDTH 462 0
DWIDTH 5 0
BBX 6 10 0 -2
BITMAP
2580
2F00
0000
3240
7340
6710
7F60
77C0
0340
0600
ENDCHAR
STARTCHAR uni048C
ENCODING 1164
SWIDTH 721 0
DWIDTH 7 0
BBX 7 9 0 0
BITMAP
0D00
7F40
2C00
2FE4
B96C
341C
342C
2874
0BD0
ENDCHAR
STARTCHAR uni048D
ENCODING 1165
SWIDTH 517 0
DWIDTH 5 0
BBX 7 7 0 0
BITMAP
2400
3400
BD00
7B40
7684
77A4
2FD0
ENDCHAR
STARTCHAR uni048E
ENCODING 1166
SWIDTH 805 0
DWIDTH 8 0
BBX 9 11 0 -2
BITMAP
02F900
0A5B00
29C740
31DF40
629E80
6BF400
A34000
634000
770000
2E0000
040000
ENDCHAR
STARTCHAR uni048F
ENCODING 1167
SWIDTH 481 0
DWIDTH 5 0
BBX 7 10 -1 -5
BITMAP
1AC0
1DD0
1CD0
2ED8
3FF4
A800
A800
A400
A400
E000
ENDCHAR
STARTCHAR uni0490
ENCODING 1168
SWIDTH 645 0
DWIDTH 6 0
BBX 9 12 0 0
BITMAP
000040
0001C0
000180
1BFF40
778000
A34000
574000
070000
0B0000
0A0000
0A0000
090000
ENDCHAR
STARTCHAR uni0491
ENCODING 1169
SWIDTH 394 0
DWIDTH 4 0
BBX 5 7 0 0
BITMAP
0100
0240
3F00
7000
6000
6000
6000
ENDCHAR
STARTCHAR uni0492
ENCODING 1170
SWIDTH 635 0
DWIDTH 6 0
BBX 9 9 0 0
BITMAP
1BFF40
778000
A34000
574000
1FD000
0B0000
0A0000
0A0000
090000
ENDCHAR
STARTCHAR uni0493
ENCODING 1171
SWIDTH 380 0
DWIDTH 4 0
BBX 5 5 0 0
BITMAP
7D00
1A00
AC00
A5C0
7E40
ENDCHAR
STARTCHAR uni0494
ENCODING 1172
SWIDTH 884 0
DWIDTH 9 0
BBX 10 14 0 -5
BITMAP
1BFF40
778000
A34000
674000
076E00
0B9740
0B0750
0A07E0
090B80
001E00
007D00
00DC00
01E800
00F000
ENDCHAR
STARTCHAR uni0495
ENCODING 1173
SWIDTH 441 0
DWIDTH 4 0
BBX 6 8 0 -3
BITMAP
7D00
1A00
2800
A190
7F80
1E00
6900
7800
ENDCHAR
STARTCHAR uni0496
ENCODING 1174
SWIDTH 1234 0
DWIDTH 12 0
BBX 14 12 0 -3
BITMAP
0B470B80
16C71D80
00D72800
00AAB000
007FC000
01DEE000
038D7000
AB1C3990
7D1C1F40
00002E00
0000AA00
0000BC00
ENDCHAR
STARTCHAR uni0497
ENCODING 1175
SWIDTH 803 0
DWIDTH 8 0
BBX 9 8 0 -3
BITMAP
39AD00
2BA900
4BE000
AEE580
B66F40
002D00
009C00
00B400
ENDCHAR
STARTCHAR uni0498
ENCODING 1176
SWIDTH 725 0
DWIDTH 7 0
BBX 7 12 0 -3
BITMAP
0BE0
1D74
2834
0070
07F4
102C
7028
74B4
2FD0
06C0
1DC0
1F40
ENDCHAR
STARTCHAR uni0499
ENCODING 1177
SWIDTH 445 0
DWIDTH 4 0
BBX 6 8 0 -3
BITMAP
2E00
6700
1D00
9790
7F80
1E00
3900
3800
ENDCHAR
STARTCHAR uni049A
ENCODING 1178
SWIDTH 937 0
DWIDTH 9 0
BBX 11 12 0 -3
BITMAP
1BE0A0
34E1D0
70D280
21DB00
03F800
02ED00
428E00
A74BA8
2E03D0
000BC0
002A80
002F00
ENDCHAR
STARTCHAR uni049B
ENCODING 1179
SWIDTH 531 0
DWIDTH 5 0
BBX 7 8 0 -3
BITMAP
3780
7DC0
7C40
7D64
67E0
0780
1A40
1E00
ENDCHAR
STARTCHAR uni049C
ENCODING 1180
SWIDTH 937 0
DWIDTH 9 0
BBX 11 9 0 0
BITMAP
1BE0A0
34E0D0
70E680
21EF00
03F800
02EC00
42BE04
A75B64
2E02E0
ENDCHAR
STARTCHAR uni049D
ENCODING 1181
SWIDTH 485 0
DWIDTH 5 0
BBX 6 5 0 0
BITMAP
33C0
7A80
7D10
7E70
67D0
ENDCHAR
STARTCHAR uni049E
ENCODING 1182
SWIDTH 937 0
DWIDTH 9 0
BBX 11 9 0 0
BITMAP
1BE0A0
34E1D0
77F680
21DB00
03F800
02EC00
428E04
A74B64
2E02E0
ENDCHAR
STARTCHAR uni049F
ENCODING 1183
SWIDTH 473 0
DWIDTH 5 0
BBX 6 9 0 0
BITMAP
1C00
2800
7F40
3400
3780
79C0
7C50
7D60
67C0
ENDCHAR
STARTCHAR uni04A0
ENCODING 1184
SWIDTH 937 0
DWIDTH 9 0
BBX 11 9 0 0
BITMAP
3FE090
05D1C0
00D280
01DA00
03F800
02EC00
428E04
A74B64
2E02E0
ENDCHAR
STARTCHAR uni04A1
ENCODING 1185
SWIDTH 555 0
DWIDTH 6 0
BBX 7 5 0 0
BITMAP
7DE0
1B70
2F14
2F58
19E0
ENDCHAR
STARTCHAR uni04A2
ENCODING 1186
SWIDTH 907 0
DWIDTH 9 0
BBX 11 13 0 -3
BITMAP
0002D0
2E0790
9B0A50
470D80
0A1F40
3FFD00
0D1C00
1D1C00
1C0E64
1807D0
000B80
003740
002E00
ENDCHAR
STARTCHAR uni04A3
ENCODING 1187
SWIDTH 515 0
DWIDTH 5 0
BBX 6 8 0 -3
BITMAP
3240
7240
7F00
6760
62E0
0B40
1B00
2E00
ENDCHAR
STARTCHAR uni04A4
ENCODING 1188
SWIDTH 873 0
DWIDTH 9 0
BBX 11 9 0 0
BITMAP
2E02F8
9B0740
470E00
0A0D00
3FFC00
0D1C00
1D1C10
1C0D60
180780
ENDCHAR
STARTCHAR uni04A5
ENCODING 1189
SWIDTH 475 0
DWIDTH 5 0
BBX 6 6 0 0
BITMAP
0040
3290
7240
7F00
6760
63D0
ENDCHAR
STARTCHAR uni04A8
ENCODING 1192
SWIDTH 997 0
DWIDTH 10 0
BBX 11 9 0 0
BITMAP
06C000
1E5F80
2879E0
34A070
74E070
74E0A0
34B1D0
2D7F98
0BFBE4
ENDCHAR
STARTCHAR uni04A9
ENCODING 1193
SWIDTH 574 0
DWIDTH 6 0
BBX 7 5 0 0
BITMAP
2EC0
7690
A694
A7E8
2FE0
ENDCHAR
STARTCHAR uni04AA
ENCODING 1194
SWIDTH 781 0
DWIDTH 8 0
BBX 9 14 0 -5
BITMAP
06F400
1E2C00
281C00
340400
740000
700000
740440
2D2E80
0BFE00
003800
00B400
027000
036000
02D000
ENDCHAR
STARTCHAR uni04AB
ENCODING 1195
SWIDTH 431 0
DWIDTH 4 0
BBX 6 8 0 -3
BITMAP
2D00
7600
A000
A190
3F40
1E00
6900
7800
ENDCHAR
STARTCHAR uni04AC
ENCODING 1196
SWIDTH 697 0
DWIDTH 7 0
BBX 9 12 0 -3
BITMAP
1BFF80
74E000
A0D000
51C000
02C000
028000
028000
038000
03D000
0AC000
1DC000
1F4000
ENDCHAR
STARTCHAR uni04AD
ENCODING 1197
SWIDTH 784 0
DWIDTH 8 0
BBX 9 8 0 -3
BITMAP
376C00
7BBC00
77D800
739980
625E40
002C00
009800
00B400
ENDCHAR
STARTCHAR uni04AE
ENCODING 1198
SWIDTH 677 0
DWIDTH 7 0
BBX 7 9 1 0
BITMAP
6034
74A0
39D0
2E80
0F00
0A00
0900
0D00
0900
ENDCHAR
STARTCHAR uni04AF
ENCODING 1199
SWIDTH 472 0
DWIDTH 5 0
BBX 6 9 0 -4
BITMAP
6240
6380
73F0
3A00
3800
3400
3400
3400
1000
ENDCHAR
STARTCHAR uni04B0
ENCODING 1200
SWIDTH 677 0
DWIDTH 7 0
BBX 7 9 1 0
BITMAP
6034
74A0
39D0
1F80
0F00
3F80
0E00
0D00
0900
ENDCHAR
STARTCHAR uni04B1
ENCODING 1201
SWIDTH 472 0
DWIDTH 5 0
BBX 6 9 0 -4
BITMAP
6240
7380
73F0
3A00
3C00
BD00
3400
3400
1000
ENDCHAR
STARTCHAR uni04B2
ENCODING 1202
SWIDTH 716 0
DWIDTH 7 0
BBX 9 12 0 -3
BITMAP
2D0A00
9B2C00
03B400
02D000
03C000
0BD000
2CD000
74B640
D03D00
00B800
02A400
02E000
ENDCHAR
STARTCHAR uni04B3
ENCODING 1203
SWIDTH 601 0
DWIDTH 6 0
BBX 7 8 0 -3
BITMAP
3AD0
2B90
0A00
9F18
BBF4
02D0
09C0
0B40
ENDCHAR
STARTCHAR uni04B4
ENCODING 1204
SWIDTH 1040 0
DWIDTH 10 0
BBX 12 12 0 -3
BITMAP
1BFD60
74E0A0
A0D0A0
61D0D0
01C1D0
0282D0
0282C0
0299E5
01F4BD
0003F0
000AA0
0007C0
ENDCHAR
STARTCHAR uni04B5
ENCODING 1205
SWIDTH 501 0
DWIDTH 5 0
BBX 6 10 0 -3
BITMAP
1F80
0000
3240
7300
6700
7F60
77D0
0B40
2700
2D00
ENDCHAR
STARTCHAR uni04B6
ENCODING 1206
SWIDTH 804 0
DWIDTH 8 0
BBX 9 12 1 -3
BITMAP
702400
703400
B07400
A0B000
E1F000
7FA000
04A000
007F40
006D00
01F400
037400
02E000
ENDCHAR
STARTCHAR uni04B7
ENCODING 1207
SWIDTH 631 0
DWIDTH 6 0
BBX 8 9 0 -3
BITMAP
0400
1BE0
26C0
6700
9A59
47F4
01E0
0690
0780
ENDCHAR
STARTCHAR uni04B8
ENCODING 1208
SWIDTH 773 0
DWIDTH 8 0
BBX 7 9 1 0
BITMAP
7024
7034
A574
A9B0
AAF0
7EB0
0CA0
04A0
0090
ENDCHAR
STARTCHAR uni04B9
ENCODING 1209
SWIDTH 575 0
DWIDTH 6 0
BBX 7 6 0 0
BITMAP
0E40
1FE0
26D0
7744
D768
03E0
ENDCHAR
STARTCHAR uni04BA
ENCODING 1210
SWIDTH 755 0
DWIDTH 8 0
BBX 8 9 1 0
BITMAP
3400
7000
7000
B000
ABD0
F9B0
E0B1
D0A6
C0B8
ENDCHAR
STARTCHAR uni04BB
ENCODING 1211
SWIDTH 502 0
DWIDTH 5 0
BBX 7 10 0 0
BITMAP
0B00
1A40
2600
3600
7900
7A80
7B80
7A40
7364
62D0
ENDCHAR
STARTCHAR uni04BC
ENCODING 1212
SWIDTH 808 0
DWIDTH 8 0
BBX 10 9 0 0
BITMAP
00BD00
039700
0B0340
5E0700
7FFF00
0D0000
0E0000
079590
01BE40
ENDCHAR
STARTCHAR uni04BD
ENCODING 1213
SWIDTH 483 0
DWIDTH 5 0
BBX 6 5 0 0
BITMAP
0B40
1980
AB50
6D70
0B90
ENDCHAR
STARTCHAR uni04BE
ENCODING 1214
SWIDTH 808 0
DWIDTH 8 0
BBX 10 12 0 -3
BITMAP
00BD00
039700
0B0340
5E0700
7FFF00
0D0000
0E0000
0B9590
01FE40
028000
024000
01E000
ENDCHAR
STARTCHAR uni04BF
ENCODING 1215
SWIDTH 483 0
DWIDTH 5 0
BBX 6 8 0 -3
BITMAP
0B40
1980
AA40
7D70
1FD0
0600
0A00
07C0
ENDCHAR
STARTCHAR uni04C0
ENCODING 1216
SWIDTH 495 0
DWIDTH 5 0
BBX 6 9 0 0
BITMAP
2FD0
0B00
0A00
0E00
0D00
0D00
1C00
2C00
FF40
ENDCHAR
STARTCHAR uni04C1
ENCODING 1217
SWIDTH 1234 0
DWIDTH 12 0
BBX 13 11 0 0
BITMAP
000C6000
000B8000
0B470B80
16C71D80
00D72800
00AAB000
007FC000
01DEE000
038D7000
AB1C3980
7D1C1F40
ENDCHAR
STARTCHAR uni04C2
ENCODING 1218
SWIDTH 717 0
DWIDTH 7 0
BBX 9 8 0 0
BITMAP
053000
07D000
000000
39AD00
2BA900
4BE000
AEE640
B66D00
ENDCHAR
STARTCHAR uni04C3
ENCODING 1219
SWIDTH 937 0
DWIDTH 9 0
BBX 11 12 0 -3
BITMAP
1BE0A0
34E1D0
70D280
21DB00
03F800
02ED00
428E00
A74BA8
2E03D0
000BC0
002A80
002F00
ENDCHAR
STARTCHAR uni04C4
ENCODING 1220
SWIDTH 531 0
DWIDTH 5 0
BBX 7 8 0 -3
BITMAP
3780
7DC0
7C40
7D64
67E0
0780
1A40
1E00
ENDCHAR
STARTCHAR uni04C5
ENCODING 1221
SWIDTH 861 0
DWIDTH 9 0
BBX 10 11 0 -2
BITMAP
001C00
002C00
003C00
007C00
00AC00
01DC00
429C10
D74E60
7D07C0
000700
000900
ENDCHAR
STARTCHAR uni04C6
ENCODING 1222
SWIDTH 549 0
DWIDTH 5 0
BBX 7 7 0 -2
BITMAP
0340
0780
4B84
EEA4
B5E0
01C0
0240
ENDCHAR
STARTCHAR uni04C7
ENCODING 1223
SWIDTH 907 0
DWIDTH 9 0
BBX 11 13 0 -3
BITMAP
0002D0
2E0790
9B0A50
470D80
0A1F40
3FFD00
0D1C00
1D1C00
1C0E64
1807D0
000B80
003740
002E00
ENDCHAR
STARTCHAR uni04C8
ENCODING 1224
SWIDTH 515 0
DWIDTH 5 0
BBX 6 8 0 -3
BITMAP
3240
7240
7F00
6760
62E0
0B40
1B00
2E00
ENDCHAR
STARTCHAR uni04C9
ENCODING 1225
SWIDTH 873 0
DWIDTH 9 0
BBX 10 13 0 -3
BITMAP
0002D0
2E0790
9B0A50
470D80
0A1F40
3FFD00
0D1C00
1D1C10
1C0EA0
1807C0
000340
000A00
000400
ENDCHAR
STARTCHAR uni04CA
ENCODING 1226
SWIDTH 475 0
DWIDTH 5 0
BBX 6 7 0 -2
BITMAP
3240
7240
7F00
6770
63D0
0240
0600
ENDCHAR
STARTCHAR uni04CB
ENCODING 1227
SWIDTH 773 0
DWIDTH 8 0
BBX 7 12 1 -3
BITMAP
7024
7034
B074
A0B0
E1F0
7FB0
04A0
00A0
02D0
1F40
3700
3E00
ENDCHAR
STARTCHAR uni04CC
ENCODING 1228
SWIDTH 555 0
DWIDTH 6 0
BBX 7 7 0 -1
BITMAP
0D00
1BE0
26C0
7704
DA68
07E0
0050
ENDCHAR
STARTCHAR uni04CD
ENCODING 1229
SWIDTH 1133 0
DWIDTH 11 0
BBX 13 11 0 -2
BITMAP
00707000
00B0F000
00F1F000
01F2B000
01B7B000
02BA7000
437D7000
9A2C7640
7D182E00
00001800
00003400
ENDCHAR
STARTCHAR uni04CE
ENCODING 1230
SWIDTH 734 0
DWIDTH 7 0
BBX 9 7 0 -2
BITMAP
072800
0B7800
5EA840
EAD940
B58E00
001C00
002400
ENDCHAR
STARTCHAR uni04CF
ENCODING 1231
SWIDTH 222 0
DWIDTH 2 0
BBX 3 9 0 0
BITMAP
04
28
28
34
34
70
70
A0
A0
ENDCHAR
STARTCHAR uni04D0
ENCODING 1232
SWIDTH 786 0
DWIDTH 8 0
BBX 9 11 0 0
BITMAP
00A200
007D00
01BF40
0B9500
1D0D00
381C00
742C00
703800
707840
39F9C0
1F5F40
ENDCHAR
STARTCHAR uni04D1
ENCODING 1233
SWIDTH 470 0
DWIDTH 5 0
BBX 6 9 0 0
BITMAP
0040
2580
1F40
0000
1E00
7740
A300
AB60
7AC0
ENDCHAR
STARTCHAR uni04D2
ENCODING 1234
SWIDTH 786 0
DWIDTH 8 0
BBX 9 11 0 0
BITMAP
00A600
000000
01BF40
0B9500
1D0D00
381C00
742C00
703800
707840
39F9C0
1F5F40
ENDCHAR
STARTCHAR uni04D3
ENCODING 1235
SWIDTH 470 0
DWIDTH 5 0
BBX 6 7 0 0
BITMAP
1980
0000
1E00
7740
A300
AB60
7AC0
ENDCHAR
STARTCHAR uni04D4
ENCODING 1236
SWIDTH 1015 0
DWIDTH 10 0
BBX 12 9 0 0
BITMAP
01B7F8
0B9A00
1D0D00
381D00
742FF0
702C00
707800
39ED59
1F47F8
ENDCHAR
STARTCHAR uni04D5
ENCODING 1237
SWIDTH 653 0
DWIDTH 7 0
BBX 8 5 0 0
BITMAP
1EB4
76A4
A3A1
AB9A
79F8
ENDCHAR
STARTCHAR uni04D6
ENCODING 1238
SWIDTH 686 0
DWIDTH 7 0
BBX 8 11 0 0
BITMAP
0258
01F4
06F4
1D6C
281C
2D08
0F80
7900
B000
7556
1FF9
ENDCHAR
STARTCHAR uni04D7
ENCODING 1239
SWIDTH 393 0
DWIDTH 4 0
BBX 5 8 0 0
BITMAP
2240
3E00
0000
2E00
7600
A900
B5C0
2E40
ENDCHAR
STARTCHAR uni04D8
ENCODING 1240
SWIDTH 792 0
DWIDTH 8 0
BBX 8 9 0 0
BITMAP
0BE4
296D
000E
000A
7FFE
741E
741D
3978
0BD0
ENDCHAR
STARTCHAR uni04D9
ENCODING 1241
SWIDTH 455 0
DWIDTH 5 0
BBX 6 5 0 0
BITMAP
3E00
1740
BFE0
A740
7E00
ENDCHAR
STARTCHAR uni04DA
ENCODING 1242
SWIDTH 792 0
DWIDTH 8 0
BBX 8 11 0 0
BITMAP
0374
0000
0BE4
296D
000E
000A
7FFE
741E
741D
3978
0BD0
ENDCHAR
STARTCHAR uni04DB
ENCODING 1243
SWIDTH 455 0
DWIDTH 5 0
BBX 6 7 0 0
BITMAP
3640
0000
3E00
1740
BFE0
A740
7E00
ENDCHAR
STARTCHAR uni04DC
ENCODING 1244
SWIDTH 1234 0
DWIDTH 12 0
BBX 13 11 0 0
BITMAP
000DD000
00000000
0B470B80
16C71D80
00D72800
00AAB000
007FC000
01DEE000
038D7000
AB1C3980
7D1C1F40
ENDCHAR
STARTCHAR uni04DD
ENCODING 1245
SWIDTH 717 0
DWIDTH 7 0
BBX 9 7 0 0
BITMAP
073000
000000
39AD00
2BA900
4BE000
AEE640
B66D00
ENDCHAR
STARTCHAR uni04DE
ENCODING 1246
SWIDTH 725 0
DWIDTH 7 0
BBX 7 11 0 0
BITMAP
0374
0000
0BE0
1D74
2834
0070
07F4
102C
7028
74B4
1F90
ENDCHAR
STARTCHAR uni04DF
ENCODING 1247
SWIDTH 435 0
DWIDTH 4 0
BBX 7 12 -1 -5
BITMAP
1CC0
0000
0B80
05C0
0280
1D24
0AD0
0B40
2B00
3700
6A00
7800
ENDCHAR
STARTCHAR uni04E0
ENCODING 1248
SWIDTH 744 0
DWIDTH 7 0
BBX 8 9 0 0
BITMAP
0BF9
286D
2838
00B0
07F4
102C
7028
74B4
1F90
ENDCHAR
STARTCHAR uni04E1
ENCODING 1249
SWIDTH 435 0
DWIDTH 4 0
BBX 7 10 -1 -5
BITMAP
1FE0
0780
0D00
1C74
0B90
0B40
2B00
6700
6A00
7800
ENDCHAR
STARTCHAR uni04E2
ENCODING 1250
SWIDTH 890 0
DWIDTH 9 0
BBX 10 11 0 0
BITMAP
00FC00
000000
2E0340
AB0740
8B0700
0A0B00
0D0B00
0D1E00
1C2A00
1EAB70
0B87D0
ENDCHAR
STARTCHAR uni04E3
ENCODING 1251
SWIDTH 462 0
DWIDTH 5 0
BBX 6 7 0 0
BITMAP
2F40
0000
3240
7340
6710
7F60
7780
ENDCHAR
STARTCHAR uni04E4
ENCODING 1252
SWIDTH 890 0
DWIDTH 9 0
BBX 10 11 0 0
BITMAP
01DC00
000000
2E0340
AB0740
8B0700
0A0B00
0D0B00
0D1E00
1C2A00
1EAB70
0B87D0
ENDCHAR
STARTCHAR uni04E5
ENCODING 1253
SWIDTH 462 0
DWIDTH 5 0
BBX 6 7 0 0
BITMAP
2980
0000
3240
7340
6710
7F60
7780
ENDCHAR
STARTCHAR uni04E6
ENCODING 1254
SWIDTH 816 0
DWIDTH 8 0
BBX 8 11 0 0
BITMAP
02A8
0000
06F4
1E5D
280A
340B
700B
700A
740D
2D68
0BE0
ENDCHAR
STARTCHAR uni04E7
ENCODING 1255
SWIDTH 451 0
DWIDTH 5 0
BBX 6 7 0 0
BITMAP
3640
0000
2E00
7B40
A7E0
A740
2D00
ENDCHAR
STARTCHAR uni04E8
ENCODING 1256
SWIDTH 816 0
DWIDTH 8 0
BBX 8 9 0 0
BITMAP
06F4
1E5D
280A
340B
7FFF
740A
740D
2D68
0BE0
ENDCHAR
STARTCHAR uni04E9
ENCODING 1257
SWIDTH 451 0
DWIDTH 5 0
BBX 6 5 0 0
BITMAP
2E00
7740
BFE0
B700
2D00
ENDCHAR
STARTCHAR uni04EA
ENCODING 1258
SWIDTH 816 0
DWIDTH 8 0
BBX 8 11 0 0
BITMAP
02A8
0000
06F4
1E5D
280A
340B
7FFF
740A
740D
2D68
0BE0
ENDCHAR
STARTCHAR uni04EB
ENCODING 1259
SWIDTH 451 0
DWIDTH 5 0
BBX 6 7 0 0
BITMAP
3640
0000
2E00
7740
BFE0
B700
2D00
ENDCHAR
STARTCHAR uni04EC
ENCODING 1260
SWIDTH 755 0
DWIDTH 8 0
BBX 8 11 0 0
BITMAP
0374
0000
0BE0
3978
101D
000D
0BFD
001C
6028
75B4
2F90
ENDCHAR
STARTCHAR uni04ED
ENCODING 1261
SWIDTH 466 0
DWIDTH 5 0
BBX 6 7 0 0
BITMAP
2680
0000
2E00
1740
1FF0
A740
7E00
ENDCHAR
STARTCHAR uni04EE
ENCODING 1262
SWIDTH 824 0
DWIDTH 8 0
BBX 10 13 0 -2
BITMAP
01F800
000000
2E0340
9B0740
0A0B00
0E0F00
0E2E00
0BDA40
001FD0
01ED00
071C00
0A2800
07E000
ENDCHAR
STARTCHAR uni04EF
ENCODING 1263
SWIDTH 479 0
DWIDTH 5 0
BBX 6 12 0 -5
BITMAP
2F40
0000
3240
7340
6710
7FA0
7B80
1E00
2900
9C00
D800
B400
ENDCHAR
STARTCHAR uni04F0
ENCODING 1264
SWIDTH 824 0
DWIDTH 8 0
BBX 10 13 0 -2
BITMAP
01DC00
000000
2E0340
9B0740
0A0B00
0E0F00
0E2E00
0BDA40
001FD0
01ED00
071C00
0A2800
07E000
ENDCHAR
STARTCHAR uni04F1
ENCODING 1265
SWIDTH 479 0
DWIDTH 5 0
BBX 6 12 0 -5
BITMAP
2980
0000
3240
7340
6710
7FA0
7B80
1E00
2900
9C00
D800
B400
ENDCHAR
STARTCHAR uni04F2
ENCODING 1266
SWIDTH 824 0
DWIDTH 8 0
BBX 10 15 0 -2
BITMAP
004400
009D00
009800
000000
2E0340
9B0740
0A0B00
0E0F00
0E2E00
0BDA40
001FD0
01ED00
071C00
0A2800
07E000
ENDCHAR
STARTCHAR uni04F3
ENCODING 1267
SWIDTH 479 0
DWIDTH 5 0
BBX 6 15 0 -5
BITMAP
0440
0AD0
0DC0
1940
0000
3240
7340
6710
7FA0
7B80
1E00
2900
9C00
D800
B400
ENDCHAR
STARTCHAR uni04F4
ENCODING 1268
SWIDTH 773 0
DWIDTH 8 0
BBX 7 11 1 0
BITMAP
0DD0
0000
7024
7034
B074
A0B0
E1F0
7FB0
04A0
00A0
0090
ENDCHAR
STARTCHAR uni04F5
ENCODING 1269
SWIDTH 555 0
DWIDTH 6 0
BBX 7 7 0 0
BITMAP
0730
0D00
1BE0
26C0
7704
DA68
07E0
ENDCHAR
STARTCHAR uni04F6
ENCODING 1270
SWIDTH 600 0
DWIDTH 6 0
BBX 9 12 0 -3
BITMAP
1BFF40
778000
A34000
574000
070000
0B0000
0A0000
0E4000
0B4000
2B4000
370000
3D0000
ENDCHAR
STARTCHAR uni04F7
ENCODING 1271
SWIDTH 441 0
DWIDTH 4 0
BBX 6 8 0 -3
BITMAP
7D00
1A00
2800
A190
7F80
1E00
6900
7800
ENDCHAR
STARTCHAR uni04F8
ENCODING 1272
SWIDTH 1078 0
DWIDTH 11 0
BBX 11 11 0 0
BITMAP
003740
000000
0D0024
1C0034
1C0074
2FE470
B96C70
341CA0
342CA0
2874E0
0BD0D0
ENDCHAR
STARTCHAR uni04F9
ENCODING 1273
SWIDTH 702 0
DWIDTH 7 0
BBX 8 7 0 0
BITMAP
0670
0000
3028
7B78
76F5
77B7
2E2D
ENDCHAR
STARTCHAR uni04FA
ENCODING 1274
SWIDTH 635 0
DWIDTH 6 0
BBX 10 13 -1 -4
BITMAP
06FFD0
1DE000
28D000
15D000
07F400
02C000
028000
028000
038000
034000
070000
5A0000
7D0000
ENDCHAR
STARTCHAR uni04FB
ENCODING 1275
SWIDTH 441 0
DWIDTH 4 0
BBX 6 8 0 -3
BITMAP
7D00
1A00
BC00
A590
7F80
1E00
6900
7800
ENDCHAR
STARTCHAR uni04FC
ENCODING 1276
SWIDTH 716 0
DWIDTH 7 0
BBX 9 12 0 -3
BITMAP
2D0A00
9B2C00
03B400
02D000
03C000
0BD000
2CD000
74B640
D03D00
00B800
02A400
02E000
ENDCHAR
STARTCHAR uni04FD
ENCODING 1277
SWIDTH 601 0
DWIDTH 6 0
BBX 7 8 0 -3
BITMAP
3AD0
2B90
0A00
9F18
BBF4
02D0
09C0
0B40
ENDCHAR
STARTCHAR uni04FE
ENCODING 1278
SWIDTH 712 0
DWIDTH 7 0
BBX 9 9 0 0
BITMAP
2D0A00
9B2C00
03B400
02E000
1FF400
0BD000
1DD000
74A640
D07D00
ENDCHAR
STARTCHAR uni04FF
ENCODING 1279
SWIDTH 529 0
DWIDTH 5 0
BBX 7 5 0 0
BITMAP
3AD0
2B90
1F40
AF64
BAE0
ENDCHAR
STARTCHAR uni0510
ENCODING 1296
SWIDTH 706 0
DWIDTH 7 0
BBX 7 9 0 0
BITMAP
0BE0
1D78
1C28
1D00
2FC0
7000
7028
7974
1FE0
ENDCHAR
STARTCHAR uni0511
ENCODING 1297
SWIDTH 392 0
DWIDTH 4 0
BBX 5 5 0 0
BITMAP
2D00
6500
3800
A5C0
7E40
ENDCHAR
STARTCHAR uni0512
ENCODING 1298
SWIDTH 884 0
DWIDTH 9 0
BBX 10 12 0 -3
BITMAP
001C00
002C00
003C00
007C00
00AC00
01DC00
429C00
E74E60
7D07D0
001F40
003700
003E00
ENDCHAR
STARTCHAR uni0513
ENCODING 1299
SWIDTH 631 0
DWIDTH 6 0
BBX 8 8 0 -3
BITMAP
0340
0780
4B40
EE89
B5F8
01E0
06D0
0780
ENDCHAR
STARTCHAR uni051A
ENCODING 1306
SWIDTH 816 0
DWIDTH 8 0
BBX 9 12 0 -3
BITMAP
06F400
1E5D00
280B00
340B00
700B00
700A00
741D00
2DB800
0BD000
00E000
00B580
002F40
ENDCHAR
STARTCHAR uni051B
ENCODING 1307
SWIDTH 500 0
DWIDTH 5 0
BBX 7 11 0 -5
BITMAP
0040
1F80
7740
A300
ABB4
7E80
0A80
0A80
0A80
0740
0100
ENDCHAR
STARTCHAR uni051C
ENCODING 1308
SWIDTH 1217 0
DWIDTH 12 0
BBX 13 9 1 0
BITMAP
60287C00
B0389D00
A0749D00
A0746C00
A0B42F80
A0F43400
A2A4A000
7B2EC000
2D0F4000
ENDCHAR
STARTCHAR uni051D
ENCODING 1309
SWIDTH 700 0
DWIDTH 7 0
BBX 9 5 0 0
BITMAP
621800
677800
6B7F40
7EA000
36C000
ENDCHAR
STARTCHAR uni0524
ENCODING 1316
SWIDTH 892 0
DWIDTH 9 0
BBX 10 12 0 -3
BITMAP
1BFFE0
768390
A34340
534700
070B00
070A00
0B0A00
0A0BA0
0A03D0
001F40
003740
003E00
ENDCHAR
STARTCHAR uni0525
ENCODING 1317
SWIDTH 536 0
DWIDTH 5 0
BBX 7 8 0 -3
BITMAP
3640
7B80
7B40
7364
62E0
0780
1A40
1E00
ENDCHAR
STARTCHAR uni0526
ENCODING 1318
SWIDTH 818 0
DWIDTH 8 0
BBX 9 12 1 -3
BITMAP
340000
340000
700000
B00000
A7D000
F9B000
E0B000
D0B940
D0BE00
00B800
02A400
02E000
ENDCHAR
STARTCHAR uni0527
ENCODING 1319
SWIDTH 542 0
DWIDTH 5 0
BBX 7 13 0 -3
BITMAP
0B00
1A40
2600
3600
7900
7A80
7B80
7A40
7364
62E0
0780
1A40
1E00
ENDCHAR
STARTCHAR uni0528
ENCODING 1320
SWIDTH 873 0
DWIDTH 9 0
BBX 11 13 -1 -3
BITMAP
0000B4
0B81E4
26C294
11C360
0287E0
0FFF40
034700
074704
070358
0B01E0
0A0000
9D0000
F80000
ENDCHAR
STARTCHAR uni0529
ENCODING 1321
SWIDTH 475 0
DWIDTH 5 0
BBX 7 8 -1 -3
BITMAP
0C90
1C90
1FC0
19D8
18F4
1800
9800
F400
ENDCHAR
STARTCHAR uni052E
ENCODING 1326
SWIDTH 884 0
DWIDTH 9 0
BBX 10 12 0 -3
BITMAP
001C00
002C00
003C00
007C00
00AC00
01DC00
429C00
E74E60
7D07D0
001F40
003700
003E00
ENDCHAR
STARTCHAR uni052F
ENCODING 1327
SWIDTH 631 0
DWIDTH 6 0
BBX 8 8 0 -3
BITMAP
0340
0780
4B40
EE89
B5F8
01E0
06D0
0780
ENDCHAR
STARTCHAR Wgrave
ENCODING 7808
SWIDTH 1217 0
DWIDTH 12 0
BBX 13 13 1 0
BITMAP
01400000
01D00000
00640000
00000000
60287C00
B0389D00
A0749D00
A0746C00
A0B42F80
A0F43400
A2A4A000
7B2EC000
2D0F4000
ENDCHAR
STARTCHAR wgrave
ENCODING 7809
SWIDTH 700 0
DWIDTH 7 0
BBX 9 10 0 0
BITMAP
040000
0D0000
060000
020000
000000
621800
677800
6B7F40
7EA000
36C000
ENDCHAR
STARTCHAR Wacute
ENCODING 7810
SWIDTH 1217 0
DWIDTH 12 0
BBX 13 13 1 0
BITMAP
00014000
00074000
00190000
00000000
60287C00
B0389D00
A0749D00
A0746C00
A0B42F80
A0F43400
A2A4A000
7B2EC000
2D0F4000
ENDCHAR
STARTCHAR wacute
ENCODING 7811
SWIDTH 700 0
DWIDTH 7 0
BBX 9 10 0 0
BITMAP
005000
00A000
00C000
014000
000000
621800
677800
6B7F40
7EA000
36C000
ENDCHAR
STARTCHAR Wdieresis
ENCODING 7812
SWIDTH 1217 0
DWIDTH 12 0
BBX 13 11 1 0
BITMAP
00660000
00000000
60287C00
B0389D00
A0749D00
A0746C00
A0B42F80
A0F43400
A2A4A000
7B2EC000
2D0F4000
ENDCHAR
STARTCHAR wdieresis
ENCODING 7813
SWIDTH 700 0
DWIDTH 7 0
BBX 9 7 0 0
BITMAP
09A000
000000
621800
677800
6B7F40
7EA000
36C000
ENDCHAR
STARTCHAR uni1E9E
ENCODING 7838
SWIDTH 843 0
DWIDTH 8 0
BBX 7 10 1 -1
BITMAP
35F4
766C
782C
B5B4
B2E0
E028
E02C
D038
C2E0
0140
ENDCHAR
STARTCHAR uni1EA0
ENCODING 7840
SWIDTH 786 0
DWIDTH 8 0
BBX 9 11 0 -2
BITMAP
01BF40
0B9500
1D0D00
381C00
742C00
703800
707840
39F9C0
1F5F40
000000
034000
ENDCHAR
STARTCHAR uni1EA1
ENCODING 7841
SWIDTH 470 0
DWIDTH 5 0
BBX 6 7 0 -2
BITMAP
1E00
7740
A300
AB60
7AC0
0000
2800
ENDCHAR
STARTCHAR uni1EA2
ENCODING 7842
SWIDTH 786 0
DWIDTH 8 0
BBX 9 13 0 0
BITMAP
002D00
000900
001D00
000000
01BF40
0B9500
1D0D00
381C00
742C00
703800
707840
39F9C0
1F5F40
ENDCHAR
STARTCHAR uni1EA3
ENCODING 7843
SWIDTH 470 0
DWIDTH 5 0
BBX 6 9 0 0
BITMAP
0B40
0280
0740
0000
1E00
7740
A300
AB60
7AC0
ENDCHAR
STARTCHAR uni1EA4
ENCODING 7844
SWIDTH 786 0
DWIDTH 8 0
BBX 9 16 0 0
BITMAP
000040
000380
000900
002C00
007900
009600
000000
01BF40
0B9500
1D0D00
381C00
742C00
703800
707840
39F9C0
1F5F40
ENDCHAR
STARTCHAR uni1EA5
ENCODING 7845
SWIDTH 470 0
DWIDTH 5 0
BBX 6 10 0 0
BITMAP
0010
0060
0B40
1980
0000
1E00
7740
A300
AB60
7AC0
ENDCHAR
STARTCHAR uni1EA6
ENCODING 7846
SWIDTH 786 0
DWIDTH 8 0
BBX 9 16 0 0
BITMAP
004000
01E000
002400
002C00
007900
009600
000000
01BF40
0B9500
1D0D00
381C00
742C00
703800
707840
39F9C0
1F5F40
ENDCHAR
STARTCHAR uni1EA7
ENCODING 7847
SWIDTH 470 0
DWIDTH 5 0
BBX 6 10 0 0
BITMAP
1000
6400
0B40
1980
0000
1E00
7740
A300
AB60
7AC0
ENDCHAR
STARTCHAR uni1EA8
ENCODING 7848
SWIDTH 786 0
DWIDTH 8 0
BBX 9 16 0 0
BITMAP
001E00
000700
000E00
002C00
007900
009600
000000
01BF40
0B9500
1D0D00
381C00
742C00
703800
707840
39F9C0
1F5F40
ENDCHAR
STARTCHAR uni1EA9
ENCODING 7849
SWIDTH 470 0
DWIDTH 5 0
BBX 7 9 0 0
BITMAP
00B0
0024
0BB0
1E80
1E40
7740
A300
AB60
7AC0
ENDCHAR
STARTCHAR uni1EAA
ENCODING 7850
SWIDTH 786 0
DWIDTH 8 0
BBX 9 15 0 0
BITMAP
007980
009B40
002C00
007900
009600
000000
01BF40
0B9500
1D0D00
381C00
742C00
703800
707840
39F9C0
1F5F40
ENDCHAR
STARTCHAR uni1EAB
ENCODING 7851
SWIDTH 470 0
DWIDTH 5 0
BBX 6 10 0 0
BITMAP
0E90
1640
0B40
1980
0000
1E00
7740
A300
AB60
7AC0
ENDCHAR
STARTCHAR uni1EAC
ENCODING 7852
SWIDTH 786 0
DWIDTH 8 0
BBX 9 15 0 -2
BITMAP
002C00
007900
009600
000000
01BF40
0B9500
1D0D00
381C00
742C00
703800
707840
39F9C0
1F5F40
000000
034000
ENDCHAR
STARTCHAR uni1EAD
ENCODING 7853
SWIDTH 470 0
DWIDTH 5 0
BBX 6 12 0 -2
BITMAP
0100
0B40
0E80
2580
0000
1E00
7740
A300
AB60
7AC0
0000
2800
ENDCHAR
STARTCHAR uni1EAE
ENCODING 7854
SWIDTH 786 0
DWIDTH 8 0
BBX 9 13 0 0
BITMAP
000A00
009600
00BE00
000000
01BF40
0B9500
1D0D00
381C00
742C00
703800
707840
39F9C0
1F5F40
ENDCHAR
STARTCHAR uni1EAF
ENCODING 7855
SWIDTH 470 0
DWIDTH 5 0
BBX 6 9 0 0
BITMAP
0180
2590
1F80
0000
1E00
7740
A300
AB60
7AC0
ENDCHAR
STARTCHAR uni1EB0
ENCODING 7856
SWIDTH 786 0
DWIDTH 8 0
BBX 9 13 0 0
BITMAP
003400
009600
007E00
000000
01BF40
0B9500
1D0D00
381C00
742C00
703800
707840
39F9C0
1F5F40
ENDCHAR
STARTCHAR uni1EB1
ENCODING 7857
SWIDTH 470 0
DWIDTH 5 0
BBX 6 9 0 0
BITMAP
0D00
2580
1F80
0000
1E00
7740
A300
AB60
7AC0
ENDCHAR
STARTCHAR uni1EB2
ENCODING 7858
SWIDTH 786 0
DWIDTH 8 0
BBX 9 14 0 0
BITMAP
002C00
001D00
00D700
007E00
000000
01BF40
0B9500
1D0D00
381C00
742C00
703800
707840
39F9C0
1F5F40
ENDCHAR
STARTCHAR uni1EB3
ENCODING 7859
SWIDTH 470 0
DWIDTH 5 0
BBX 6 10 0 0
BITMAP
0B40
0740
25D0
1F80
0000
1E00
7740
A300
AB60
7AC0
ENDCHAR
STARTCHAR uni1EB4
ENCODING 7860
SWIDTH 786 0
DWIDTH 8 0
BBX 9 14 0 0
BITMAP
006640
005500
009200
007E00
000000
01BF40
0B9500
1D0D00
381C00
742C00
703800
707840
39F9C0
1F5F40
ENDCHAR
STARTCHAR uni1EB5
ENCODING 7861
SWIDTH 470 0
DWIDTH 5 0
BBX 6 10 0 0
BITMAP
0A50
1540
2490
1F80
0000
1E00
7740
A300
AB60
7AC0
ENDCHAR
STARTCHAR uni1EB6
ENCODING 7862
SWIDTH 786 0
DWIDTH 8 0
BBX 9 14 0 -2
BITMAP
009200
007E00
000000
01BF40
0B9500
1D0D00
381C00
742C00
703800
707840
39F9C0
1F5F40
000000
034000
ENDCHAR
STARTCHAR uni1EB7
ENCODING 7863
SWIDTH 470 0
DWIDTH 5 0
BBX 6 11 0 -2
BITMAP
1000
28C0
1F80
0000
1E00
7740
A300
AB60
7AC0
0000
2800
ENDCHAR
STARTCHAR uni1EB8
ENCODING 7864
SWIDTH 686 0
DWIDTH 7 0
BBX 8 11 0 -2
BITMAP
06F4
1D6C
281C
2D08
0F80
7900
B000
7556
1FF9
0000
0740
ENDCHAR
STARTCHAR uni1EB9
ENCODING 7865
SWIDTH 393 0
DWIDTH 4 0
BBX 5 7 0 -2
BITMAP
2E00
7600
A900
B5C0
2E40
0000
2C00
ENDCHAR
STARTCHAR uni1EBA
ENCODING 7866
SWIDTH 686 0
DWIDTH 7 0
BBX 8 13 0 0
BITMAP
00E0
0034
00B0
0000
06F4
1D6C
281C
2D08
0F80
7900
B000
7556
1FF9
ENDCHAR
STARTCHAR uni1EBB
ENCODING 7867
SWIDTH 393 0
DWIDTH 4 0
BBX 5 9 0 0
BITMAP
0E00
0700
0A00
0000
2E00
7600
A900
B5C0
2E40
ENDCHAR
STARTCHAR uni1EBC
ENCODING 7868
SWIDTH 686 0
DWIDTH 7 0
BBX 8 12 0 0
BITMAP
029C
0678
0000
06F4
1D6C
281C
2D08
0F80
7900
B000
7556
1FF9
ENDCHAR
STARTCHAR uni1EBD
ENCODING 7869
SWIDTH 393 0
DWIDTH 4 0
BBX 5 8 0 0
BITMAP
2980
6740
0000
2E00
7600
A900
B5C0
2E40
ENDCHAR
STARTCHAR uni1EBE
ENCODING 7870
SWIDTH 686 0
DWIDTH 7 0
BBX 8 14 0 0
BITMAP
0001
0009
00A0
0264
0000
06F4
1D6C
281C
2D08
0F80
7900
B000
7556
1FF9
ENDCHAR
STARTCHAR uni1EBF
ENCODING 7871
SWIDTH 393 0
DWIDTH 4 0
BBX 6 10 0 0
BITMAP
0010
0090
0A00
2640
0000
2E00
7600
A900
B5C0
2E40
ENDCHAR
STARTCHAR uni1EC0
ENCODING 7872
SWIDTH 686 0
DWIDTH 7 0
BBX 8 14 0 0
BITMAP
0400
0600
00A0
0264
0000
06F4
1D6C
281C
2D08
0F80
7900
B000
7556
1FF9
ENDCHAR
STARTCHAR uni1EC1
ENCODING 7873
SWIDTH 393 0
DWIDTH 4 0
BBX 5 10 0 0
BITMAP
4000
A000
0A00
2640
0000
2E00
7600
A900
B5C0
2E40
ENDCHAR
STARTCHAR uni1EC2
ENCODING 7874
SWIDTH 686 0
DWIDTH 7 0
BBX 8 13 0 0
BITMAP
000E
0003
00AA
02B4
07F4
1D6C
281C
2D08
0F80
7900
B000
7556
1FF9
ENDCHAR
STARTCHAR uni1EC3
ENCODING 7875
SWIDTH 393 0
DWIDTH 4 0
BBX 6 9 0 0
BITMAP
00E0
0070
0AA0
2B40
2E00
7600
A900
B5C0
2E40
ENDCHAR
STARTCHAR uni1EC4
ENCODING 7876
SWIDTH 686 0
DWIDTH 7 0
BBX 8 14 0 0
BITMAP
01D8
0164
01F0
0264
0000
06F4
1D6C
281C
2D08
0F80
7900
B000
7556
1FF9
ENDCHAR
STARTCHAR uni1EC5
ENCODING 7877
SWIDTH 393 0
DWIDTH 4 0
BBX 5 10 0 0
BITMAP
1D80
1640
1F00
2640
0000
2E00
7600
A900
B5C0
2E40
ENDCHAR
STARTCHAR uni1EC6
ENCODING 7878
SWIDTH 686 0
DWIDTH 7 0
BBX 8 15 0 -2
BITMAP
00A0
01B4
0364
0000
06F4
1D6C
281C
2D08
0F80
7900
B000
7556
1FF9
0000
0740
ENDCHAR
STARTCHAR uni1EC7
ENCODING 7879
SWIDTH 393 0
DWIDTH 4 0
BBX 5 12 0 -2
BITMAP
0500
0F00
2B00
3240
0000
2E00
7600
A900
B5C0
2E40
0000
2C00
ENDCHAR
STARTCHAR uni1EC8
ENCODING 7880
SWIDTH 495 0
DWIDTH 5 0
BBX 6 13 0 0
BITMAP
0780
01C0
0380
0000
2FD0
0B00
0A00
0E00
0D00
0D00
1C00
2C00
FF40
ENDCHAR
STARTCHAR uni1EC9
ENCODING 7881
SWIDTH 246 0
DWIDTH 2 0
BBX 4 9 0 0
BITMAP
38
1C
28
00
30
70
61
66
78
ENDCHAR
STARTCHAR uni1ECA
ENCODING 7882
SWIDTH 495 0
DWIDTH 5 0
BBX 6 11 0 -2
BITMAP
2FD0
0B00
0A00
0E00
0D00
0D00
1C00
2C00
FF40
0000
2800
ENDCHAR
STARTCHAR uni1ECB
ENCODING 7883
SWIDTH 246 0
DWIDTH 2 0
BBX 4 9 0 -2
BITMAP
38
00
30
70
61
66
78
00
A0
ENDCHAR
STARTCHAR uni1ECC
ENCODING 7884
SWIDTH 816 0
DWIDTH 8 0
BBX 8 11 0 -2
BITMAP
06F4
1E5D
280A
340B
700B
700A
740D
2D68
0BE0
0000
0740
ENDCHAR
STARTCHAR uni1ECD
ENCODING 7885
SWIDTH 451 0
DWIDTH 5 0
BBX 6 7 0 -2
BITMAP
2E00
7B40
A7E0
A740
2D00
0000
2800
ENDCHAR
STARTCHAR uni1ECE
ENCODING 7886
SWIDTH 816 0
DWIDTH 8 0
BBX 8 13 0 0
BITMAP
00B0
0024
00B0
0000
06F4
1E5D
280A
340B
700B
700A
740D
2D68
0BE0
ENDCHAR
STARTCHAR uni1ECF
ENCODING 7887
SWIDTH 451 0
DWIDTH 5 0
BBX 6 9 0 0
BITMAP
0E00
0700
0A00
0000
2E00
7B40
A7E0
A740
2D00
ENDCHAR
STARTCHAR uni1ED0
ENCODING 7888
SWIDTH 816 0
DWIDTH 8 0
BBX 8 14 0 0
BITMAP
0001
000A
00B0
0264
0000
06F4
1E5D
280A
340B
700B
700A
740D
2D68
0BE0
ENDCHAR
STARTCHAR uni1ED1
ENCODING 7889
SWIDTH 451 0
DWIDTH 5 0
BBX 6 10 0 0
BITMAP
0010
0090
1A00
2640
0000
2E00
7B40
A7E0
A740
2D00
ENDCHAR
STARTCHAR uni1ED2
ENCODING 7890
SWIDTH 816 0
DWIDTH 8 0
BBX 8 14 0 0
BITMAP
0400
0600
00B0
0264
0000
06F4
1E5D
280A
340B
700B
700A
740D
2D68
0BE0
ENDCHAR
STARTCHAR uni1ED3
ENCODING 7891
SWIDTH 451 0
DWIDTH 5 0
BBX 6 10 0 0
BITMAP
4000
A000
1A00
2640
0000
2E00
7B40
A7E0
A740
2D00
ENDCHAR
STARTCHAR uni1ED4
ENCODING 7892
SWIDTH 816 0
DWIDTH 8 0
BBX 8 13 0 0
BITMAP
000A
0003
00BA
02A8
06F8
1E5D
280A
340B
700B
700A
740D
2D68
0BE0
ENDCHAR
STARTCHAR uni1ED5
ENCODING 7893
SWIDTH 451 0
DWIDTH 5 0
BBX 6 9 0 0
BITMAP
00E0
0060
0EA0
3B40
2E00
7B40
A7E0
A740
2D00
ENDCHAR
STARTCHAR uni1ED6
ENCODING 7894
SWIDTH 816 0
DWIDTH 8 0
BBX 8 14 0 0
BITMAP
01D8
0164
00F0
0264
0000
06F4
1E5D
280A
340B
700B
700A
740D
2D68
0BE0
ENDCHAR
STARTCHAR uni1ED7
ENCODING 7895
SWIDTH 451 0
DWIDTH 5 0
BBX 6 10 0 0
BITMAP
1D80
1640
1F00
3640
0000
2E00
7B40
A7E0
A740
2D00
ENDCHAR
STARTCHAR uni1ED8
ENCODING 7896
SWIDTH 816 0
DWIDTH 8 0
BBX 8 15 0 -2
BITMAP
00B0
01E4
0258
0000
06F4
1E5D
280A
340B
700B
700A
740D
2D68
0BE0
0000
0740
ENDCHAR
STARTCHAR uni1ED9
ENCODING 7897
SWIDTH 451 0
DWIDTH 5 0
BBX 6 12 0 -2
BITMAP
0500
0F00
2B00
3240
0000
2E00
7B40
A7E0
A740
2D00
0000
2800
ENDCHAR
STARTCHAR uni1EDA
ENCODING 7898
SWIDTH 816 0
DWIDTH 8 0
BBX 9 13 0 0
BITMAP
000400
001D00
006540
000280
06FF00
1E5D00
280B00
340B00
700B00
700A00
740D00
2D6800
0BE000
ENDCHAR
STARTCHAR uni1EDB
ENCODING 7899
SWIDTH 451 0
DWIDTH 5 0
BBX 6 10 0 0
BITMAP
0100
0300
0A00
0840
00C0
2F40
7B40
A7E0
A740
2D00
ENDCHAR
STARTCHAR uni1EDC
ENCODING 7900
SWIDTH 816 0
DWIDTH 8 0
BBX 9 13 0 0
BITMAP
040000
0B4000
018140
000280
06FF00
1E5D00
280B00
340B00
700B00
700A00
740D00
2D6800
0BE000
ENDCHAR
STARTCHAR uni1EDD
ENCODING 7901
SWIDTH 451 0
DWIDTH 5 0
BBX 6 10 0 0
BITMAP
1000
7000
2400
0840
00C0
2F40
7B40
A7E0
A740
2D00
ENDCHAR
STARTCHAR uni1EDE
ENCODING 7902
SWIDTH 816 0
DWIDTH 8 0
BBX 9 13 0 0
BITMAP
00B000
002400
00B140
000280
06FF00
1E5D00
280B00
340B00
700B00
700A00
740D00
2D6800
0BE000
ENDCHAR
STARTCHAR uni1EDF
ENCODING 7903
SWIDTH 451 0
DWIDTH 5 0
BBX 6 9 0 0
BITMAP
1E00
0700
0E40
00C0
2F40
7B40
A7E0
A740
2D00
ENDCHAR
STARTCHAR uni1EE0
ENCODING 7904
SWIDTH 816 0
DWIDTH 8 0
BBX 9 12 0 0
BITMAP
02D800
037940
000280
06FF00
1E5D00
280B00
340B00
700B00
700A00
740D00
2D6800
0BE000
ENDCHAR
STARTCHAR uni1EE1
ENCODING 7905
SWIDTH 451 0
DWIDTH 5 0
BBX 6 8 0 0
BITMAP
2940
6A40
00C0
2F40
7B40
A3E0
A700
2D00
ENDCHAR
STARTCHAR uni1EE2
ENCODING 7906
SWIDTH 816 0
DWIDTH 8 0
BBX 9 13 0 -2
BITMAP
000140
000280
06FF00
1E5D00
280B00
340B00
700B00
700A00
740D00
2D6800
0BE000
000000
074000
ENDCHAR
STARTCHAR uni1EE3
ENCODING 7907
SWIDTH 451 0
DWIDTH 5 0
BBX 6 9 0 -2
BITMAP
0040
00C0
2F40
7B40
A7E0
A740
2D00
0000
2800
ENDCHAR
STARTCHAR uni1EE4
ENCODING 7908
SWIDTH 890 0
DWIDTH 9 0
BBX 10 11 0 -2
BITMAP
2E0340
AB0740
8B0700
0A0B00
0D0B00
0D1E00
1C2A00
1EAB70
0B87D0
000000
02C000
ENDCHAR
STARTCHAR uni1EE5
ENCODING 7909
SWIDTH 462 0
DWIDTH 5 0
BBX 6 7 0 -2
BITMAP
3240
7340
6710
7F60
7780
0000
2800
ENDCHAR
STARTCHAR uni1EE6
ENCODING 7910
SWIDTH 890 0
DWIDTH 9 0
BBX 10 13 0 0
BITMAP
007800
001C00
003800
000000
2E0340
AB0740
8B0700
0A0B00
0D0B00
0D1E00
1C2A00
1EAB70
0B87D0
ENDCHAR
STARTCHAR uni1EE7
ENCODING 7911
SWIDTH 462 0
DWIDTH 5 0
BBX 6 9 0 0
BITMAP
0B00
0240
0700
0000
3240
7340
6710
7F60
7780
ENDCHAR
STARTCHAR uni1EE8
ENCODING 7912
SWIDTH 890 0
DWIDTH 9 0
BBX 10 13 0 0
BITMAP
000100
000E00
002410
000070
2E03D0
AB0740
8B0700
0A0B00
0D0B00
0D1E00
1C2A00
1EAB70
0B87D0
ENDCHAR
STARTCHAR uni1EE9
ENCODING 7913
SWIDTH 512 0
DWIDTH 5 0
BBX 7 10 0 0
BITMAP
0040
0280
0340
0510
0060
32D0
7340
6700
7F64
77D0
ENDCHAR
STARTCHAR uni1EEA
ENCODING 7914
SWIDTH 890 0
DWIDTH 9 0
BBX 10 13 0 0
BITMAP
010000
078000
009010
000070
2E03D0
AB0740
8B0700
0A0B00
0D0B00
0D1E00
1C2A00
1EAB70
0B87D0
ENDCHAR
STARTCHAR uni1EEB
ENCODING 7915
SWIDTH 512 0
DWIDTH 5 0
BBX 7 10 0 0
BITMAP
1000
2800
1C00
0910
0060
32D0
7340
6700
7F64
77D0
ENDCHAR
STARTCHAR uni1EEC
ENCODING 7916
SWIDTH 890 0
DWIDTH 9 0
BBX 10 13 0 0
BITMAP
007800
001C00
003810
000070
2E03D0
AB0740
8B0700
0A0B00
0D0B00
0D1E00
1C2A00
1EAB70
0B87D0
ENDCHAR
STARTCHAR uni1EED
ENCODING 7917
SWIDTH 512 0
DWIDTH 5 0
BBX 7 9 0 0
BITMAP
0B00
0240
0750
0060
32D0
7340
6700
7F64
77D0
ENDCHAR
STARTCHAR uni1EEE
ENCODING 7918
SWIDTH 890 0
DWIDTH 9 0
BBX 10 12 0 0
BITMAP
00E600
026D10
000070
2E03D0
AB0740
8B0700
0A0B00
0D0B00
0D1E00
1C2A00
1EAB70
0B87D0
ENDCHAR
STARTCHAR uni1EEF
ENCODING 7919
SWIDTH 512 0
DWIDTH 5 0
BBX 7 8 0 0
BITMAP
1D80
2750
0060
32D0
7340
6700
7F64
77D0
ENDCHAR
STARTCHAR uni1EF0
ENCODING 7920
SWIDTH 890 0
DWIDTH 9 0
BBX 10 13 0 -2
BITMAP
000010
000070
2E03D0
AB0740
8B0700
0A0B00
0D0B00
0D1E00
1C2A00
1EAB70
0B87D0
000000
02C000
ENDCHAR
STARTCHAR uni1EF1
ENCODING 7921
SWIDTH 512 0
DWIDTH 5 0
BBX 7 9 0 -2
BITMAP
0010
0060
32D0
7340
6700
7F64
77D0
0000
2800
ENDCHAR
STARTCHAR Ygrave
ENCODING 7922
SWIDTH 851 0
DWIDTH 9 0
BBX 10 16 0 -3
BITMAP
010000
038000
00A000
000000
2E0340
AB0340
4B0740
0A0B00
0E0B00
0D1E00
0D2A00
0BDF90
01AE00
031C00
0A2800
07E000
ENDCHAR
STARTCHAR ygrave
ENCODING 7923
SWIDTH 479 0
DWIDTH 5 0
BBX 6 15 0 -5
BITMAP
1000
2800
1C00
0900
0000
3240
7340
6710
7FA0
7B80
1E00
2900
9C00
D800
B400
ENDCHAR
STARTCHAR uni1EF4
ENCODING 7924
SWIDTH 851 0
DWIDTH 9 0
BBX 10 12 0 -3
BITMAP
2E0340
AB0340
4B0740
0A0B00
0E0B00
0D1E00
0D2A00
0BDF90
01AE00
031C00
0A2800
07E740
ENDCHAR
STARTCHAR uni1EF5
ENCODING 7925
SWIDTH 479 0
DWIDTH 5 0
BBX 6 10 0 -5
BITMAP
3240
7340
6710
7FA0
7B80
1E00
2900
9C00
DB80
B400
ENDCHAR
STARTCHAR uni1EF6
ENCODING 7926
SWIDTH 851 0
DWIDTH 9 0
BBX 10 16 0 -3
BITMAP
007800
001C00
003800
000000
2E0340
AB0340
4B0740
0A0B00
0E0B00
0D1E00
0D2A00
0BDF90
01AE00
031C00
0A2800
07E000
ENDCHAR
STARTCHAR uni1EF7
ENCODING 7927
SWIDTH 479 0
DWIDTH 5 0
BBX 6 14 0 -5
BITMAP
0B00
0240
0700
0000
3240
7340
6710
7FA0
7B80
1E00
2900
9C00
D800
B400
ENDCHAR
STARTCHAR uni1EF8
ENCODING 7928
SWIDTH 851 0
DWIDTH 9 0
BBX 10 15 0 -3
BITMAP
00E600
01AD00
000000
2E0340
AB0340
4B0740
0A0B00
0E0B00
0D1E00
0D2A00
0BDF90
01AE00
031C00
0A2800
07E000
ENDCHAR
STARTCHAR uni1EF9
ENCODING 7929
SWIDTH 479 0
DWIDTH 5 0
BBX 6 13 0 -5
BITMAP
2D90
2680
0000
3240
7340
6710
7FA0
7B80
1E00
2900
9C00
D800
B400
ENDCHAR
STARTCHAR endash
ENCODING 8211
SWIDTH 484 0
DWIDTH 5 0
BBX 5 1 0 3
BITMAP
7F40
ENDCHAR
STARTCHAR emdash
ENCODING 8212
SWIDTH 620 0
DWIDTH 6 0
BBX 6 1 0 3
BITMAP
7FE0
ENDCHAR
STARTCHAR quoteleft
ENCODING 8216
SWIDTH 237 0
DWIDTH 2 0
BBX 2 4 1 6
BITMAP
60
A0
E0
40
ENDCHAR
STARTCHAR quoteright
ENCODING 8217
SWIDTH 236 0
DWIDTH 2 0
BBX 2 4 1 6
BITMAP
60
A0
90
40
ENDCHAR
STARTCHAR quotesinglbase
ENCODING 8218
SWIDTH 257 0
DWIDTH 3 0
BBX 2 4 0 -2
BITMAP
10
B0
A0
90
ENDCHAR
STARTCHAR quotedblleft
ENCODING 8220
SWIDTH 457 0
DWIDTH 5 0
BBX 4 4 1 6
BITMAP
63
A7
EA
45
ENDCHAR
STARTCHAR quotedblright
ENCODING 8221
SWIDTH 456 0
DWIDTH 5 0
BBX 4 4 1 6
BITMAP
67
A7
9A
44
ENDCHAR
STARTCHAR quotedblbase
ENCODING 8222
SWIDTH 477 0
DWIDTH 5 0
BBX 4 4 0 -2
BITMAP
11
B7
A7
99
ENDCHAR
STARTCHAR dagger
ENCODING 8224
SWIDTH 588 0
DWIDTH 6 0
BBX 5 8 1 2
BITMAP
0900
0D00
BF80
1C00
1C00
1800
2800
1000
ENDCHAR
STARTCHAR daggerdbl
ENCODING 8225
SWIDTH 588 0
DWIDTH 6 0
BBX 5 8 1 2
BITMAP
0900
0D00
BF80
1C00
FF40
2800
2800
1000
ENDCHAR
STARTCHAR bullet
ENCODING 8226
SWIDTH 512 0
DWIDTH 5 0
BBX 3 3 1 1
BITMAP
B8
FC
B8
ENDCHAR
STARTCHAR ellipsis
ENCODING 8230
SWIDTH 777 0
DWIDTH 8 0
BBX 8 2 0 0
BITMAP
729D
B39D
ENDCHAR
STARTCHAR perthousand
ENCODING 8240
SWIDTH 1277 0
DWIDTH 13 0
BBX 13 8 0 0
BITMAP
2D080000
6A280000
67F00000
29A00000
01CB4E00
0259A680
0729A640
091F1E00
ENDCHAR
STARTCHAR guilsinglleft
ENCODING 8249
SWIDTH 350 0
DWIDTH 4 0
BBX 3 4 0 0
BITMAP
1C
B4
74
18
ENDCHAR
STARTCHAR guilsinglright
ENCODING 8250
SWIDTH 350 0
DWIDTH 4 0
BBX 3 4 0 0
BITMAP
60
2C
2C
60
ENDCHAR
STARTCHAR fraction
ENCODING 8260
SWIDTH 200 0
DWIDTH 2 0
BBX 4 7 -1 1
BITMAP
01
03
0A
1C
34
60
90
ENDCHAR
STARTCHAR uni2074
ENCODING 8308
SWIDTH 450 0
DWIDTH 5 0
BBX 4 4 1 4
BITMAP
24
9C
FE
18
ENDCHAR
STARTCHAR colonmonetary
ENCODING 8353
SWIDTH 517 0
DWIDTH 5 0
BBX 6 8 0 -1
BITMAP
06A0
2FC0
36C0
6A40
7A00
7980
7F40
A400
ENDCHAR
STARTCHAR franc
ENCODING 8355
SWIDTH 750 0
DWIDTH 8 0
BBX 8 6 0 0
BITMAP
3FF0
3428
3FBC
72DD
6280
6240
ENDCHAR
STARTCHAR lira
ENCODING 8356
SWIDTH 525 0
DWIDTH 5 0
BBX 5 6 0 0
BITMAP
1B80
2980
BE00
BE00
7500
BFC0
ENDCHAR
STARTCHAR uni20A6
ENCODING 8358
SWIDTH 672 0
DWIDTH 7 0
BBX 7 7 0 0
BITMAP
1410
2C30
2E70
BFF4
BFF4
75E0
6090
ENDCHAR
STARTCHAR peseta
ENCODING 8359
SWIDTH 1085 0
DWIDTH 11 0
BBX 11 7 0 0
BITMAP
7E1800
776800
32FF70
7374A0
7A34F4
A43668
A01EB4
ENDCHAR
STARTCHAR uni20A9
ENCODING 8361
SWIDTH 775 0
DWIDTH 8 0
BBX 8 6 0 0
BITMAP
BFFF
369D
BFFF
27E8
2AF0
1CE0
ENDCHAR
STARTCHAR dong
ENCODING 8363
SWIDTH 463 0
DWIDTH 5 0
BBX 6 9 0 -1
BITMAP
01C0
3FD0
0280
1F40
7740
A700
AB00
7B00
FF40
ENDCHAR
STARTCHAR Euro
ENCODING 8364
SWIDTH 552 0
DWIDTH 6 0
BBX 6 6 0 0
BITMAP
0B80
2990
BE40
BD00
3980
1F80
ENDCHAR
STARTCHAR uni20AD
ENCODING 8365
SWIDTH 590 0
DWIDTH 6 0
BBX 6 6 0 0
BITMAP
24A0
3680
BFE0
7700
7280
61F0
ENDCHAR
STARTCHAR uni20AE
ENCODING 8366
SWIDTH 513 0
DWIDTH 5 0
BBX 5 6 0 0
BITMAP
7FC0
1A00
1E00
1E00
2C00
1800
ENDCHAR
STARTCHAR uni20B1
ENCODING 8369
SWIDTH 557 0
DWIDTH 6 0
BBX 6 7 0 0
BITMAP
1500
3F80
BFE0
FFE0
3B40
7400
6000
ENDCHAR
STARTCHAR uni20B2
ENCODING 8370
SWIDTH 599 0
DWIDTH 6 0
BBX 6 10 0 -2
BITMAP
0100
0200
1F80
3AD0
7540
65E0
79E0
2FA0
0850
0400
ENDCHAR
STARTCHAR uni20B4
ENCODING 8372
SWIDTH 570 0
DWIDTH 6 0
BBX 6 6 0 0
BITMAP
1F40
25C0
7FD0
BFD0
3580
2F40
ENDCHAR
STARTCHAR uni20B5
ENCODING 8373
SWIDTH 517 0
DWIDTH 5 0
BBX 5 10 0 -2
BITMAP
0200
0700
2FC0
76C0
6540
6500
7980
2F40
0800
0400
ENDCHAR
STARTCHAR uni20B8
ENCODING 8376
SWIDTH 522 0
DWIDTH 5 0
BBX 5 6 0 0
BITMAP
7FC0
7FC0
1D00
0C00
0C00
1800
ENDCHAR
STARTCHAR uni20B9
ENCODING 8377
SWIDTH 511 0
DWIDTH 5 0
BBX 6 6 0 0
BITMAP
7FD0
7FC0
0A00
B800
1D00
0780
ENDCHAR
STARTCHAR uni20BA
ENCODING 8378
SWIDTH 452 0
DWIDTH 5 0
BBX 5 7 0 0
BITMAP
1400
2900
3D00
B900
7400
7240
3D00
ENDCHAR
STARTCHAR uni20BC
ENCODING 8380
SWIDTH 673 0
DWIDTH 7 0
BBX 7 8 0 0
BITMAP
0040
0140
0BD0
2EA0
3630
7234
A234
9230
ENDCHAR
STARTCHAR uni20BD
ENCODING 8381
SWIDTH 505 0
DWIDTH 5 0
BBX 5 6 0 0
BITMAP
2E40
2580
3680
BE00
BD00
7000
ENDCHAR
STARTCHAR uni2116
ENCODING 8470
SWIDTH 1198 0
DWIDTH 12 0
BBX 11 9 1 0
BITMAP
32F0B4
7A7598
783698
B435F4
B07000
E073F4
D0B000
D0A000
C0A000
ENDCHAR
STARTCHAR trademark
ENCODING 8482
SWIDTH 1150 0
DWIDTH 12 0
BBX 10 5 1 4
BITMAP
BEADE0
24D770
30CA20
318960
104410
ENDCHAR
STARTCHAR partialdiff
ENCODING 8706
SWIDTH 451 0
DWIDTH 5 0
BBX 5 8 0 0
BITMAP
2400
0A00
0340
2F40
7780
A340
A700
3D00
ENDCHAR
STARTCHAR product
ENCODING 8719
SWIDTH 700 0
DWIDTH 7 0
BBX 7 9 0 -1
BITMAP
1FF8
1828
2828
2824
3434
3430
3070
7070
5050
ENDCHAR
STARTCHAR summation
ENCODING 8721
SWIDTH 700 0
DWIDTH 7 0
BBX 7 8 0 0
BITMAP
1FF8
0E00
0740
01D0
01D0
0740
2D00
7FF0
ENDCHAR
STARTCHAR minus
ENCODING 8722
SWIDTH 700 0
DWIDTH 7 0
BBX 6 1 1 2
BITMAP
FFD0
ENDCHAR
STARTCHAR uni2215
ENCODING 8725
SWIDTH 700 0
DWIDTH 7 0
BBX 6 10 1 0
BITMAP
0040
00D0
01C0
0340
0700
0D00
2800
3400
A000
9000
ENDCHAR
STARTCHAR uni2219
ENCODING 8729
SWIDTH 700 0
DWIDTH 7 0
BBX 3 2 2 1
BITMAP
74
10
ENDCHAR
STARTCHAR radical
ENCODING 8730
SWIDTH 700 0
DWIDTH 7 0
BBX 8 9 0 0
BITMAP
0009
000C
0028
0030
7860
0CC0
0A80
0740
0100
ENDCHAR
STARTCHAR infinity
ENCODING 8734
SWIDTH 700 0
DWIDTH 7 0
BBX 7 4 0 1
BITMAP
2DB4
A768
A768
7DF4
ENDCHAR
STARTCHAR integral
ENCODING 8747
SWIDTH 700 0
DWIDTH 7 0
BBX 7 12 0 -3
BITMAP
00B8
01D0
0280
0280
0340
0340
0340
0700
0700
0600
0A00
7D00
ENDCHAR
STARTCHAR approxequal
ENCODING 8776
SWIDTH 700 0
DWIDTH 7 0
BBX 7 5 0 0
BITMAP
1E24
36F4
1450
3E70
62E0
ENDCHAR
STARTCHAR notequal
ENCODING 8800
SWIDTH 700 0
DWIDTH 7 0
BBX 7 6 0 -1
BITMAP
00C0
3FF4
0740
7FF0
1D00
0400
ENDCHAR
STARTCHAR lessequal
ENCODING 8804
SWIDTH 700 0
DWIDTH 7 0
BBX 7 6 0 0
BITMAP
0010
06F4
3E00
1B90
0060
7FF0
ENDCHAR
STARTCHAR greaterequal
ENCODING 8805
SWIDTH 700 0
DWIDTH 7 0
BBX 7 6 0 0
BITMAP
2900
1BE0
01B4
2F90
2400
7FF0
ENDCHAR
STARTCHAR lozenge
ENCODING 9674
SWIDTH 700 0
DWIDTH 7 0
BBX 5 10 1 0
BITMAP
0100
0B00
1E40
2580
70C0
A0C0
6280
3700
2D00
1800
ENDCHAR
STARTCHAR fi
ENCODING 64257
SWIDTH 633 0
DWIDTH 6 0
BBX 8 13 0 -3
BITMAP
0380
0AC0
1D80
1A74
2E00
BFE0
35A0
36A1
76A9
7678
7600
3900
2C00
ENDCHAR
STARTCHAR fl
ENCODING 64258
SWIDTH 688 0
DWIDTH 7 0
BBX 8 13 0 -3
BITMAP
074E
0EAB
19B7
26A6
36A9
78AC
74B4
6FE1
68A7
687D
6800
7800
3800
ENDCHAR
STARTCHAR .notdef
ENCODING -1
SWIDTH 265 0
DWIDTH 3 0
BBX 1 1 0 0
BITMAP
00
ENDCHAR
STARTCHAR Iacute_J.loclNLD
ENCODING -1
SWIDTH 776 0
DWIDTH 8 0
BBX 9 13 1 0
BITMAP
010100
0B0740
281900
000000
702400
B03400
A07400
A0B000
A1F000
7FB000
04A000
95D000
BE4000
ENDCHAR
STARTCHAR A.ss01
ENCODING -1
SWIDTH 780 0
DWIDTH 8 0
BBX 8 9 0 0
BITMAP
01BF
0B55
1D0D
381C
742C
7038
7078
39B8
1F74
ENDCHAR
STARTCHAR Aacute.ss01
ENCODING -1
SWIDTH 780 0
DWIDTH 8 0
BBX 9 13 0 0
BITMAP
000140
000740
001900
000000
01BF00
0B5500
1D0D00
381C00
742C00
703800
707800
39B800
1F7400
ENDCHAR
STARTCHAR Abreve.ss01
ENCODING -1
SWIDTH 780 0
DWIDTH 8 0
BBX 8 12 0 0
BITMAP
0092
007E
0000
01BF
0B55
1D0D
381C
742C
7038
7078
39B8
1F74
ENDCHAR
STARTCHAR uni1EAE.ss01
ENCODING -1
SWIDTH 780 0
DWIDTH 8 0
BBX 8 13 0 0
BITMAP
000A
0096
00BE
0000
01BF
0B55
1D0D
381C
742C
7038
7078
39B8
1F74
ENDCHAR
STARTCHAR uni1EB6.ss01
ENCODING -1
SWIDTH 780 0
DWIDTH 8 0
BBX 8 14 0 -2
BITMAP
0092
007E
0000
01BF
0B55
1D0D
381C
742C
7038
7078
39B8
1F74
0000
0340
ENDCHAR
STARTCHAR uni1EB0.ss01
ENCODING -1
SWIDTH 780 0
DWIDTH 8 0
BBX 8 13 0 0
BITMAP
0034
0096
007E
0000
01BF
0B55
1D0D
381C
742C
7038
7078
39B8
1F74
ENDCHAR
STARTCHAR uni1EB2.ss01
ENCODING -1
SWIDTH 780 0
DWIDTH 8 0
BBX 8 14 0 0
BITMAP
002C
001D
00D7
007E
0000
01BF
0B55
1D0D
381C
742C
7038
7078
39B8
1F74
ENDCHAR
STARTCHAR uni1EB4.ss01
ENCODING -1
SWIDTH 780 0
DWIDTH 8 0
BBX 9 14 0 0
BITMAP
006640
005500
009200
007E00
000000
01BF00
0B5500
1D0D00
381C00
742C00
703800
707800
39B800
1F7400
ENDCHAR
STARTCHAR Acircumflex.ss01
ENCODING -1
SWIDTH 780 0
DWIDTH 8 0
BBX 8 13 0 0
BITMAP
002C
0079
0096
0000
01BF
0B55
1D0D
381C
742C
7038
7078
39B8
1F74
ENDCHAR
STARTCHAR uni1EA4.ss01
ENCODING -1
SWIDTH 780 0
DWIDTH 8 0
BBX 9 14 0 0
BITMAP
000040
000280
002D00
006600
000000
01BF00
0B5500
1D0D00
381C00
742C00
703800
707800
39B800
1F7400
ENDCHAR
STARTCHAR uni1EAC.ss01
ENCODING -1
SWIDTH 780 0
DWIDTH 8 0
BBX 8 15 0 -2
BITMAP
002C
0079
0096
0000
01BF
0B55
1D0D
381C
742C
7038
7078
39B8
1F74
0000
0340
ENDCHAR
STARTCHAR uni1EA6.ss01
ENCODING -1
SWIDTH 780 0
DWIDTH 8 0
BBX 8 14 0 0
BITMAP
0140
0180
002D
0066
0000
01BF
0B55
1D0D
381C
742C
7038
7078
39B8
1F74
ENDCHAR
STARTCHAR uni1EA8.ss01
ENCODING -1
SWIDTH 780 0
DWIDTH 8 0
BBX 10 13 0 0
BITMAP
0002C0
000090
002EC0
006A00
01BF00
0B5500
1D0D00
381C00
742C00
703800
707800
39B800
1F7400
ENDCHAR
STARTCHAR uni1EAA.ss01
ENCODING -1
SWIDTH 780 0
DWIDTH 8 0
BBX 8 14 0 0
BITMAP
007A
0059
002D
00A6
0000
01BF
0B55
1D0D
381C
742C
7038
7078
39B8
1F74
ENDCHAR
STARTCHAR uni0200.ss01
ENCODING -1
SWIDTH 780 0
DWIDTH 8 0
BBX 8 13 0 0
BITMAP
0044
00DC
0059
0000
01BF
0B55
1D0D
381C
742C
7038
7078
39B8
1F74
ENDCHAR
STARTCHAR Adieresis.ss01
ENCODING -1
SWIDTH 780 0
DWIDTH 8 0
BBX 8 11 0 0
BITMAP
00A6
0000
01BF
0B55
1D0D
381C
742C
7038
7078
39B8
1F74
ENDCHAR
STARTCHAR uni1EA0.ss01
ENCODING -1
SWIDTH 780 0
DWIDTH 8 0
BBX 8 11 0 -2
BITMAP
01BF
0B55
1D0D
381C
742C
7038
7078
39B8
1F74
0000
0340
ENDCHAR
STARTCHAR Agrave.ss01
ENCODING -1
SWIDTH 780 0
DWIDTH 8 0
BBX 8 13 0 0
BITMAP
0140
02D0
0060
0000
01BF
0B55
1D0D
381C
742C
7038
7078
39B8
1F74
ENDCHAR
STARTCHAR uni1EA2.ss01
ENCODING -1
SWIDTH 780 0
DWIDTH 8 0
BBX 8 13 0 0
BITMAP
002D
0009
001D
0000
01BF
0B55
1D0D
381C
742C
7038
7078
39B8
1F74
ENDCHAR
STARTCHAR uni0202.ss01
ENCODING -1
SWIDTH 780 0
DWIDTH 8 0
BBX 8 12 0 0
BITMAP
007E
00D7
0000
01BF
0B55
1D0D
381C
742C
7038
7078
39B8
1F74
ENDCHAR
STARTCHAR Amacron.ss01
ENCODING -1
SWIDTH 780 0
DWIDTH 8 0
BBX 8 11 0 0
BITMAP
007E
0000
01BF
0B55
1D0D
381C
742C
7038
7078
39B8
1F74
ENDCHAR
STARTCHAR Aogonek.ss01
ENCODING -1
SWIDTH 780 0
DWIDTH 8 0
BBX 8 12 0 -3
BITMAP
01BF
0B55
1D0D
381C
742C
7038
7078
39B8
1F74
0060
0090
007C
ENDCHAR
STARTCHAR Aring.ss01
ENCODING -1
SWIDTH 780 0
DWIDTH 8 0
BBX 8 13 0 0
BITMAP
002D
0039
003D
0000
01BF
0B55
1D0D
381C
742C
7038
7078
39B8
1F74
ENDCHAR
STARTCHAR Aringacute.ss01
ENCODING -1
SWIDTH 780 0
DWIDTH 8 0
BBX 10 14 0 0
BITMAP
0000A0
002D80
003900
003D00
000000
01BF00
0B5500
1D0D00
381C00
742C00
703800
707800
39B800
1F7400
ENDCHAR
STARTCHAR Atilde.ss01
ENCODING -1
SWIDTH 780 0
DWIDTH 8 0
BBX 9 12 0 0
BITMAP
007640
00DA00
000000
01BF00
0B5500
1D0D00
381C00
742C00
703800
707800
39B800
1F7400
ENDCHAR
STARTCHAR AE.ss01
ENCODING -1
SWIDTH 1057 0
DWIDTH 11 0
BBX 11 9 0 0
BITMAP
01B7F8
0B9A00
1D0D00
381D00
742FF0
702C00
707800
39ED54
1F8BF4
ENDCHAR
STARTCHAR AEacute.ss01
ENCODING -1
SWIDTH 1057 0
DWIDTH 11 0
BBX 11 13 0 0
BITMAP
000050
0001E0
000240
000000
01B7F8
0B9A00
1D0D00
381D00
742FF0
702C00
707800
39ED54
1F8BF4
ENDCHAR
STARTCHAR B.ss01
ENCODING -1
SWIDTH 826 0
DWIDTH 8 0
BBX 7 9 1 0
BITMAP
2FE0
157C
201C
7078
A3E0
A1B4
D034
D5B0
FF80
ENDCHAR
STARTCHAR C.ss01
ENCODING -1
SWIDTH 704 0
DWIDTH 7 0
BBX 7 9 0 0
BITMAP
06F4
1E6C
281C
3404
7400
7000
7404
2D6C
0BE0
ENDCHAR
STARTCHAR Cacute.ss01
ENCODING -1
SWIDTH 704 0
DWIDTH 7 0
BBX 8 13 0 0
BITMAP
0004
001D
0064
0000
06F4
1E6C
281C
3404
7400
7000
7404
2D6C
0BE0
ENDCHAR
STARTCHAR Ccaron.ss01
ENCODING -1
SWIDTH 704 0
DWIDTH 7 0
BBX 7 13 0 0
BITMAP
0144
01A8
00A0
0000
06F4
1E6C
281C
3404
7400
7000
7404
2D6C
0BE0
ENDCHAR
STARTCHAR Ccedilla.ss01
ENCODING -1
SWIDTH 704 0
DWIDTH 7 0
BBX 7 12 0 -3
BITMAP
06F4
1E6C
281C
3414
7400
7000
3400
2818
0BE0
01C0
01C0
0F40
ENDCHAR
STARTCHAR Ccircumflex.ss01
ENCODING -1
SWIDTH 704 0
DWIDTH 7 0
BBX 7 13 0 0
BITMAP
00B0
01E4
0258
0000
06F4
1E6C
281C
3404
7400
7000
7404
2D6C
0BE0
ENDCHAR
STARTCHAR Cdotaccent.ss01
ENCODING -1
SWIDTH 704 0
DWIDTH 7 0
BBX 7 11 0 0
BITMAP
00A0
0000
06F4
1E6C
281C
3404
7400
7000
7404
2D6C
0BE0
ENDCHAR
STARTCHAR D.ss01
ENCODING -1
SWIDTH 810 0
DWIDTH 8 0
BBX 7 9 1 0
BITMAP
2F90
55B4
2038
702C
A02C
A038
D074
D5E0
FE40
ENDCHAR
STARTCHAR uni01C4.ss01
ENCODING -1
SWIDTH 1455 0
DWIDTH 15 0
BBX 14 13 1 0
BITMAP
00000440
00000D80
00000700
00000000
2F90FFE0
55B401E0
203803C0
702C0B40
A02C1E00
A0383800
D074B000
D5E2D000
FE43FFD0
ENDCHAR
STARTCHAR Eth.ss01
ENCODING -1
SWIDTH 821 0
DWIDTH 8 0
BBX 8 9 0 0
BITMAP
07E4
0A6D
0D0A
1C07
BFC7
280A
381D
3578
3F90
ENDCHAR
STARTCHAR Dcaron.ss01
ENCODING -1
SWIDTH 810 0
DWIDTH 8 0
BBX 7 13 1 0
BITMAP
0450
09D0
0340
0000
2F90
55B4
2038
702C
A02C
A038
D074
D5E0
FE40
ENDCHAR
STARTCHAR Dcroat.ss01
ENCODING -1
SWIDTH 821 0
DWIDTH 8 0
BBX 8 9 0 0
BITMAP
07E4
0A6D
0D0A
1C07
BFC7
280A
381D
3578
3F90
ENDCHAR
STARTCHAR E.ss01
ENCODING -1
SWIDTH 720 0
DWIDTH 7 0
BBX 7 9 0 0
BITMAP
07F4
2D6C
381C
2C08
0F80
3900
B004
756C
2FE0
ENDCHAR
STARTCHAR Eacute.ss01
ENCODING -1
SWIDTH 720 0
DWIDTH 7 0
BBX 7 13 0 0
BITMAP
0004
002C
00A0
0000
07F4
2D6C
381C
2C08
0F80
3900
B004
756C
2FE0
ENDCHAR
STARTCHAR Ebreve.ss01
ENCODING -1
SWIDTH 720 0
DWIDTH 7 0
BBX 7 12 0 0
BITMAP
0218
02F4
0000
07F4
2D6C
381C
2C08
0F80
3900
B004
756C
2FE0
ENDCHAR
STARTCHAR Ecaron.ss01
ENCODING -1
SWIDTH 720 0
DWIDTH 7 0
BBX 7 13 0 0
BITMAP
0104
02A4
00E0
0000
07F4
2D6C
381C
2C08
0F80
3900
B004
756C
2FE0
ENDCHAR
STARTCHAR Ecircumflex.ss01
ENCODING -1
SWIDTH 720 0
DWIDTH 7 0
BBX 7 13 0 0
BITMAP
00A0
02B0
0324
0000
07F4
2D6C
381C
2C08
0F80
3900
B004
756C
2FE0
ENDCHAR
STARTCHAR uni1EBE.ss01
ENCODING -1
SWIDTH 720 0
DWIDTH 7 0
BBX 8 14 0 0
BITMAP
0001
0009
00A0
0264
0000
07F4
2D6C
381C
2C08
0F80
3900
B004
756C
2FE0
ENDCHAR
STARTCHAR uni1EC6.ss01
ENCODING -1
SWIDTH 720 0
DWIDTH 7 0
BBX 7 15 0 -2
BITMAP
00A0
02B0
0324
0000
07F4
2D6C
381C
2C08
0F80
3900
B004
756C
2FE0
0000
0700
ENDCHAR
STARTCHAR uni1EC0.ss01
ENCODING -1
SWIDTH 720 0
DWIDTH 7 0
BBX 7 14 0 0
BITMAP
0400
0A00
00A0
0264
0000
07F4
2D6C
381C
2C08
0F80
3900
B004
756C
2FE0
ENDCHAR
STARTCHAR uni1EC2.ss01
ENCODING -1
SWIDTH 720 0
DWIDTH 7 0
BBX 8 13 0 0
BITMAP
000E
0006
00AA
02B4
07F4
2D6C
381C
2C08
0F80
3900
B004
756C
2FE0
ENDCHAR
STARTCHAR uni1EC4.ss01
ENCODING -1
SWIDTH 720 0
DWIDTH 7 0
BBX 7 14 0 0
BITMAP
01D8
0164
01F0
0364
0000
07F4
2D6C
381C
2C08
0F80
3900
B004
756C
2FE0
ENDCHAR
STARTCHAR uni0204.ss01
ENCODING -1
SWIDTH 720 0
DWIDTH 7 0
BBX 7 13 0 0
BITMAP
0150
0760
0220
0000
07F4
2D6C
381C
2C08
0F80
3900
B004
756C
2FE0
ENDCHAR
STARTCHAR Edieresis.ss01
ENCODING -1
SWIDTH 720 0
DWIDTH 7 0
BBX 7 11 0 0
BITMAP
0364
0000
07F4
2D6C
381C
2C08
0F80
3900
B004
756C
2FE0
ENDCHAR
STARTCHAR Edotaccent.ss01
ENCODING -1
SWIDTH 720 0
DWIDTH 7 0
BBX 7 11 0 0
BITMAP
00D0
0000
07F4
2D6C
381C
2C08
0F80
3900
B004
756C
2FE0
ENDCHAR
STARTCHAR uni1EB8.ss01
ENCODING -1
SWIDTH 720 0
DWIDTH 7 0
BBX 7 11 0 -2
BITMAP
07F4
2D6C
381C
2C08
0F80
3900
B004
756C
2FE0
0000
0700
ENDCHAR
STARTCHAR Egrave.ss01
ENCODING -1
SWIDTH 720 0
DWIDTH 7 0
BBX 7 13 0 0
BITMAP
0400
0E00
0280
0000
07F4
2D6C
381C
2C08
0F80
3900
B004
756C
2FE0
ENDCHAR
STARTCHAR uni1EBA.ss01
ENCODING -1
SWIDTH 720 0
DWIDTH 7 0
BBX 7 13 0 0
BITMAP
00E0
0070
00A0
0000
07F4
2D6C
381C
2C08
0F80
3900
B004
756C
2FE0
ENDCHAR
STARTCHAR uni0206.ss01
ENCODING -1
SWIDTH 720 0
DWIDTH 7 0
BBX 7 12 0 0
BITMAP
01F4
0758
0000
07F4
2D6C
381C
2C08
0F80
3900
B004
756C
2FE0
ENDCHAR
STARTCHAR Emacron.ss01
ENCODING -1
SWIDTH 720 0
DWIDTH 7 0
BBX 7 11 0 0
BITMAP
02F4
0000
07F4
2D6C
381C
2C08
0F80
3900
B004
756C
2FE0
ENDCHAR
STARTCHAR Eogonek.ss01
ENCODING -1
SWIDTH 720 0
DWIDTH 7 0
BBX 7 12 0 -3
BITMAP
07F4
2D6C
381C
2C08
0F80
3900
B000
756C
2FF4
0280
0340
02E0
ENDCHAR
STARTCHAR uni1EBC.ss01
ENCODING -1
SWIDTH 720 0
DWIDTH 7 0
BBX 7 12 0 0
BITMAP
0298
0674
0000
07F4
2D6C
381C
2C08
0F80
3900
B004
756C
2FE0
ENDCHAR
STARTCHAR F.ss01
ENCODING -1
SWIDTH 671 0
DWIDTH 7 0
BBX 8 9 0 0
BITMAP
3FFD
0A00
0E00
0D00
7FF0
1D00
2C00
2800
2800
ENDCHAR
STARTCHAR G.ss01
ENCODING -1
SWIDTH 811 0
DWIDTH 8 0
BBX 8 12 0 -3
BITMAP
02F4
1E5D
280D
3404
7400
747D
340A
2D5D
0BFD
000C
001C
0004
ENDCHAR
STARTCHAR Gbreve.ss01
ENCODING -1
SWIDTH 811 0
DWIDTH 8 0
BBX 8 15 0 -3
BITMAP
0248
01F8
0000
02F4
1E5D
280D
3404
7400
747D
340A
2D5D
0BFD
000C
001C
0004
ENDCHAR
STARTCHAR Gcaron.ss01
ENCODING -1
SWIDTH 811 0
DWIDTH 8 0
BBX 8 16 0 -3
BITMAP
0044
01D8
00A0
0000
02F4
1E5D
280D
3404
7400
747D
340A
2D5D
0BFD
000C
001C
0004
ENDCHAR
STARTCHAR Gcircumflex.ss01
ENCODING -1
SWIDTH 811 0
DWIDTH 8 0
BBX 8 16 0 -3
BITMAP
0070
01E4
0258
0000
02F4
1E5D
280D
3404
7400
747D
340A
2D5D
0BFD
000C
001C
0004
ENDCHAR
STARTCHAR uni0122.ss01
ENCODING -1
SWIDTH 811 0
DWIDTH 8 0
BBX 8 12 0 -3
BITMAP
02F4
1E5D
280D
3404
7400
747D
340A
2D5D
0BFD
000C
029C
0244
ENDCHAR
STARTCHAR Gdotaccent.ss01
ENCODING -1
SWIDTH 811 0
DWIDTH 8 0
BBX 8 14 0 -3
BITMAP
00B0
0000
02F4
1E5D
280D
3404
7400
747D
340A
2D5D
0BFD
000C
001C
0004
ENDCHAR
STARTCHAR H.ss01
ENCODING -1
SWIDTH 846 0
DWIDTH 8 0
BBX 9 9 0 0
BITMAP
0D0600
0D0B00
1D0A00
1C0A00
7FFF40
281D00
381C00
341C00
341800
ENDCHAR
STARTCHAR Hbar.ss01
ENCODING -1
SWIDTH 856 0
DWIDTH 9 0
BBX 9 9 0 0
BITMAP
0D0700
3FFF80
1D0A00
1C0A00
7FFF40
281D00
281D00
341C00
341800
ENDCHAR
STARTCHAR Hcircumflex.ss01
ENCODING -1
SWIDTH 846 0
DWIDTH 8 0
BBX 9 13 0 0
BITMAP
007400
00E800
019800
000000
0D0600
0D0B00
1D0A00
1C0A00
7FFF40
281D00
381C00
341C00
341800
ENDCHAR
STARTCHAR I.ss01
ENCODING -1
SWIDTH 357 0
DWIDTH 4 0
BBX 3 9 1 0
BITMAP
34
70
70
B0
A0
E0
D0
D0
C0
ENDCHAR
STARTCHAR Iacute.ss01
ENCODING -1
SWIDTH 357 0
DWIDTH 4 0
BBX 4 13 1 0
BITMAP
01
0B
28
00
34
70
70
B0
A0
E0
D0
D0
C0
ENDCHAR
STARTCHAR Iacute_J.loclNLD.ss01
ENCODING -1
SWIDTH 776 0
DWIDTH 8 0
BBX 9 13 1 0
BITMAP
010100
0B0740
281900
000000
702400
B03400
A07400
A0B000
A1F000
7FB000
04A000
95D000
BE4000
ENDCHAR
STARTCHAR Ibreve.ss01
ENCODING -1
SWIDTH 357 0
DWIDTH 4 0
BBX 4 12 1 0
BITMAP
86
BD
00
34
70
70
B0
A0
E0
D0
D0
C0
ENDCHAR
STARTCHAR Icircumflex.ss01
ENCODING -1
SWIDTH 357 0
DWIDTH 4 0
BBX 4 13 1 0
BITMAP
28
AC
D9
00
34
70
70
B0
A0
E0
D0
D0
C0
ENDCHAR
STARTCHAR uni0208.ss01
ENCODING -1
SWIDTH 357 0
DWIDTH 4 0
BBX 4 13 0 0
BITMAP
11
76
26
00
0D
1C
1C
2C
28
38
34
34
30
ENDCHAR
STARTCHAR Idieresis.ss01
ENCODING -1
SWIDTH 357 0
DWIDTH 4 0
BBX 4 11 1 0
BITMAP
99
00
34
70
70
B0
A0
E0
D0
D0
C0
ENDCHAR
STARTCHAR Idotaccent.ss01
ENCODING -1
SWIDTH 357 0
DWIDTH 4 0
BBX 3 11 1 0
BITMAP
38
00
34
70
70
B0
A0
E0
D0
D0
C0
ENDCHAR
STARTCHAR uni1ECA.ss01
ENCODING -1
SWIDTH 357 0
DWIDTH 4 0
BBX 4 11 0 -2
BITMAP
0D
1C
1C
2C
28
38
34
34
30
00
70
ENDCHAR
STARTCHAR Igrave.ss01
ENCODING -1
SWIDTH 357 0
DWIDTH 4 0
BBX 4 13 0 0
BITMAP
40
F0
18
00
0D
1C
1C
2C
28
38
34
34
30
ENDCHAR
STARTCHAR uni1EC8.ss01
ENCODING -1
SWIDTH 357 0
DWIDTH 4 0
BBX 4 13 1 0
BITMAP
38
1D
2C
00
34
70
70
B0
A0
E0
D0
D0
C0
ENDCHAR
STARTCHAR uni020A.ss01
ENCODING -1
SWIDTH 357 0
DWIDTH 4 0
BBX 4 12 1 0
BITMAP
7D
D7
00
34
70
70
B0
A0
E0
D0
D0
C0
ENDCHAR
STARTCHAR Imacron.ss01
ENCODING -1
SWIDTH 357 0
DWIDTH 4 0
BBX 4 11 1 0
BITMAP
BD
00
34
70
70
B0
A0
E0
D0
D0
C0
ENDCHAR
STARTCHAR Iogonek.ss01
ENCODING -1
SWIDTH 357 0
DWIDTH 4 0
BBX 4 12 0 -3
BITMAP
0C
1D
1C
1C
28
28
34
34
74
60
90
78
ENDCHAR
STARTCHAR Itilde.ss01
ENCODING -1
SWIDTH 357 0
DWIDTH 4 0
BBX 5 12 0 0
BITMAP
29C0
6740
0000
0D00
1C00
1C00
2C00
2800
3800
3400
3400
3000
ENDCHAR
STARTCHAR J.ss01
ENCODING -1
SWIDTH 716 0
DWIDTH 7 0
BBX 7 9 0 0
BITMAP
1BF8
3928
7038
2034
0034
0070
1060
35D0
1F80
ENDCHAR
STARTCHAR Jcircumflex.ss01
ENCODING -1
SWIDTH 716 0
DWIDTH 7 0
BBX 7 13 0 0
BITMAP
00E0
02B0
0324
0000
1BF8
3928
7038
2034
0034
0070
1060
35D0
1F80
ENDCHAR
STARTCHAR K.ss01
ENCODING -1
SWIDTH 779 0
DWIDTH 8 0
BBX 8 9 0 0
BITMAP
0D0A
1D0D
1C28
1CB0
7F80
3AD0
34E0
3474
342E
ENDCHAR
STARTCHAR uni0136.ss01
ENCODING -1
SWIDTH 779 0
DWIDTH 8 0
BBX 8 12 0 -3
BITMAP
0D0A
1D0D
1C28
1CB0
7F80
3AD0
34E0
3474
342E
0000
0300
0200
ENDCHAR
STARTCHAR L.ss01
ENCODING -1
SWIDTH 625 0
DWIDTH 6 0
BBX 5 9 1 0
BITMAP
3000
7000
7000
B000
A000
E000
D000
E540
FFC0
ENDCHAR
STARTCHAR uni01C7.ss01
ENCODING -1
SWIDTH 1291 0
DWIDTH 13 0
BBX 12 9 1 0
BITMAP
3006FE
701D5E
70180D
B0181C
A0001C
E0002C
D00428
E55D74
FFCBD0
ENDCHAR
STARTCHAR Lacute.ss01
ENCODING -1
SWIDTH 625 0
DWIDTH 6 0
BBX 5 13 1 0
BITMAP
0100
0B00
2800
0000
3000
7000
7000
B000
A000
E000
D000
E540
FFC0
ENDCHAR
STARTCHAR Lcaron.ss01
ENCODING -1
SWIDTH 625 0
DWIDTH 6 0
BBX 5 9 1 0
BITMAP
3040
70C0
7180
B000
A000
E000
D000
E540
FFC0
ENDCHAR
STARTCHAR uni013B.ss01
ENCODING -1
SWIDTH 625 0
DWIDTH 6 0
BBX 5 12 1 -3
BITMAP
3000
7000
7000
B000
A000
E000
D000
E540
FFC0
0000
1C00
1800
ENDCHAR
STARTCHAR Ldot.ss01
ENCODING -1
SWIDTH 625 0
DWIDTH 6 0
BBX 5 9 1 0
BITMAP
3000
7000
7000
B000
A280
E000
D000
E540
FFC0
ENDCHAR
STARTCHAR uni01C8.ss01
ENCODING -1
SWIDTH 854 0
DWIDTH 9 0
BBX 8 14 1 -5
BITMAP
3000
7000
700A
B000
A009
E00D
D00C
E55C
FFD8
0038
00B4
0270
0360
02D0
ENDCHAR
STARTCHAR Lslash.ss01
ENCODING -1
SWIDTH 625 0
DWIDTH 6 0
BBX 6 9 0 0
BITMAP
0C00
1C00
1DC0
2E40
B800
7800
3400
3950
3FF0
ENDCHAR
STARTCHAR M.ss01
ENCODING -1
SWIDTH 1139 0
DWIDTH 11 0
BBX 10 9 1 0
BITMAP
32D2D0
79A9B0
7878B0
B4B4A0
B0B0E0
E0E0D0
D0D1D0
D0D1C0
C0C1C0
ENDCHAR
STARTCHAR N.ss01
ENCODING -1
SWIDTH 799 0
DWIDTH 8 0
BBX 7 9 1 0
BITMAP
32F0
7A74
7834
B434
B070
E070
D0B0
D0A0
C0A0
ENDCHAR
STARTCHAR uni01CA.ss01
ENCODING -1
SWIDTH 1515 0
DWIDTH 15 0
BBX 14 9 1 0
BITMAP
32F06FE0
7A74E4A0
7835C0E0
B43480D0
B07000D0
E07001C0
D0B04280
D0A1D740
C0A07E00
ENDCHAR
STARTCHAR Nacute.ss01
ENCODING -1
SWIDTH 799 0
DWIDTH 8 0
BBX 7 13 1 0
BITMAP
0010
00B4
0190
0000
32F0
7A74
7834
B434
B070
E070
D0B0
D0A0
C0A0
ENDCHAR
STARTCHAR Ncaron.ss01
ENCODING -1
SWIDTH 799 0
DWIDTH 8 0
BBX 7 13 1 0
BITMAP
0510
0690
0280
0000
32F0
7A74
7834
B434
B070
E070
D0B0
D0A0
C0A0
ENDCHAR
STARTCHAR uni0145.ss01
ENCODING -1
SWIDTH 799 0
DWIDTH 8 0
BBX 7 12 1 -3
BITMAP
32F0
7A74
7834
B434
B070
E070
D0B0
D0A0
C0A0
0000
0C00
0800
ENDCHAR
STARTCHAR Eng.ss01
ENCODING -1
SWIDTH 792 0
DWIDTH 8 0
BBX 7 13 1 -4
BITMAP
32E0
7A74
7834
B474
B070
E0B0
D0A0
D0D0
C1D0
01C0
0280
D340
7D00
ENDCHAR
STARTCHAR uni01CB.ss01
ENCODING -1
SWIDTH 1008 0
DWIDTH 10 0
BBX 10 14 1 -5
BITMAP
32F000
7A7400
7835D0
B43400
B07180
E07180
D0B280
D0A280
C0A240
000740
001B00
002600
006900
007800
ENDCHAR
STARTCHAR Ntilde.ss01
ENCODING -1
SWIDTH 799 0
DWIDTH 8 0
BBX 7 12 1 0
BITMAP
0B60
09E0
0000
32F0
7A74
7834
B434
B070
E070
D0B0
D0A0
C0A0
ENDCHAR
STARTCHAR OE.ss01
ENCODING -1
SWIDTH 1166 0
DWIDTH 12 0
BBX 12 9 0 0
BITMAP
06F5FE
1E5F80
280B40
340B40
700BFC
700B00
740F00
2D6F95
0BE1FD
ENDCHAR
STARTCHAR P.ss01
ENCODING -1
SWIDTH 662 0
DWIDTH 7 0
BBX 7 9 0 0
BITMAP
1FD0
2E74
0D28
1C38
1CB0
7F90
2800
3800
3400
ENDCHAR
STARTCHAR Thorn.ss01
ENCODING -1
SWIDTH 658 0
DWIDTH 7 0
BBX 7 9 0 0
BITMAP
0D00
1FD0
2DB4
1C34
1C34
28B0
7F80
3800
3400
ENDCHAR
STARTCHAR Q.ss01
ENCODING -1
SWIDTH 816 0
DWIDTH 8 0
BBX 8 12 0 -3
BITMAP
06F4
1E5D
280B
340B
700B
700A
741D
2EB8
0BD0
00E0
0074
0024
ENDCHAR
STARTCHAR R.ss01
ENCODING -1
SWIDTH 744 0
DWIDTH 7 0
BBX 7 9 1 0
BITMAP
BF80
75D0
74E0
72C0
FE00
AB00
E740
D2D0
D0F4
ENDCHAR
STARTCHAR Racute.ss01
ENCODING -1
SWIDTH 744 0
DWIDTH 7 0
BBX 7 13 1 0
BITMAP
0010
01E0
0240
0000
BF80
75D0
74E0
72C0
FE00
AB00
E740
D2D0
D0F4
ENDCHAR
STARTCHAR Rcaron.ss01
ENCODING -1
SWIDTH 744 0
DWIDTH 7 0
BBX 7 13 1 0
BITMAP
0440
0DC0
0740
0000
BF80
75D0
74E0
72C0
FE00
AB00
E740
D2D0
D0F4
ENDCHAR
STARTCHAR uni0156.ss01
ENCODING -1
SWIDTH 744 0
DWIDTH 7 0
BBX 7 12 1 -3
BITMAP
BF80
75D0
74E0
72C0
FE00
AB00
E740
D2D0
D0F4
0000
0C00
0800
ENDCHAR
STARTCHAR uni0210.ss01
ENCODING -1
SWIDTH 744 0
DWIDTH 7 0
BBX 7 13 1 0
BITMAP
1100
2740
1940
0000
BF80
75D0
74E0
72C0
FE00
AB00
E740
D2D0
D0F4
ENDCHAR
STARTCHAR uni0212.ss01
ENCODING -1
SWIDTH 744 0
DWIDTH 7 0
BBX 7 12 1 0
BITMAP
0B80
2990
0000
BF80
75D0
74E0
72C0
FE00
AB00
E740
D2D0
D0F4
ENDCHAR
STARTCHAR T.ss01
ENCODING -1
SWIDTH 631 0
DWIDTH 6 0
BBX 8 9 0 0
BITMAP
7FFD
1780
0340
0340
0700
0700
0A00
0A00
0900
ENDCHAR
STARTCHAR Tbar.ss01
ENCODING -1
SWIDTH 631 0
DWIDTH 6 0
BBX 8 9 0 0
BITMAP
7FFD
1780
0340
0340
3FE0
0B00
0A00
0A00
0900
ENDCHAR
STARTCHAR Tcaron.ss01
ENCODING -1
SWIDTH 631 0
DWIDTH 6 0
BBX 8 13 0 0
BITMAP
0110
0360
01C0
0000
7FFD
1780
0340
0340
0700
0700
0A00
0A00
0900
ENDCHAR
STARTCHAR uni0162.ss01
ENCODING -1
SWIDTH 631 0
DWIDTH 6 0
BBX 8 11 0 -2
BITMAP
7FFD
1780
0340
0740
0700
0B00
0A00
0A00
1E00
0700
2E00
ENDCHAR
STARTCHAR uni021A.ss01
ENCODING -1
SWIDTH 631 0
DWIDTH 6 0
BBX 8 12 0 -3
BITMAP
7FFD
1780
0340
0340
0700
0700
0A00
0A00
0900
0000
0900
0800
ENDCHAR
STARTCHAR U.ss01
ENCODING -1
SWIDTH 800 0
DWIDTH 8 0
BBX 7 9 1 0
BITMAP
3428
7438
7034
B074
A0B4
E0F0
D1F0
EBA0
B9A0
ENDCHAR
STARTCHAR Uacute.ss01
ENCODING -1
SWIDTH 800 0
DWIDTH 8 0
BBX 7 13 1 0
BITMAP
0010
0074
0190
0000
3428
7438
7034
B074
A0B4
E0F0
D1F0
EBA0
B9A0
ENDCHAR
STARTCHAR Ubreve.ss01
ENCODING -1
SWIDTH 800 0
DWIDTH 8 0
BBX 7 12 1 0
BITMAP
0920
0BE0
0000
3428
7438
7034
B074
A0B4
E0F0
D1F0
EBA0
B9A0
ENDCHAR
STARTCHAR Ucircumflex.ss01
ENCODING -1
SWIDTH 800 0
DWIDTH 8 0
BBX 7 13 1 0
BITMAP
02C0
0790
0960
0000
3428
7438
7034
B074
A0B4
E0F0
D1F0
EBA0
B9A0
ENDCHAR
STARTCHAR uni0214.ss01
ENCODING -1
SWIDTH 800 0
DWIDTH 8 0
BBX 7 13 1 0
BITMAP
0440
0DC0
0980
0000
3428
7438
7034
B074
A0B4
E0F0
D1F0
EBA0
B9A0
ENDCHAR
STARTCHAR Udieresis.ss01
ENCODING -1
SWIDTH 800 0
DWIDTH 8 0
BBX 7 11 1 0
BITMAP
0AA0
0000
3428
7438
7034
B074
A0B4
E0F0
D1F0
EBA0
B9A0
ENDCHAR
STARTCHAR uni1EE4.ss01
ENCODING -1
SWIDTH 800 0
DWIDTH 8 0
BBX 7 11 1 -2
BITMAP
3428
7438
7034
B074
A0B4
E0F0
D1F0
EBA0
B9A0
0000
0D00
ENDCHAR
STARTCHAR Ugrave.ss01
ENCODING -1
SWIDTH 800 0
DWIDTH 8 0
BBX 7 13 1 0
BITMAP
1000
2D00
0600
0000
3428
7438
7034
B074
A0B4
E0F0
D1F0
EBA0
B9A0
ENDCHAR
STARTCHAR uni1EE6.ss01
ENCODING -1
SWIDTH 800 0
DWIDTH 8 0
BBX 7 13 1 0
BITMAP
02C0
0090
02C0
0000
3428
7438
7034
B074
A0B4
E0F0
D1F0
EBA0
B9A0
ENDCHAR
STARTCHAR Uhorn.ss01
ENCODING -1
SWIDTH 800 0
DWIDTH 8 0
BBX 8 11 1 0
BITMAP
0001
0003
342E
7438
7034
B074
A0B4
E0F0
D1F0
EBA0
B9A0
ENDCHAR
STARTCHAR uni1EE8.ss01
ENCODING -1
SWIDTH 800 0
DWIDTH 8 0
BBX 8 13 1 0
BITMAP
0010
0074
0191
0003
342E
7438
7034
B074
A0B4
E0F0
D1F0
EBA0
B9A0
ENDCHAR
STARTCHAR uni1EF0.ss01
ENCODING -1
SWIDTH 800 0
DWIDTH 8 0
BBX 8 13 1 -2
BITMAP
0001
0003
342E
7438
7034
B074
A0B4
E0F0
D1F0
EBA0
B9A0
0000
0D00
ENDCHAR
STARTCHAR uni1EEA.ss01
ENCODING -1
SWIDTH 800 0
DWIDTH 8 0
BBX 8 13 1 0
BITMAP
1000
2D00
0601
0003
342E
7438
7034
B074
A0B4
E0F0
D1F0
EBA0
B9A0
ENDCHAR
STARTCHAR uni1EEC.ss01
ENCODING -1
SWIDTH 800 0
DWIDTH 8 0
BBX 8 13 1 0
BITMAP
02C0
0090
02C1
0003
342E
7438
7034
B074
A0B4
E0F0
D1F0
EBA0
B9A0
ENDCHAR
STARTCHAR uni1EEE.ss01
ENCODING -1
SWIDTH 800 0
DWIDTH 8 0
BBX 8 12 1 0
BITMAP
0B60
0DE1
0003
342E
7438
7034
B074
A0B4
E0F0
D1F0
EBA0
B9A0
ENDCHAR
STARTCHAR Uhungarumlaut.ss01
ENCODING -1
SWIDTH 800 0
DWIDTH 8 0
BBX 7 13 1 0
BITMAP
0110
0370
0650
0000
3428
7438
7034
B074
A0B4
E0F0
D1F0
EBA0
B9A0
ENDCHAR
STARTCHAR uni0216.ss01
ENCODING -1
SWIDTH 800 0
DWIDTH 8 0
BBX 7 12 1 0
BITMAP
07D0
0D70
0000
3428
7438
7034
B074
A0B4
E0F0
D1F0
EBA0
B9A0
ENDCHAR
STARTCHAR Umacron.ss01
ENCODING -1
SWIDTH 800 0
DWIDTH 8 0
BBX 7 11 1 0
BITMAP
0BD0
0000
3428
7438
7034
B074
A0B4
E0F0
D1F0
EBA0
B9A0
ENDCHAR
STARTCHAR Uogonek.ss01
ENCODING -1
SWIDTH 800 0
DWIDTH 8 0
BBX 7 12 1 -3
BITMAP
3428
7438
7038
B074
A0B4
E0F0
D1F0
EBB0
B9A0
00D0
01C0
00F4
ENDCHAR
STARTCHAR Uring.ss01
ENCODING -1
SWIDTH 800 0
DWIDTH 8 0
BBX 7 13 1 0
BITMAP
02C0
0690
03C0
0000
3428
7438
7034
B074
A0B4
E0F0
D1F0
EBA0
B9A0
ENDCHAR
STARTCHAR Utilde.ss01
ENCODING -1
SWIDTH 800 0
DWIDTH 8 0
BBX 7 12 1 0
BITMAP
0B60
0DE0
0000
3428
7438
7034
B074
A0B4
E0F0
D1F0
EBA0
B9A0
ENDCHAR
STARTCHAR V.ss01
ENCODING -1
SWIDTH 797 0
DWIDTH 8 0
BBX 7 9 1 0
BITMAP
601C
B02C
A028
A034
A070
A0A0
B1D0
7B80
2E00
ENDCHAR
STARTCHAR W.ss01
ENCODING -1
SWIDTH 1236 0
DWIDTH 12 0
BBX 12 9 1 0
BITMAP
602809
B0380D
A0741C
A0742C
A0B438
A0F470
A2A4A0
7B6EC0
2D0F40
ENDCHAR
STARTCHAR Wacute.ss01
ENCODING -1
SWIDTH 1236 0
DWIDTH 12 0
BBX 12 13 1 0
BITMAP
000140
000740
000900
000000
602809
B0380D
A0741C
A0742C
A0B438
A0F470
A2A4A0
7B6EC0
2D0F40
ENDCHAR
STARTCHAR Wcircumflex.ss01
ENCODING -1
SWIDTH 1236 0
DWIDTH 12 0
BBX 12 13 1 0
BITMAP
001C00
003A00
00A600
000000
602809
B0380D
A0741C
A0742C
A0B438
A0F470
A2A4A0
7B6EC0
2D0F40
ENDCHAR
STARTCHAR Wdieresis.ss01
ENCODING -1
SWIDTH 1236 0
DWIDTH 12 0
BBX 12 11 1 0
BITMAP
006600
000000
602809
B0380D
A0741C
A0742C
A0B438
A0F470
A2A4A0
7B6EC0
2D0F40
ENDCHAR
STARTCHAR Wgrave.ss01
ENCODING -1
SWIDTH 1236 0
DWIDTH 12 0
BBX 12 13 1 0
BITMAP
014000
01D000
006400
000000
602809
B0380D
A0741C
A0742C
A0B438
A0F470
A2A4A0
7B6EC0
2D0F40
ENDCHAR
STARTCHAR X.ss01
ENCODING -1
SWIDTH 677 0
DWIDTH 7 0
BBX 9 9 -1 0
BITMAP
0A0340
074A00
02AC00
01F400
01E000
03F000
0E3400
2C2C00
741C00
ENDCHAR
STARTCHAR Y.ss01
ENCODING -1
SWIDTH 776 0
DWIDTH 8 0
BBX 7 9 1 0
BITMAP
7024
B034
A074
A0B0
A1F0
7FB0
04A0
95D0
BE40
ENDCHAR
STARTCHAR Yacute.ss01
ENCODING -1
SWIDTH 776 0
DWIDTH 8 0
BBX 7 13 1 0
BITMAP
0010
00B0
0280
0000
7024
B034
A074
A0B0
A1F0
7FB0
04A0
95D0
BE40
ENDCHAR
STARTCHAR Ycircumflex.ss01
ENCODING -1
SWIDTH 776 0
DWIDTH 8 0
BBX 7 13 1 0
BITMAP
0280
0AC0
0C90
0000
7024
B034
A074
A0B0
A1F0
7FB0
04A0
95D0
BE40
ENDCHAR
STARTCHAR Ydieresis.ss01
ENCODING -1
SWIDTH 776 0
DWIDTH 8 0
BBX 7 11 1 0
BITMAP
0D90
0000
7024
B034
A074
A0B0
A1F0
7FB0
04A0
95D0
BE40
ENDCHAR
STARTCHAR uni1EF4.ss01
ENCODING -1
SWIDTH 776 0
DWIDTH 8 0
BBX 7 11 1 -2
BITMAP
7024
B034
A074
A0B0
A1F0
7FB0
04A0
95D0
BE40
0000
1C00
ENDCHAR
STARTCHAR Ygrave.ss01
ENCODING -1
SWIDTH 776 0
DWIDTH 8 0
BBX 7 13 1 0
BITMAP
1000
3800
0A00
0000
7024
B034
A074
A0B0
A1F0
7FB0
04A0
95D0
BE40
ENDCHAR
STARTCHAR uni1EF6.ss01
ENCODING -1
SWIDTH 776 0
DWIDTH 8 0
BBX 7 13 1 0
BITMAP
0380
01C0
0280
0000
7024
B034
A074
A0B0
A1F0
7FB0
04A0
95D0
BE40
ENDCHAR
STARTCHAR uni0232.ss01
ENCODING -1
SWIDTH 776 0
DWIDTH 8 0
BBX 7 11 1 0
BITMAP
0FC0
0000
7024
B034
A074
A0B0
A1F0
7FB0
04A0
95D0
BE40
ENDCHAR
STARTCHAR uni1EF8.ss01
ENCODING -1
SWIDTH 776 0
DWIDTH 8 0
BBX 7 12 1 0
BITMAP
0A60
19D0
0000
7024
B034
A074
A0B0
A1F0
7FB0
04A0
95D0
BE40
ENDCHAR
STARTCHAR Z.ss01
ENCODING -1
SWIDTH 665 0
DWIDTH 7 0
BBX 7 9 0 0
BITMAP
3FF8
0078
00B0
01D0
0780
0F00
2D00
7800
BFF4
ENDCHAR
STARTCHAR Zacute.ss01
ENCODING -1
SWIDTH 665 0
DWIDTH 7 0
BBX 7 13 0 0
BITMAP
0004
0078
0090
0000
3FF8
0078
00B0
01D0
0780
0F00
2D00
7800
BFF4
ENDCHAR
STARTCHAR Zcaron.ss01
ENCODING -1
SWIDTH 665 0
DWIDTH 7 0
BBX 7 13 0 0
BITMAP
0110
0370
01D0
0000
3FF8
0078
00B0
01D0
0780
0F00
2D00
7800
BFF4
ENDCHAR
STARTCHAR Zdotaccent.ss01
ENCODING -1
SWIDTH 665 0
DWIDTH 7 0
BBX 7 11 0 0
BITMAP
01C0
0000
3FF8
0078
00B0
01D0
0780
0F00
2D00
7800
BFF4
ENDCHAR
STARTCHAR i.loclTRK
ENCODING -1
SWIDTH 246 0
DWIDTH 2 0
BBX 4 7 0 0
BITMAP
34
00
30
70
61
66
78
ENDCHAR
STARTCHAR a.fina
ENCODING -1
SWIDTH 458 0
DWIDTH 5 0
BBX 5 5 0 0
BITMAP
1F40
7740
A300
AB00
7B00
ENDCHAR
STARTCHAR aacute.fina
ENCODING -1
SWIDTH 458 0
DWIDTH 5 0
BBX 5 10 0 0
BITMAP
0040
0180
0340
0200
0000
1F40
7740
A300
AB00
7B00
ENDCHAR
STARTCHAR abreve.fina
ENCODING -1
SWIDTH 458 0
DWIDTH 5 0
BBX 5 9 0 0
BITMAP
1000
28C0
1F80
0000
1F40
7740
A300
AB00
7B00
ENDCHAR
STARTCHAR uni1EAF.fina
ENCODING -1
SWIDTH 458 0
DWIDTH 5 0
BBX 6 9 0 0
BITMAP
0180
2590
1F80
0000
1F40
7740
A300
AB00
7B00
ENDCHAR
STARTCHAR uni1EB7.fina
ENCODING -1
SWIDTH 458 0
DWIDTH 5 0
BBX 5 11 0 -2
BITMAP
1000
28C0
1F80
0000
1F40
7740
A300
AB00
7B00
0000
2800
ENDCHAR
STARTCHAR uni1EB1.fina
ENCODING -1
SWIDTH 458 0
DWIDTH 5 0
BBX 5 9 0 0
BITMAP
0D00
2580
1F80
0000
1F40
7740
A300
AB00
7B00
ENDCHAR
STARTCHAR uni1EB3.fina
ENCODING -1
SWIDTH 458 0
DWIDTH 5 0
BBX 6 10 0 0
BITMAP
0B40
0740
25D0
1F80
0000
1F40
7740
A300
AB00
7B00
ENDCHAR
STARTCHAR uni1EB5.fina
ENCODING -1
SWIDTH 458 0
DWIDTH 5 0
BBX 6 10 0 0
BITMAP
0A50
1540
2490
1F80
0000
1F40
7740
A300
AB00
7B00
ENDCHAR
STARTCHAR acircumflex.fina
ENCODING -1
SWIDTH 458 0
DWIDTH 5 0
BBX 5 10 0 0
BITMAP
0100
0B40
0E80
2580
0000
1F40
7740
A300
AB00
7B00
ENDCHAR
STARTCHAR uni1EA5.fina
ENCODING -1
SWIDTH 458 0
DWIDTH 5 0
BBX 6 10 0 0
BITMAP
0010
0060
0B40
1980
0000
1F40
7740
A300
AB00
7B00
ENDCHAR
STARTCHAR uni1EAD.fina
ENCODING -1
SWIDTH 458 0
DWIDTH 5 0
BBX 5 12 0 -2
BITMAP
0100
0B40
0E80
2580
0000
1F40
7740
A300
AB00
7B00
0000
2800
ENDCHAR
STARTCHAR uni1EA7.fina
ENCODING -1
SWIDTH 458 0
DWIDTH 5 0
BBX 5 10 0 0
BITMAP
1000
6400
0B40
1980
0000
1F40
7740
A300
AB00
7B00
ENDCHAR
STARTCHAR uni1EA9.fina
ENCODING -1
SWIDTH 458 0
DWIDTH 5 0
BBX 7 9 0 0
BITMAP
00B0
0024
0BB0
1E80
1F40
7740
A300
AB00
7B00
ENDCHAR
STARTCHAR uni1EAB.fina
ENCODING -1
SWIDTH 458 0
DWIDTH 5 0
BBX 6 10 0 0
BITMAP
0E90
1640
0B40
1980
0000
1F40
7740
A300
AB00
7B00
ENDCHAR
STARTCHAR uni0201.fina
ENCODING -1
SWIDTH 458 0
DWIDTH 5 0
BBX 5 10 0 0
BITMAP
1100
7700
2700
1540
0000
1F40
7740
A300
AB00
7B00
ENDCHAR
STARTCHAR adieresis.fina
ENCODING -1
SWIDTH 458 0
DWIDTH 5 0
BBX 5 7 0 0
BITMAP
1980
0000
1F40
7740
A300
AB00
7B00
ENDCHAR
STARTCHAR uni1EA1.fina
ENCODING -1
SWIDTH 458 0
DWIDTH 5 0
BBX 5 7 0 -2
BITMAP
1F40
7740
A300
AB00
7B00
0000
2800
ENDCHAR
STARTCHAR agrave.fina
ENCODING -1
SWIDTH 458 0
DWIDTH 5 0
BBX 5 10 0 0
BITMAP
1000
2800
0C00
0500
0000
1F40
7740
A300
AB00
7B00
ENDCHAR
STARTCHAR uni1EA3.fina
ENCODING -1
SWIDTH 458 0
DWIDTH 5 0
BBX 5 9 0 0
BITMAP
0B40
0280
0740
0000
1F40
7740
A300
AB00
7B00
ENDCHAR
STARTCHAR uni0203.fina
ENCODING -1
SWIDTH 458 0
DWIDTH 5 0
BBX 5 8 0 0
BITMAP
0B40
29C0
1040
1F40
7740
A300
AB00
7B00
ENDCHAR
STARTCHAR amacron.fina
ENCODING -1
SWIDTH 458 0
DWIDTH 5 0
BBX 5 7 0 0
BITMAP
1F80
0000
1F40
7740
A300
AB00
7B00
ENDCHAR
STARTCHAR aogonek.fina
ENCODING -1
SWIDTH 458 0
DWIDTH 5 0
BBX 5 8 0 -3
BITMAP
1E00
7740
A300
AB00
7B00
0A00
0900
0780
ENDCHAR
STARTCHAR aring.fina
ENCODING -1
SWIDTH 458 0
DWIDTH 5 0
BBX 5 9 0 0
BITMAP
0B40
0E80
0B40
0000
1F40
7740
A300
AB00
7B00
ENDCHAR
STARTCHAR aringacute.fina
ENCODING -1
SWIDTH 458 0
DWIDTH 5 0
BBX 7 10 0 0
BITMAP
0014
0B64
0E80
0B40
0000
1F40
7740
A300
AB00
7B00
ENDCHAR
STARTCHAR atilde.fina
ENCODING -1
SWIDTH 458 0
DWIDTH 5 0
BBX 6 8 0 0
BITMAP
1D90
2680
0000
1F40
7740
A300
AB00
7B00
ENDCHAR
STARTCHAR ae.fina
ENCODING -1
SWIDTH 671 0
DWIDTH 7 0
BBX 7 5 0 0
BITMAP
1EB4
76A4
A3B0
AB98
79F4
ENDCHAR
STARTCHAR aeacute.fina
ENCODING -1
SWIDTH 671 0
DWIDTH 7 0
BBX 7 10 0 0
BITMAP
0010
0070
00A0
0080
0000
1EB4
76A4
A3B0
AB98
79F4
ENDCHAR
STARTCHAR b.fina
ENCODING -1
SWIDTH 475 0
DWIDTH 5 0
BBX 5 10 0 0
BITMAP
0B00
1A40
2640
3700
7900
7E00
7740
6280
7740
2E00
ENDCHAR
STARTCHAR c.fina
ENCODING -1
SWIDTH 404 0
DWIDTH 4 0
BBX 4 5 0 0
BITMAP
2D
76
A0
A6
2E
ENDCHAR
STARTCHAR cacute.fina
ENCODING -1
SWIDTH 404 0
DWIDTH 4 0
BBX 5 10 0 0
BITMAP
0100
0340
0600
0800
0000
2D00
7600
A000
A600
2E00
ENDCHAR
STARTCHAR ccaron.fina
ENCODING -1
SWIDTH 404 0
DWIDTH 4 0
BBX 5 10 0 0
BITMAP
1040
2A40
1B00
0D00
0000
2D00
7600
A000
A600
2E00
ENDCHAR
STARTCHAR ccedilla.fina
ENCODING -1
SWIDTH 404 0
DWIDTH 4 0
BBX 4 8 0 -3
BITMAP
2D
76
A1
A1
7F
2D
09
7C
ENDCHAR
STARTCHAR ccircumflex.fina
ENCODING -1
SWIDTH 404 0
DWIDTH 4 0
BBX 5 10 0 0
BITMAP
0500
0F00
2B00
3240
0000
2D00
7600
A000
A600
2E00
ENDCHAR
STARTCHAR cdotaccent.fina
ENCODING -1
SWIDTH 404 0
DWIDTH 4 0
BBX 4 7 0 0
BITMAP
0D
00
2D
76
A0
A6
2E
ENDCHAR
STARTCHAR d.fina
ENCODING -1
SWIDTH 493 0
DWIDTH 5 0
BBX 6 10 0 0
BITMAP
00A0
01B0
0260
0360
0390
1F80
7780
A340
A740
7A40
ENDCHAR
STARTCHAR dcaron.fina
ENCODING -1
SWIDTH 458 0
DWIDTH 5 0
BBX 7 10 0 0
BITMAP
0018
00E8
01D4
0180
0280
1F40
7740
A300
AB00
7B00
ENDCHAR
STARTCHAR dcroat.fina
ENCODING -1
SWIDTH 458 0
DWIDTH 5 0
BBX 6 9 0 0
BITMAP
00C0
01C0
1FD0
0280
1F40
7740
A300
AB00
7B00
ENDCHAR
STARTCHAR uni01C6.fina
ENCODING -1
SWIDTH 876 0
DWIDTH 9 0
BBX 10 13 0 -4
BITMAP
00CC90
01CAC0
018740
029540
1F6FC0
774740
A31D00
AB7D00
7ADA00
001F00
006600
009D00
00B800
ENDCHAR
STARTCHAR e.fina
ENCODING -1
SWIDTH 411 0
DWIDTH 4 0
BBX 5 5 0 0
BITMAP
2E00
7600
A900
B640
2E00
ENDCHAR
STARTCHAR eacute.fina
ENCODING -1
SWIDTH 411 0
DWIDTH 4 0
BBX 5 10 0 0
BITMAP
0100
0340
0700
0900
0000
2E00
7600
A900
B640
2E00
ENDCHAR
STARTCHAR ebreve.fina
ENCODING -1
SWIDTH 411 0
DWIDTH 4 0
BBX 5 9 0 0
BITMAP
1040
7180
2F40
0000
2E00
7600
A900
B640
2E00
ENDCHAR
STARTCHAR ecaron.fina
ENCODING -1
SWIDTH 411 0
DWIDTH 4 0
BBX 5 10 0 0
BITMAP
1440
1A80
1B00
0D00
0000
2E00
7600
A900
B640
2E00
ENDCHAR
STARTCHAR ecircumflex.fina
ENCODING -1
SWIDTH 411 0
DWIDTH 4 0
BBX 5 10 0 0
BITMAP
0500
0F00
2B00
3240
0000
2E00
7600
A900
B640
2E00
ENDCHAR
STARTCHAR uni1EBF.fina
ENCODING -1
SWIDTH 411 0
DWIDTH 4 0
BBX 6 10 0 0
BITMAP
0010
0090
0A00
2640
0000
2E00
7600
A900
B640
2E00
ENDCHAR
STARTCHAR uni1EC7.fina
ENCODING -1
SWIDTH 411 0
DWIDTH 4 0
BBX 5 12 0 -2
BITMAP
0500
0F00
2B00
3240
0000
2E00
7600
A900
B640
2E00
0000
2C00
ENDCHAR
STARTCHAR uni1EC1.fina
ENCODING -1
SWIDTH 411 0
DWIDTH 4 0
BBX 5 10 0 0
BITMAP
4000
A000
0A00
2640
0000
2E00
7600
A900
B640
2E00
ENDCHAR
STARTCHAR uni1EC3.fina
ENCODING -1
SWIDTH 411 0
DWIDTH 4 0
BBX 6 9 0 0
BITMAP
00E0
0070
0AA0
2B40
2E00
7600
A900
B640
2E00
ENDCHAR
STARTCHAR uni1EC5.fina
ENCODING -1
SWIDTH 411 0
DWIDTH 4 0
BBX 5 10 0 0
BITMAP
1D80
1640
1F00
2640
0000
2E00
7600
A900
B640
2E00
ENDCHAR
STARTCHAR uni0205.fina
ENCODING -1
SWIDTH 411 0
DWIDTH 4 0
BBX 5 10 0 0
BITMAP
4400
A900
7600
2200
0000
2E00
7600
A900
B640
2E00
ENDCHAR
STARTCHAR edieresis.fina
ENCODING -1
SWIDTH 411 0
DWIDTH 4 0
BBX 5 7 0 0
BITMAP
2640
0000
2E00
7600
A900
B640
2E00
ENDCHAR
STARTCHAR edotaccent.fina
ENCODING -1
SWIDTH 411 0
DWIDTH 4 0
BBX 5 7 0 0
BITMAP
0D00
0000
2E00
7600
A900
B640
2E00
ENDCHAR
STARTCHAR uni1EB9.fina
ENCODING -1
SWIDTH 411 0
DWIDTH 4 0
BBX 5 7 0 -2
BITMAP
2E00
7600
A900
B640
2E00
0000
2C00
ENDCHAR
STARTCHAR egrave.fina
ENCODING -1
SWIDTH 411 0
DWIDTH 4 0
BBX 5 10 0 0
BITMAP
1000
3400
2800
0800
0000
2E00
7600
A900
B640
2E00
ENDCHAR
STARTCHAR uni1EBB.fina
ENCODING -1
SWIDTH 411 0
DWIDTH 4 0
BBX 5 9 0 0
BITMAP
0E00
0700
0A00
0000
2E00
7600
A900
B640
2E00
ENDCHAR
STARTCHAR uni0207.fina
ENCODING -1
SWIDTH 411 0
DWIDTH 4 0
BBX 5 8 0 0
BITMAP
1F40
3680
1040
2E00
7600
A900
B640
2E00
ENDCHAR
STARTCHAR emacron.fina
ENCODING -1
SWIDTH 411 0
DWIDTH 4 0
BBX 5 7 0 0
BITMAP
2F40
0000
2E00
7600
A900
B640
2E00
ENDCHAR
STARTCHAR eogonek.fina
ENCODING -1
SWIDTH 411 0
DWIDTH 4 0
BBX 5 8 0 -3
BITMAP
2E00
7700
AA00
B540
7B00
1C00
1800
1F00
ENDCHAR
STARTCHAR uni1EBD.fina
ENCODING -1
SWIDTH 411 0
DWIDTH 4 0
BBX 5 8 0 0
BITMAP
2980
6740
0000
2E00
7600
A900
B640
2E00
ENDCHAR
STARTCHAR g.fina
ENCODING -1
SWIDTH 449 0
DWIDTH 4 0
BBX 5 10 0 -5
BITMAP
1E00
7740
A300
AB00
7E00
1E00
2900
9C00
D800
B400
ENDCHAR
STARTCHAR gbreve.fina
ENCODING -1
SWIDTH 449 0
DWIDTH 4 0
BBX 5 14 0 -5
BITMAP
1000
28C0
1F80
0000
1E00
7740
A300
AB00
7E00
1E00
2900
9C00
D800
B400
ENDCHAR
STARTCHAR gcaron.fina
ENCODING -1
SWIDTH 449 0
DWIDTH 4 0
BBX 5 15 0 -5
BITMAP
0440
0DC0
0E40
0A00
0000
1E00
7740
A300
AB00
7E00
1E00
2900
9C00
D800
B400
ENDCHAR
STARTCHAR gcircumflex.fina
ENCODING -1
SWIDTH 449 0
DWIDTH 4 0
BBX 5 15 0 -5
BITMAP
0100
0B40
0E80
2580
0000
1E00
7740
A300
AB00
7E00
1E00
2900
9C00
D800
B400
ENDCHAR
STARTCHAR uni0123.fina
ENCODING -1
SWIDTH 449 0
DWIDTH 4 0
BBX 5 14 0 -5
BITMAP
0200
0700
0600
0000
1E00
7740
A300
AB00
7E00
1E00
2900
9C00
D800
B400
ENDCHAR
STARTCHAR gdotaccent.fina
ENCODING -1
SWIDTH 449 0
DWIDTH 4 0
BBX 5 12 0 -5
BITMAP
0B00
0000
1E00
7740
A300
AB00
7E00
1E00
2900
9C00
D800
B400
ENDCHAR
STARTCHAR h.fina
ENCODING -1
SWIDTH 490 0
DWIDTH 5 0
BBX 5 10 0 0
BITMAP
0B00
1A40
2600
3600
7900
7A80
7B80
7A40
7340
6240
ENDCHAR
STARTCHAR hbar.fina
ENCODING -1
SWIDTH 490 0
DWIDTH 5 0
BBX 5 9 0 0
BITMAP
1C00
2800
7F40
3400
3680
7B80
7A40
7340
6240
ENDCHAR
STARTCHAR hcircumflex.fina
ENCODING -1
SWIDTH 490 0
DWIDTH 5 0
BBX 5 14 0 0
BITMAP
0740
0A80
18C0
0000
0B00
1A40
2600
3600
7900
7A80
7B80
7A40
7340
6240
ENDCHAR
STARTCHAR i.fina
ENCODING -1
SWIDTH 222 0
DWIDTH 2 0
BBX 3 7 0 0
BITMAP
28
00
30
70
60
A0
A0
ENDCHAR
STARTCHAR dotlessi.fina
ENCODING -1
SWIDTH 222 0
DWIDTH 2 0
BBX 2 5 0 0
BITMAP
30
70
60
A0
A0
ENDCHAR
STARTCHAR iacute.fina
ENCODING -1
SWIDTH 222 0
DWIDTH 2 0
BBX 4 10 0 0
BITMAP
04
0D
1C
14
00
30
70
60
A0
A0
ENDCHAR
STARTCHAR iacute_j.loclNLD.fina
ENCODING -1
SWIDTH 479 0
DWIDTH 5 0
BBX 6 15 0 -5
BITMAP
0510
0AA0
0CD0
1580
0000
3240
7340
6700
7F00
7A00
1E00
2900
9C00
D800
B400
ENDCHAR
STARTCHAR ibreve.fina
ENCODING -1
SWIDTH 222 0
DWIDTH 2 0
BBX 4 9 0 0
BITMAP
41
D6
BD
00
30
70
60
A0
A0
ENDCHAR
STARTCHAR icircumflex.fina
ENCODING -1
SWIDTH 222 0
DWIDTH 2 0
BBX 4 10 0 0
BITMAP
14
3C
69
89
00
30
70
60
A0
A0
ENDCHAR
STARTCHAR uni0209.fina
ENCODING -1
SWIDTH 222 0
DWIDTH 2 0
BBX 4 10 -1 0
BITMAP
54
A9
36
22
00
0C
1C
18
28
28
ENDCHAR
STARTCHAR idieresis.fina
ENCODING -1
SWIDTH 222 0
DWIDTH 2 0
BBX 4 7 0 0
BITMAP
99
00
30
70
60
A0
A0
ENDCHAR
STARTCHAR i.loclTRK.fina
ENCODING -1
SWIDTH 222 0
DWIDTH 2 0
BBX 3 7 0 0
BITMAP
38
00
30
70
60
A0
A0
ENDCHAR
STARTCHAR uni1ECB.fina
ENCODING -1
SWIDTH 222 0
DWIDTH 2 0
BBX 3 9 0 -2
BITMAP
28
00
30
70
60
A0
A0
00
D0
ENDCHAR
STARTCHAR igrave.fina
ENCODING -1
SWIDTH 222 0
DWIDTH 2 0
BBX 2 10 0 0
BITMAP
40
D0
60
20
00
30
70
60
A0
A0
ENDCHAR
STARTCHAR uni1EC9.fina
ENCODING -1
SWIDTH 222 0
DWIDTH 2 0
BBX 3 9 0 0
BITMAP
38
1C
28
00
30
70
60
A0
A0
ENDCHAR
STARTCHAR uni020B.fina
ENCODING -1
SWIDTH 222 0
DWIDTH 2 0
BBX 4 8 0 0
BITMAP
7D
DA
41
30
70
60
A0
A0
ENDCHAR
STARTCHAR imacron.fina
ENCODING -1
SWIDTH 222 0
DWIDTH 2 0
BBX 4 7 0 0
BITMAP
BD
00
30
70
60
A0
A0
ENDCHAR
STARTCHAR iogonek.fina
ENCODING -1
SWIDTH 222 0
DWIDTH 2 0
BBX 4 9 -1 -2
BITMAP
0E
00
0C
1C
18
28
24
70
3D
ENDCHAR
STARTCHAR itilde.fina
ENCODING -1
SWIDTH 222 0
DWIDTH 2 0
BBX 5 8 -1 0
BITMAP
2980
6740
0000
0C00
1C00
1800
2800
2800
ENDCHAR
STARTCHAR j.fina
ENCODING -1
SWIDTH 229 0
DWIDTH 2 0
BBX 6 12 -3 -5
BITMAP
00D0
0000
00C0
01C0
01C0
0180
0280
0740
1B40
2700
6A00
3800
ENDCHAR
STARTCHAR uni0237.fina
ENCODING -1
SWIDTH 229 0
DWIDTH 2 0
BBX 5 10 -3 -5
BITMAP
00C0
01C0
01C0
0180
0280
0740
1B40
2700
6A00
3800
ENDCHAR
STARTCHAR jcircumflex.fina
ENCODING -1
SWIDTH 229 0
DWIDTH 2 0
BBX 7 15 -3 -5
BITMAP
0050
00F0
02B0
0324
0000
00C0
01C0
01C0
0180
0280
0740
1B40
2700
6A00
3800
ENDCHAR
STARTCHAR k.fina
ENCODING -1
SWIDTH 521 0
DWIDTH 5 0
BBX 5 10 0 0
BITMAP
0B00
1A40
2600
3600
7900
7A80
69C0
7A80
7740
62C0
ENDCHAR
STARTCHAR uni0137.fina
ENCODING -1
SWIDTH 521 0
DWIDTH 5 0
BBX 5 13 0 -3
BITMAP
0B00
1A40
2600
3600
7900
7A80
69C0
7A80
7740
62C0
0800
1800
1400
ENDCHAR
STARTCHAR kgreenlandic.fina
ENCODING -1
SWIDTH 541 0
DWIDTH 5 0
BBX 6 5 0 0
BITMAP
3780
7DC0
7C40
7D60
6780
ENDCHAR
STARTCHAR l.fina
ENCODING -1
SWIDTH 368 0
DWIDTH 4 0
BBX 5 10 0 0
BITMAP
0B00
1A40
2640
3300
7600
7900
7800
7400
7500
2D00
ENDCHAR
STARTCHAR lacute.fina
ENCODING -1
SWIDTH 368 0
DWIDTH 4 0
BBX 6 14 0 0
BITMAP
0010
00E0
0240
0000
0B00
1A40
2640
3300
7600
7900
7800
7400
7500
2D00
ENDCHAR
STARTCHAR lcaron.fina
ENCODING -1
SWIDTH 368 0
DWIDTH 4 0
BBX 6 10 0 0
BITMAP
0B00
1AA0
2690
3300
7600
7900
7800
7400
7500
2D00
ENDCHAR
STARTCHAR uni013C.fina
ENCODING -1
SWIDTH 368 0
DWIDTH 4 0
BBX 5 13 0 -3
BITMAP
0B00
1A40
2640
3300
7600
7900
7800
7400
7500
2D00
2400
3400
2000
ENDCHAR
STARTCHAR ldot.fina
ENCODING -1
SWIDTH 466 0
DWIDTH 5 0
BBX 5 10 0 0
BITMAP
0C00
1C00
2800
3400
3600
7600
7000
6040
7580
2E00
ENDCHAR
STARTCHAR uni01C9.fina
ENCODING -1
SWIDTH 555 0
DWIDTH 6 0
BBX 6 15 0 -5
BITMAP
0B00
1A40
2640
33E0
7600
7990
78D0
74C0
76C0
2E80
0380
0A40
2740
3600
2D00
ENDCHAR
STARTCHAR lslash.fina
ENCODING -1
SWIDTH 368 0
DWIDTH 4 0
BBX 6 11 0 0
BITMAP
0BD0
2900
0B00
1A40
3640
7300
7500
7800
7400
7500
2D00
ENDCHAR
STARTCHAR m.fina
ENCODING -1
SWIDTH 732 0
DWIDTH 7 0
BBX 7 5 0 0
BITMAP
376C
7BBC
77DC
7398
6258
ENDCHAR
STARTCHAR n.fina
ENCODING -1
SWIDTH 484 0
DWIDTH 5 0
BBX 5 5 0 0
BITMAP
3640
7B80
7A40
7340
6340
ENDCHAR
STARTCHAR nacute.fina
ENCODING -1
SWIDTH 484 0
DWIDTH 5 0
BBX 5 10 0 0
BITMAP
0040
01C0
0240
0200
0000
3640
7B80
7A40
7340
6340
ENDCHAR
STARTCHAR napostrophe.fina
ENCODING -1
SWIDTH 484 0
DWIDTH 5 0
BBX 5 9 0 0
BITMAP
8000
C000
8000
0000
3640
7B80
7A40
7340
6340
ENDCHAR
STARTCHAR ncaron.fina
ENCODING -1
SWIDTH 484 0
DWIDTH 5 0
BBX 5 10 0 0
BITMAP
0440
0CC0
0A40
0600
0000
3640
7B80
7A40
7340
6340
ENDCHAR
STARTCHAR uni0146.fina
ENCODING -1
SWIDTH 484 0
DWIDTH 5 0
BBX 5 8 0 -3
BITMAP
3640
7B80
7A40
7340
6340
0800
1800
1400
ENDCHAR
STARTCHAR eng.fina
ENCODING -1
SWIDTH 484 0
DWIDTH 5 0
BBX 5 8 0 -3
BITMAP
3640
7B40
7740
7300
6600
0A00
9C00
7400
ENDCHAR
STARTCHAR uni01CC.fina
ENCODING -1
SWIDTH 725 0
DWIDTH 7 0
BBX 8 12 0 -5
BITMAP
000D
0000
364C
7B9C
7B58
7378
62F8
0074
01B0
0370
06A0
0380
ENDCHAR
STARTCHAR ntilde.fina
ENCODING -1
SWIDTH 484 0
DWIDTH 5 0
BBX 6 8 0 0
BITMAP
1D90
2680
0000
3640
7B80
7A40
7340
6340
ENDCHAR
STARTCHAR o.fina
ENCODING -1
SWIDTH 453 0
DWIDTH 5 0
BBX 5 5 0 0
BITMAP
2E00
7740
A340
A700
2D00
ENDCHAR
STARTCHAR oacute.fina
ENCODING -1
SWIDTH 453 0
DWIDTH 5 0
BBX 5 10 0 0
BITMAP
0100
0340
0600
0900
0000
2E00
7740
A340
A700
2D00
ENDCHAR
STARTCHAR obreve.fina
ENCODING -1
SWIDTH 453 0
DWIDTH 5 0
BBX 5 9 0 0
BITMAP
1040
7180
2F40
0000
2E00
7740
A340
A700
2D00
ENDCHAR
STARTCHAR ocircumflex.fina
ENCODING -1
SWIDTH 453 0
DWIDTH 5 0
BBX 5 10 0 0
BITMAP
0500
0F00
2B00
3240
0000
2E00
7740
A340
A700
2D00
ENDCHAR
STARTCHAR uni1ED1.fina
ENCODING -1
SWIDTH 453 0
DWIDTH 5 0
BBX 6 10 0 0
BITMAP
0010
0090
1A00
2640
0000
2E00
7740
A340
A700
2D00
ENDCHAR
STARTCHAR uni1ED9.fina
ENCODING -1
SWIDTH 453 0
DWIDTH 5 0
BBX 5 12 0 -2
BITMAP
0500
0F00
2B00
3240
0000
2E00
7740
A340
A700
2D00
0000
2800
ENDCHAR
STARTCHAR uni1ED3.fina
ENCODING -1
SWIDTH 453 0
DWIDTH 5 0
BBX 5 10 0 0
BITMAP
4000
A000
1A00
2640
0000
2E00
7740
A340
A700
2D00
ENDCHAR
STARTCHAR uni1ED5.fina
ENCODING -1
SWIDTH 453 0
DWIDTH 5 0
BBX 6 9 0 0
BITMAP
00E0
0060
0EA0
3B40
2E00
7740
A340
A700
2D00
ENDCHAR
STARTCHAR uni1ED7.fina
ENCODING -1
SWIDTH 453 0
DWIDTH 5 0
BBX 5 10 0 0
BITMAP
1D80
1640
1F00
3640
0000
2E00
7740
A340
A700
2D00
ENDCHAR
STARTCHAR uni020D.fina
ENCODING -1
SWIDTH 453 0
DWIDTH 5 0
BBX 5 10 0 0
BITMAP
4400
AD00
7600
2200
0000
2E00
7740
A340
A700
2D00
ENDCHAR
STARTCHAR odieresis.fina
ENCODING -1
SWIDTH 453 0
DWIDTH 5 0
BBX 5 7 0 0
BITMAP
3640
0000
2E00
7740
A340
A700
2D00
ENDCHAR
STARTCHAR uni022B.fina
ENCODING -1
SWIDTH 453 0
DWIDTH 5 0
BBX 5 9 0 0
BITMAP
2F40
0000
3640
0000
2E00
7740
A340
A700
2D00
ENDCHAR
STARTCHAR uni0231.fina
ENCODING -1
SWIDTH 453 0
DWIDTH 5 0
BBX 5 9 0 0
BITMAP
2F40
0000
0D00
0000
2E00
7740
A340
A700
2D00
ENDCHAR
STARTCHAR uni1ECD.fina
ENCODING -1
SWIDTH 453 0
DWIDTH 5 0
BBX 5 7 0 -2
BITMAP
2E00
7740
A340
A700
2D00
0000
2800
ENDCHAR
STARTCHAR ograve.fina
ENCODING -1
SWIDTH 453 0
DWIDTH 5 0
BBX 5 10 0 0
BITMAP
1000
3400
2800
0800
0000
2E00
7740
A340
A700
2D00
ENDCHAR
STARTCHAR uni1ECF.fina
ENCODING -1
SWIDTH 453 0
DWIDTH 5 0
BBX 5 9 0 0
BITMAP
0E00
0700
0A00
0000
2E00
7740
A340
A700
2D00
ENDCHAR
STARTCHAR ohorn.fina
ENCODING -1
SWIDTH 453 0
DWIDTH 5 0
BBX 5 7 0 0
BITMAP
0040
01C0
2F40
7740
A340
A700
2D00
ENDCHAR
STARTCHAR uni1EDB.fina
ENCODING -1
SWIDTH 453 0
DWIDTH 5 0
BBX 5 10 0 0
BITMAP
0100
0300
0A00
0840
01C0
2F40
7740
A340
A700
2D00
ENDCHAR
STARTCHAR uni1EE3.fina
ENCODING -1
SWIDTH 453 0
DWIDTH 5 0
BBX 5 9 0 -2
BITMAP
0040
01C0
2F40
7740
A340
A700
2D00
0000
2800
ENDCHAR
STARTCHAR uni1EDD.fina
ENCODING -1
SWIDTH 453 0
DWIDTH 5 0
BBX 5 10 0 0
BITMAP
1000
7000
2400
0840
01C0
2F40
7740
A340
A700
2D00
ENDCHAR
STARTCHAR uni1EDF.fina
ENCODING -1
SWIDTH 453 0
DWIDTH 5 0
BBX 5 9 0 0
BITMAP
1E00
0700
0E40
01C0
2F40
7740
A340
A700
2D00
ENDCHAR
STARTCHAR uni1EE1.fina
ENCODING -1
SWIDTH 453 0
DWIDTH 5 0
BBX 5 8 0 0
BITMAP
2940
6A40
01C0
2F40
7740
A340
A700
2D00
ENDCHAR
STARTCHAR ohungarumlaut.fina
ENCODING -1
SWIDTH 453 0
DWIDTH 5 0
BBX 5 10 0 0
BITMAP
0440
0DC0
1A80
2600
0000
2E00
7740
A340
A700
2D00
ENDCHAR
STARTCHAR uni020F.fina
ENCODING -1
SWIDTH 453 0
DWIDTH 5 0
BBX 5 8 0 0
BITMAP
1F00
3680
1040
2E00
7740
A340
A700
2D00
ENDCHAR
STARTCHAR omacron.fina
ENCODING -1
SWIDTH 453 0
DWIDTH 5 0
BBX 5 7 0 0
BITMAP
3F00
0000
2E00
7740
A340
A700
2D00
ENDCHAR
STARTCHAR uni01EB.fina
ENCODING -1
SWIDTH 453 0
DWIDTH 5 0
BBX 5 8 0 -3
BITMAP
2E00
7740
A340
A300
7E00
1800
2400
1E00
ENDCHAR
STARTCHAR oslash.fina
ENCODING -1
SWIDTH 463 0
DWIDTH 5 0
BBX 5 8 0 -2
BITMAP
0500
2E00
7B40
AA40
AB40
3D00
1400
1000
ENDCHAR
STARTCHAR oslashacute.fina
ENCODING -1
SWIDTH 463 0
DWIDTH 5 0
BBX 5 12 0 -2
BITMAP
0400
0D00
1C00
2400
0500
2E00
7B40
AA40
AB40
3D00
1400
1000
ENDCHAR
STARTCHAR otilde.fina
ENCODING -1
SWIDTH 453 0
DWIDTH 5 0
BBX 5 8 0 0
BITMAP
2980
6740
0000
2E00
7740
A340
A700
2D00
ENDCHAR
STARTCHAR uni022D.fina
ENCODING -1
SWIDTH 453 0
DWIDTH 5 0
BBX 5 10 0 0
BITMAP
2F40
0000
2980
6740
0000
2E00
7740
A340
A700
2D00
ENDCHAR
STARTCHAR oe.fina
ENCODING -1
SWIDTH 686 0
DWIDTH 7 0
BBX 7 5 0 0
BITMAP
2EB4
77A8
A3B4
A798
2DF4
ENDCHAR
STARTCHAR p.fina
ENCODING -1
SWIDTH 457 0
DWIDTH 5 0
BBX 6 10 -1 -5
BITMAP
1AC0
1DD0
1CD0
2DC0
7E40
A800
E800
A400
A400
E000
ENDCHAR
STARTCHAR thorn.fina
ENCODING -1
SWIDTH 483 0
DWIDTH 5 0
BBX 5 12 0 -3
BITMAP
1400
3400
3400
7000
7740
7A80
B280
BB00
B800
9000
9000
9000
ENDCHAR
STARTCHAR q.fina
ENCODING -1
SWIDTH 449 0
DWIDTH 4 0
BBX 5 10 0 -4
BITMAP
0040
1F80
7740
A300
AB00
7E00
0A00
0900
0D00
0400
ENDCHAR
STARTCHAR r.fina
ENCODING -1
SWIDTH 495 0
DWIDTH 5 0
BBX 5 5 0 0
BITMAP
3740
7B80
7680
7000
6000
ENDCHAR
STARTCHAR racute.fina
ENCODING -1
SWIDTH 495 0
DWIDTH 5 0
BBX 5 10 0 0
BITMAP
0040
0280
0300
0500
0000
3740
7B80
7680
7000
6000
ENDCHAR
STARTCHAR rcaron.fina
ENCODING -1
SWIDTH 495 0
DWIDTH 5 0
BBX 5 10 0 0
BITMAP
0440
1D80
0E40
0A00
0000
3740
7B80
7680
7000
6000
ENDCHAR
STARTCHAR uni0157.fina
ENCODING -1
SWIDTH 495 0
DWIDTH 5 0
BBX 5 8 0 -3
BITMAP
3740
7B80
7680
7000
6000
5000
A000
9000
ENDCHAR
STARTCHAR uni0211.fina
ENCODING -1
SWIDTH 495 0
DWIDTH 5 0
BBX 5 10 0 0
BITMAP
1500
7A00
3700
1600
0000
3740
7B80
7680
7000
6000
ENDCHAR
STARTCHAR uni0213.fina
ENCODING -1
SWIDTH 495 0
DWIDTH 5 0
BBX 5 8 0 0
BITMAP
1F40
35C0
1080
3740
7B80
7680
7000
6000
ENDCHAR
STARTCHAR s.fina
ENCODING -1
SWIDTH 394 0
DWIDTH 4 0
BBX 4 5 0 0
BITMAP
1C
2C
6E
DA
2D
ENDCHAR
STARTCHAR sacute.fina
ENCODING -1
SWIDTH 394 0
DWIDTH 4 0
BBX 5 10 0 0
BITMAP
0100
0340
0600
0900
0000
1C00
2C00
6E00
DA00
2D00
ENDCHAR
STARTCHAR scaron.fina
ENCODING -1
SWIDTH 394 0
DWIDTH 4 0
BBX 5 10 0 0
BITMAP
1040
2A80
1B00
0D00
0000
1C00
2C00
6E00
DA00
2D00
ENDCHAR
STARTCHAR scedilla.fina
ENCODING -1
SWIDTH 394 0
DWIDTH 4 0
BBX 4 8 0 -3
BITMAP
0C
2C
3D
9A
6D
09
09
78
ENDCHAR
STARTCHAR scircumflex.fina
ENCODING -1
SWIDTH 394 0
DWIDTH 4 0
BBX 5 10 0 0
BITMAP
0500
0F00
2B00
3240
0000
1C00
2C00
6E00
DA00
2D00
ENDCHAR
STARTCHAR uni0219.fina
ENCODING -1
SWIDTH 394 0
DWIDTH 4 0
BBX 4 8 0 -3
BITMAP
1C
2C
6E
DA
2D
18
18
14
ENDCHAR
STARTCHAR germandbls.fina
ENCODING -1
SWIDTH 580 0
DWIDTH 6 0
BBX 6 11 0 -2
BITMAP
0B90
1DA0
34A0
72C0
7700
6780
61E0
ADA0
ABD0
A000
6000
ENDCHAR
STARTCHAR uni01C9.ss01.fina
ENCODING -1
SWIDTH 466 0
DWIDTH 5 0
BBX 5 14 0 -5
BITMAP
1800
2800
3680
3400
7240
7340
A340
AB00
7F00
0A00
2A00
9900
DC00
B400
ENDCHAR
STARTCHAR eng.ss01.fina
ENCODING -1
SWIDTH 484 0
DWIDTH 5 0
BBX 5 10 0 -5
BITMAP
3640
7B80
7A40
7340
6300
0B00
2A00
6900
9C00
7400
ENDCHAR
STARTCHAR p.ss01.fina
ENCODING -1
SWIDTH 488 0
DWIDTH 5 0
BBX 7 10 -2 -5
BITMAP
0368
03F8
0364
0734
0B34
1E00
2A00
2900
6D00
3800
ENDCHAR
STARTCHAR z.ss01.fina
ENCODING -1
SWIDTH 406 0
DWIDTH 4 0
BBX 6 10 -1 -4
BITMAP
1440
1FD0
0740
1D00
1E00
0700
1F40
3700
6A00
7800
ENDCHAR
STARTCHAR zacute.ss01.fina
ENCODING -1
SWIDTH 406 0
DWIDTH 4 0
BBX 6 14 -1 -4
BITMAP
0040
00D0
0180
0200
1440
1FD0
0740
1D00
1E00
0700
1F40
3700
6A00
7800
ENDCHAR
STARTCHAR zcaron.ss01.fina
ENCODING -1
SWIDTH 406 0
DWIDTH 4 0
BBX 6 14 -1 -4
BITMAP
0410
0990
06C0
0340
1440
1FD0
0740
1D00
1E00
0700
1F40
3700
6A00
7800
ENDCHAR
STARTCHAR zdotaccent.ss01.fina
ENCODING -1
SWIDTH 406 0
DWIDTH 4 0
BBX 6 11 -1 -4
BITMAP
0340
1540
1FD0
0740
1D00
1E00
0700
1F40
3700
6A00
7800
ENDCHAR
STARTCHAR t.fina
ENCODING -1
SWIDTH 413 0
DWIDTH 4 0
BBX 5 9 0 0
BITMAP
0700
1E40
2A00
3A00
FF40
7400
3000
3500
1E00
ENDCHAR
STARTCHAR tbar.fina
ENCODING -1
SWIDTH 387 0
DWIDTH 4 0
BBX 4 8 0 0
BITMAP
18
28
28
BE
FD
70
36
2E
ENDCHAR
STARTCHAR tcaron.fina
ENCODING -1
SWIDTH 413 0
DWIDTH 4 0
BBX 7 10 0 0
BITMAP
0010
0734
1E60
2A00
3A00
FF40
7400
3000
3500
1E00
ENDCHAR
STARTCHAR uni0163.fina
ENCODING -1
SWIDTH 413 0
DWIDTH 4 0
BBX 5 12 0 -3
BITMAP
0700
1E40
2A00
3A00
FF40
7400
3000
3400
2F00
2D00
0900
7C00
ENDCHAR
STARTCHAR uni021B.fina
ENCODING -1
SWIDTH 413 0
DWIDTH 4 0
BBX 5 12 0 -3
BITMAP
0700
1E40
2A00
3A00
FF40
7400
3000
3500
1E00
0800
1800
1400
ENDCHAR
STARTCHAR u.fina
ENCODING -1
SWIDTH 460 0
DWIDTH 5 0
BBX 5 5 0 0
BITMAP
3240
7340
6700
7F00
7700
ENDCHAR
STARTCHAR uacute.fina
ENCODING -1
SWIDTH 460 0
DWIDTH 5 0
BBX 5 10 0 0
BITMAP
0040
0280
0340
0500
0000
3240
7340
6700
7F00
7700
ENDCHAR
STARTCHAR ubreve.fina
ENCODING -1
SWIDTH 460 0
DWIDTH 5 0
BBX 5 9 0 0
BITMAP
1040
35C0
1F40
0000
3240
7340
6700
7F00
7700
ENDCHAR
STARTCHAR ucircumflex.fina
ENCODING -1
SWIDTH 460 0
DWIDTH 5 0
BBX 5 10 0 0
BITMAP
0100
0B40
1E40
2580
0000
3240
7340
6700
7F00
7700
ENDCHAR
STARTCHAR uni0215.fina
ENCODING -1
SWIDTH 460 0
DWIDTH 5 0
BBX 5 10 0 0
BITMAP
1500
7A00
3700
1640
0000
3240
7340
6700
7F00
7700
ENDCHAR
STARTCHAR udieresis.fina
ENCODING -1
SWIDTH 460 0
DWIDTH 5 0
BBX 5 7 0 0
BITMAP
2980
0000
3240
7340
6700
7F00
7700
ENDCHAR
STARTCHAR uni1EE5.fina
ENCODING -1
SWIDTH 460 0
DWIDTH 5 0
BBX 5 7 0 -2
BITMAP
3240
7340
6700
7F00
7700
0000
2800
ENDCHAR
STARTCHAR ugrave.fina
ENCODING -1
SWIDTH 460 0
DWIDTH 5 0
BBX 5 10 0 0
BITMAP
1000
2800
1C00
0900
0000
3240
7340
6700
7F00
7700
ENDCHAR
STARTCHAR uni1EE7.fina
ENCODING -1
SWIDTH 460 0
DWIDTH 5 0
BBX 5 9 0 0
BITMAP
0B00
0240
0700
0000
3240
7340
6700
7F00
7700
ENDCHAR
STARTCHAR uhorn.fina
ENCODING -1
SWIDTH 472 0
DWIDTH 5 0
BBX 6 7 0 0
BITMAP
0010
0060
32C0
7340
6700
7F00
7700
ENDCHAR
STARTCHAR uni1EE9.fina
ENCODING -1
SWIDTH 472 0
DWIDTH 5 0
BBX 6 10 0 0
BITMAP
0040
0280
0340
0510
0060
32C0
7340
6700
7F00
7700
ENDCHAR
STARTCHAR uni1EF1.fina
ENCODING -1
SWIDTH 472 0
DWIDTH 5 0
BBX 6 9 0 -2
BITMAP
0010
0060
32C0
7340
6700
7F00
7700
0000
2800
ENDCHAR
STARTCHAR uni1EEB.fina
ENCODING -1
SWIDTH 472 0
DWIDTH 5 0
BBX 6 10 0 0
BITMAP
1000
2800
1C00
0910
0060
32C0
7340
6700
7F00
7700
ENDCHAR
STARTCHAR uni1EED.fina
ENCODING -1
SWIDTH 472 0
DWIDTH 5 0
BBX 6 9 0 0
BITMAP
0B00
0240
0750
0060
32C0
7340
6700
7F00
7700
ENDCHAR
STARTCHAR uni1EEF.fina
ENCODING -1
SWIDTH 472 0
DWIDTH 5 0
BBX 6 8 0 0
BITMAP
1D80
2750
0060
32C0
7340
6700
7F00
7700
ENDCHAR
STARTCHAR uhungarumlaut.fina
ENCODING -1
SWIDTH 460 0
DWIDTH 5 0
BBX 6 10 0 0
BITMAP
0440
0AD0
0DC0
1940
0000
3240
7340
6700
7F00
7700
ENDCHAR
STARTCHAR uni0217.fina
ENCODING -1
SWIDTH 460 0
DWIDTH 5 0
BBX 5 8 0 0
BITMAP
1F40
29C0
1040
3240
7340
6700
7F00
7700
ENDCHAR
STARTCHAR umacron.fina
ENCODING -1
SWIDTH 460 0
DWIDTH 5 0
BBX 5 7 0 0
BITMAP
2F40
0000
3240
7340
6700
7F00
7700
ENDCHAR
STARTCHAR uogonek.fina
ENCODING -1
SWIDTH 460 0
DWIDTH 5 0
BBX 5 8 0 -3
BITMAP
3240
7340
6740
7F00
7B00
0A00
0900
0B80
ENDCHAR
STARTCHAR uring.fina
ENCODING -1
SWIDTH 460 0
DWIDTH 5 0
BBX 5 9 0 0
BITMAP
0B00
0A40
0F00
0000
3240
7340
6700
7F00
7700
ENDCHAR
STARTCHAR utilde.fina
ENCODING -1
SWIDTH 460 0
DWIDTH 5 0
BBX 6 8 0 0
BITMAP
2D90
2680
0000
3240
7340
6700
7F00
7700
ENDCHAR
STARTCHAR v.fina
ENCODING -1
SWIDTH 420 0
DWIDTH 4 0
BBX 5 5 0 0
BITMAP
6240
6300
6A00
7D00
3800
ENDCHAR
STARTCHAR w.fina
ENCODING -1
SWIDTH 666 0
DWIDTH 7 0
BBX 7 5 0 0
BITMAP
625C
6768
6B70
7EE0
36C0
ENDCHAR
STARTCHAR wacute.fina
ENCODING -1
SWIDTH 666 0
DWIDTH 7 0
BBX 7 10 0 0
BITMAP
0050
00A0
00C0
0140
0000
625C
6768
6B70
7EE0
36C0
ENDCHAR
STARTCHAR wcircumflex.fina
ENCODING -1
SWIDTH 666 0
DWIDTH 7 0
BBX 7 10 0 0
BITMAP
0040
02C0
0690
0990
0000
625C
6768
6B70
7EE0
36C0
ENDCHAR
STARTCHAR wdieresis.fina
ENCODING -1
SWIDTH 666 0
DWIDTH 7 0
BBX 7 7 0 0
BITMAP
09A0
0000
625C
6768
6B70
7EE0
36C0
ENDCHAR
STARTCHAR wgrave.fina
ENCODING -1
SWIDTH 666 0
DWIDTH 7 0
BBX 7 10 0 0
BITMAP
0400
0D00
0600
0200
0000
625C
6768
6B70
7EE0
36C0
ENDCHAR
STARTCHAR x.fina
ENCODING -1
SWIDTH 580 0
DWIDTH 6 0
BBX 6 5 0 0
BITMAP
39D0
2B90
4A00
AF60
BAD0
ENDCHAR
STARTCHAR y.fina
ENCODING -1
SWIDTH 449 0
DWIDTH 4 0
BBX 5 10 0 -5
BITMAP
3240
7340
6700
7F00
7A00
1E00
2900
9C00
D800
B400
ENDCHAR
STARTCHAR yacute.fina
ENCODING -1
SWIDTH 449 0
DWIDTH 4 0
BBX 5 15 0 -5
BITMAP
0040
0280
0340
0500
0000
3240
7340
6700
7F00
7A00
1E00
2900
9C00
D800
B400
ENDCHAR
STARTCHAR ycircumflex.fina
ENCODING -1
SWIDTH 449 0
DWIDTH 4 0
BBX 5 15 0 -5
BITMAP
0100
0B40
1E40
2580
0000
3240
7340
6700
7F00
7A00
1E00
2900
9C00
D800
B400
ENDCHAR
STARTCHAR ydieresis.fina
ENCODING -1
SWIDTH 449 0
DWIDTH 4 0
BBX 5 12 0 -5
BITMAP
2980
0000
3240
7340
6700
7F00
7A00
1E00
2900
9C00
D800
B400
ENDCHAR
STARTCHAR uni1EF5.fina
ENCODING -1
SWIDTH 449 0
DWIDTH 4 0
BBX 5 10 0 -5
BITMAP
3240
7340
6700
7F00
7A00
1E00
2900
9C00
DB80
B400
ENDCHAR
STARTCHAR ygrave.fina
ENCODING -1
SWIDTH 449 0
DWIDTH 4 0
BBX 5 15 0 -5
BITMAP
1000
2800
1C00
0900
0000
3240
7340
6700
7F00
7A00
1E00
2900
9C00
D800
B400
ENDCHAR
STARTCHAR uni1EF7.fina
ENCODING -1
SWIDTH 449 0
DWIDTH 4 0
BBX 5 14 0 -5
BITMAP
0B00
0240
0700
0000
3240
7340
6700
7F00
7A00
1E00
2900
9C00
D800
B400
ENDCHAR
STARTCHAR uni0233.fina
ENCODING -1
SWIDTH 449 0
DWIDTH 4 0
BBX 5 12 0 -5
BITMAP
2F40
0000
3240
7340
6700
7F00
7A00
1E00
2900
9C00
D800
B400
ENDCHAR
STARTCHAR uni1EF9.fina
ENCODING -1
SWIDTH 449 0
DWIDTH 4 0
BBX 6 13 0 -5
BITMAP
2D90
2680
0000
3240
7340
6700
7F00
7A00
1E00
2900
9C00
D800
B400
ENDCHAR
STARTCHAR z.fina
ENCODING -1
SWIDTH 412 0
DWIDTH 4 0
BBX 5 5 0 0
BITMAP
7F40
1E00
3400
A000
FF40
ENDCHAR
STARTCHAR zacute.fina
ENCODING -1
SWIDTH 412 0
DWIDTH 4 0
BBX 5 10 0 0
BITMAP
0100
0340
0700
0900
0000
7F40
1E00
3400
A000
FF40
ENDCHAR
STARTCHAR zcaron.fina
ENCODING -1
SWIDTH 412 0
DWIDTH 4 0
BBX 5 10 0 0
BITMAP
1440
1A80
1B00
0D00
0000
7F40
1E00
3400
A000
FF40
ENDCHAR
STARTCHAR zdotaccent.fina
ENCODING -1
SWIDTH 412 0
DWIDTH 4 0
BBX 5 7 0 0
BITMAP
0E00
0000
7F40
1E00
3400
A000
FF40
ENDCHAR
STARTCHAR iacute_j.loclNLD
ENCODING -1
SWIDTH 479 0
DWIDTH 5 0
BBX 6 15 0 -5
BITMAP
0510
0AA0
0CD0
1580
0000
3240
7340
6710
7FA0
7B80
1E00
2900
9C00
D800
B400
ENDCHAR
STARTCHAR b.ss01
ENCODING -1
SWIDTH 449 0
DWIDTH 4 0
BBX 6 10 0 0
BITMAP
0B00
1A40
2600
3600
7900
7B00
7790
63E0
7700
2D00
ENDCHAR
STARTCHAR d.ss01
ENCODING -1
SWIDTH 470 0
DWIDTH 5 0
BBX 6 9 0 0
BITMAP
00C0
01C0
0180
0280
1F40
7740
A300
AB60
7AC0
ENDCHAR
STARTCHAR f.ss01
ENCODING -1
SWIDTH 323 0
DWIDTH 3 0
BBX 7 15 -2 -5
BITMAP
00B0
01A4
0264
0370
0760
0790
0780
07F4
0600
0A00
0A00
2A00
6900
6D00
7800
ENDCHAR
STARTCHAR l.ss01
ENCODING -1
SWIDTH 237 0
DWIDTH 2 0
BBX 4 9 0 0
BITMAP
18
28
34
34
70
70
A1
A9
78
ENDCHAR
STARTCHAR lacute.ss01
ENCODING -1
SWIDTH 237 0
DWIDTH 2 0
BBX 5 13 0 0
BITMAP
0040
0380
0900
0000
1800
2800
3400
3400
7000
7000
A100
A900
7800
ENDCHAR
STARTCHAR uni013C.ss01
ENCODING -1
SWIDTH 237 0
DWIDTH 2 0
BBX 4 12 0 -3
BITMAP
18
28
34
34
70
70
A1
A9
78
20
60
50
ENDCHAR
STARTCHAR uni01C9.ss01
ENCODING -1
SWIDTH 491 0
DWIDTH 5 0
BBX 6 14 0 -5
BITMAP
1800
2800
3680
3400
7240
7340
A350
ABA0
7F80
0A00
2A00
9900
DC00
B400
ENDCHAR
STARTCHAR lslash.ss01
ENCODING -1
SWIDTH 324 0
DWIDTH 3 0
BBX 5 10 0 0
BITMAP
0C00
1C00
2900
3E00
7400
B000
7000
6040
7640
2E00
ENDCHAR
STARTCHAR eng.ss01
ENCODING -1
SWIDTH 508 0
DWIDTH 5 0
BBX 6 10 0 -5
BITMAP
3640
7B80
7A50
73B0
6380
0B00
2A00
6900
9C00
7400
ENDCHAR
STARTCHAR o.ss01
ENCODING -1
SWIDTH 451 0
DWIDTH 5 0
BBX 6 5 0 0
BITMAP
2F40
77D0
A340
A700
2D00
ENDCHAR
STARTCHAR oacute.ss01
ENCODING -1
SWIDTH 451 0
DWIDTH 5 0
BBX 6 10 0 0
BITMAP
0100
0340
0600
0900
0000
2F40
77D0
A340
A700
2D00
ENDCHAR
STARTCHAR obreve.ss01
ENCODING -1
SWIDTH 451 0
DWIDTH 5 0
BBX 6 9 0 0
BITMAP
1040
7180
2F40
0000
2F40
77D0
A340
A700
2D00
ENDCHAR
STARTCHAR ocircumflex.ss01
ENCODING -1
SWIDTH 451 0
DWIDTH 5 0
BBX 6 10 0 0
BITMAP
0500
0F00
2B00
3240
0000
2F40
77D0
A340
A700
2D00
ENDCHAR
STARTCHAR uni1ED1.ss01
ENCODING -1
SWIDTH 451 0
DWIDTH 5 0
BBX 6 10 0 0
BITMAP
0010
0090
1A00
2640
0000
2F40
77D0
A340
A700
2D00
ENDCHAR
STARTCHAR uni1ED9.ss01
ENCODING -1
SWIDTH 451 0
DWIDTH 5 0
BBX 6 12 0 -2
BITMAP
0500
0F00
2B00
3240
0000
2F40
77D0
A340
A700
2D00
0000
2800
ENDCHAR
STARTCHAR uni1ED3.ss01
ENCODING -1
SWIDTH 451 0
DWIDTH 5 0
BBX 6 10 0 0
BITMAP
4000
A000
1A00
2640
0000
2F40
77D0
A340
A700
2D00
ENDCHAR
STARTCHAR uni1ED5.ss01
ENCODING -1
SWIDTH 451 0
DWIDTH 5 0
BBX 6 9 0 0
BITMAP
00E0
0060
0EA0
3B40
2F40
77D0
A340
A700
2D00
ENDCHAR
STARTCHAR uni1ED7.ss01
ENCODING -1
SWIDTH 451 0
DWIDTH 5 0
BBX 6 10 0 0
BITMAP
1D80
1640
1F00
3640
0000
2F40
77D0
A340
A700
2D00
ENDCHAR
STARTCHAR uni020D.ss01
ENCODING -1
SWIDTH 451 0
DWIDTH 5 0
BBX 6 10 0 0
BITMAP
4400
AD00
7600
2200
0000
2F40
77D0
A340
A700
2D00
ENDCHAR
STARTCHAR odieresis.ss01
ENCODING -1
SWIDTH 451 0
DWIDTH 5 0
BBX 6 7 0 0
BITMAP
3640
0000
2F40
77D0
A340
A700
2D00
ENDCHAR
STARTCHAR uni022B.ss01
ENCODING -1
SWIDTH 451 0
DWIDTH 5 0
BBX 6 9 0 0
BITMAP
2F40
0000
3640
0000
2F40
77D0
A340
A700
2D00
ENDCHAR
STARTCHAR uni0231.ss01
ENCODING -1
SWIDTH 451 0
DWIDTH 5 0
BBX 6 9 0 0
BITMAP
2F40
0000
0D00
0000
2F40
77D0
A340
A700
2D00
ENDCHAR
STARTCHAR uni1ECD.ss01
ENCODING -1
SWIDTH 451 0
DWIDTH 5 0
BBX 6 7 0 -2
BITMAP
2F40
77D0
A340
A700
2D00
0000
2800
ENDCHAR
STARTCHAR ograve.ss01
ENCODING -1
SWIDTH 451 0
DWIDTH 5 0
BBX 6 10 0 0
BITMAP
1000
3400
2800
0800
0000
2F40
77D0
A340
A700
2D00
ENDCHAR
STARTCHAR uni1ECF.ss01
ENCODING -1
SWIDTH 451 0
DWIDTH 5 0
BBX 6 9 0 0
BITMAP
0E00
0700
0A00
0000
2F40
77D0
A340
A700
2D00
ENDCHAR
STARTCHAR ohorn.ss01
ENCODING -1
SWIDTH 451 0
DWIDTH 5 0
BBX 6 7 0 0
BITMAP
0040
00C0
2F80
77D0
A340
A700
2D00
ENDCHAR
STARTCHAR uni1EDB.ss01
ENCODING -1
SWIDTH 451 0
DWIDTH 5 0
BBX 6 10 0 0
BITMAP
0100
0300
0A00
0840
00C0
2F80
77D0
A340
A700
2D00
ENDCHAR
STARTCHAR uni1EE3.ss01
ENCODING -1
SWIDTH 451 0
DWIDTH 5 0
BBX 6 9 0 -2
BITMAP
0040
00C0
2F80
77D0
A340
A700
2D00
0000
2800
ENDCHAR
STARTCHAR uni1EDD.ss01
ENCODING -1
SWIDTH 451 0
DWIDTH 5 0
BBX 6 10 0 0
BITMAP
1000
7000
2400
0840
00C0
2F80
77D0
A340
A700
2D00
ENDCHAR
STARTCHAR uni1EDF.ss01
ENCODING -1
SWIDTH 451 0
DWIDTH 5 0
BBX 6 9 0 0
BITMAP
1E00
0700
0E40
00C0
2F80
77D0
A340
A700
2D00
ENDCHAR
STARTCHAR uni1EE1.ss01
ENCODING -1
SWIDTH 451 0
DWIDTH 5 0
BBX 6 8 0 0
BITMAP
2940
6A40
00C0
2F80
77D0
A340
A700
2D00
ENDCHAR
STARTCHAR ohungarumlaut.ss01
ENCODING -1
SWIDTH 451 0
DWIDTH 5 0
BBX 6 10 0 0
BITMAP
0440
0DC0
1A80
2600
0000
2F40
77D0
A340
A700
2D00
ENDCHAR
STARTCHAR uni020F.ss01
ENCODING -1
SWIDTH 451 0
DWIDTH 5 0
BBX 6 8 0 0
BITMAP
1F00
3680
1040
2F40
77D0
A340
A700
2D00
ENDCHAR
STARTCHAR omacron.ss01
ENCODING -1
SWIDTH 451 0
DWIDTH 5 0
BBX 6 7 0 0
BITMAP
3F00
0000
2F40
77D0
A340
A700
2D00
ENDCHAR
STARTCHAR uni01EB.ss01
ENCODING -1
SWIDTH 451 0
DWIDTH 5 0
BBX 6 8 0 -3
BITMAP
2F40
77D0
A340
A300
7E00
2800
2400
1E00
ENDCHAR
STARTCHAR oslash.ss01
ENCODING -1
SWIDTH 451 0
DWIDTH 5 0
BBX 6 7 0 -1
BITMAP
0900
2F80
6B90
AB00
7F00
2800
1400
ENDCHAR
STARTCHAR oslashacute.ss01
ENCODING -1
SWIDTH 451 0
DWIDTH 5 0
BBX 6 11 0 -1
BITMAP
0400
0D00
1C00
2400
0900
2F80
6B90
AB00
7F00
2800
1400
ENDCHAR
STARTCHAR otilde.ss01
ENCODING -1
SWIDTH 451 0
DWIDTH 5 0
BBX 6 8 0 0
BITMAP
2980
6740
0000
2F40
77D0
A340
A700
2D00
ENDCHAR
STARTCHAR uni022D.ss01
ENCODING -1
SWIDTH 451 0
DWIDTH 5 0
BBX 6 10 0 0
BITMAP
2F40
0000
2980
6740
0000
2F40
77D0
A340
A700
2D00
ENDCHAR
STARTCHAR p.ss01
ENCODING -1
SWIDTH 500 0
DWIDTH 5 0
BBX 8 10 -2 -5
BITMAP
0368
03F8
0364
0736
0B2D
1E00
2A00
2900
6D00
3800
ENDCHAR
STARTCHAR t.ss01
ENCODING -1
SWIDTH 343 0
DWIDTH 3 0
BBX 5 8 0 0
BITMAP
1800
2800
2800
BF00
7400
7000
7680
2E00
ENDCHAR
STARTCHAR uni0163.ss01
ENCODING -1
SWIDTH 343 0
DWIDTH 3 0
BBX 5 11 0 -3
BITMAP
1800
2800
2800
BF00
7400
7000
7180
3F40
2D00
0900
7C00
ENDCHAR
STARTCHAR uni021B.ss01
ENCODING -1
SWIDTH 343 0
DWIDTH 3 0
BBX 5 11 0 -3
BITMAP
1800
2800
2800
BF00
7400
7000
7680
2E00
0800
1800
1400
ENDCHAR
STARTCHAR z.ss01
ENCODING -1
SWIDTH 432 0
DWIDTH 4 0
BBX 7 10 -1 -4
BITMAP
1440
1FD0
0740
1D14
1EB4
0780
1F40
3700
6A00
7800
ENDCHAR
STARTCHAR zacute.ss01
ENCODING -1
SWIDTH 432 0
DWIDTH 4 0
BBX 7 14 -1 -4
BITMAP
0040
00D0
0180
0200
1440
1FD0
0740
1D14
1EB4
0780
1F40
3700
6A00
7800
ENDCHAR
STARTCHAR zcaron.ss01
ENCODING -1
SWIDTH 432 0
DWIDTH 4 0
BBX 7 14 -1 -4
BITMAP
0410
0990
06C0
0340
1440
1FD0
0740
1D14
1EB4
0780
1F40
3700
6A00
7800
ENDCHAR
STARTCHAR zdotaccent.ss01
ENCODING -1
SWIDTH 432 0
DWIDTH 4 0
BBX 7 11 -1 -4
BITMAP
0340
1540
1FD0
0740
1D14
1EB4
0780
1F40
3700
6A00
7800
ENDCHAR
STARTCHAR f_f
ENCODING -1
SWIDTH 684 0
DWIDTH 7 0
BBX 8 13 0 -3
BITMAP
075D
0E6A
1AB6
26A5
3698
78D8
74E0
6BEE
69E4
69E4
69E4
79E4
38F0
ENDCHAR
STARTCHAR f_j
ENCODING -1
SWIDTH 633 0
DWIDTH 6 0
BBX 8 14 0 -4
BITMAP
0380
0AC0
1D80
2AB4
2E00
BFE0
7470
3661
76A9
72B8
36D0
39D0
2DC0
0040
ENDCHAR
STARTCHAR lslash_lslash
ENCODING -1
SWIDTH 654 0
DWIDTH 7 0
BBX 9 11 0 0
BITMAP
06FF80
294000
0B1D00
1A7A00
36A500
73D900
76D800
79F400
74E100
76D600
2E7800
ENDCHAR
STARTCHAR t_t
ENCODING -1
SWIDTH 706 0
DWIDTH 7 0
BBX 9 9 0 0
BITMAP
071D00
0E7900
2AA900
2AA800
FFFE00
34D000
30D000
35E640
1E7D00
ENDCHAR
STARTCHAR f_j.fina
ENCODING -1
SWIDTH 624 0
DWIDTH 6 0
BBX 7 14 0 -4
BITMAP
0380
0AC0
1D80
2AB4
2E00
BFE0
7470
3560
76A0
72A0
36D0
39D0
2DC0
0040
ENDCHAR
STARTCHAR fi.fina
ENCODING -1
SWIDTH 603 0
DWIDTH 6 0
BBX 7 13 0 -3
BITMAP
0380
0AC0
1D80
1A74
2E00
BFF0
35A0
36A0
7690
7690
7600
3900
2C00
ENDCHAR
STARTCHAR fl.fina
ENCODING -1
SWIDTH 730 0
DWIDTH 7 0
BBX 8 13 0 -3
BITMAP
074E
0EAB
19B7
26A6
36A9
78AC
74B4
6FE0
68A5
683D
6800
7800
3800
ENDCHAR
STARTCHAR f_ij.loclNLD.fina
ENCODING -1
SWIDTH 837 0
DWIDTH 8 0
BBX 9 15 0 -5
BITMAP
038000
0AC000
1D8000
1A7680
2E0000
BFE240
34A300
36A700
76AE00
767A00
760900
392D00
2C9C00
00E800
00E000
ENDCHAR
STARTCHAR i_j.loclNLD.fina
ENCODING -1
SWIDTH 451 0
DWIDTH 5 0
BBX 5 12 0 -5
BITMAP
2A80
0000
3240
7340
6700
7F00
7A00
1E00
2900
9C00
D800
B400
ENDCHAR
STARTCHAR t_t.ss01.fina
ENCODING -1
SWIDTH 666 0
DWIDTH 7 0
BBX 7 8 0 0
BITMAP
1860
28A0
28D0
BFF8
75C0
71C0
76D4
2DB4
ENDCHAR
STARTCHAR I_J.loclNLD
ENCODING -1
SWIDTH 776 0
DWIDTH 8 0
BBX 7 9 1 0
BITMAP
7024
B034
A074
A0B0
A1F0
7FB0
04A0
95D0
BE40
ENDCHAR
STARTCHAR f_ij.loclNLD
ENCODING -1
SWIDTH 865 0
DWIDTH 9 0
BBX 10 15 0 -5
BITMAP
018000
09C000
1D8000
1A7680
2E0000
BFE240
34A300
36A700
76AE60
767B80
760A00
392D00
2C9C00
00E800
00F000
ENDCHAR
STARTCHAR i_j.loclNLD
ENCODING -1
SWIDTH 479 0
DWIDTH 5 0
BBX 6 12 0 -5
BITMAP
2A80
0000
3240
7340
6710
7FA0
7B80
1E00
2900
9C00
D800
B400
ENDCHAR
STARTCHAR t_t.ss01
ENCODING -1
SWIDTH 632 0
DWIDTH 6 0
BBX 8 8 0 0
BITMAP
1860
28A0
28D0
BFF8
75C0
71C0
76D9
2DB8
ENDCHAR
STARTCHAR uni0410.ss01
ENCODING -1
SWIDTH 780 0
DWIDTH 8 0
BBX 8 9 0 0
BITMAP
01BF
0B55
1D0D
381C
742C
7038
7078
39B8
1F74
ENDCHAR
STARTCHAR uni0411.ss01
ENCODING -1
SWIDTH 881 0
DWIDTH 9 0
BBX 7 10 2 -1
BITMAP
BFF0
7800
3400
3400
7FE0
F574
B038
A034
A2E0
5640
ENDCHAR
STARTCHAR uni0412.ss01
ENCODING -1
SWIDTH 826 0
DWIDTH 8 0
BBX 7 9 1 0
BITMAP
2FE0
157C
201C
7078
A3E0
A1B4
D034
D5B0
FF80
ENDCHAR
STARTCHAR uni0413.ss01
ENCODING -1
SWIDTH 634 0
DWIDTH 6 0
BBX 7 9 2 0
BITMAP
BFF4
7800
3400
7400
7000
7000
A000
A000
9000
ENDCHAR
STARTCHAR uni0403.ss01
ENCODING -1
SWIDTH 634 0
DWIDTH 6 0
BBX 7 13 2 0
BITMAP
0040
02D0
0600
0000
BFF4
7800
3400
7400
7000
7000
A000
A000
9000
ENDCHAR
STARTCHAR uni0490.ss01
ENCODING -1
SWIDTH 639 0
DWIDTH 6 0
BBX 7 12 2 0
BITMAP
0004
0018
0018
BFF4
7940
3400
7400
7000
7000
A000
A000
9000
ENDCHAR
STARTCHAR uni0414.ss01
ENCODING -1
SWIDTH 836 0
DWIDTH 8 0
BBX 8 9 0 0
BITMAP
1BE4
756D
090B
0D07
1C07
2C0B
280E
3978
2F90
ENDCHAR
STARTCHAR uni0415.ss01
ENCODING -1
SWIDTH 720 0
DWIDTH 7 0
BBX 7 9 0 0
BITMAP
07F4
2D6C
381C
2C08
0F80
3900
B004
756C
2FE0
ENDCHAR
STARTCHAR uni0400.ss01
ENCODING -1
SWIDTH 720 0
DWIDTH 7 0
BBX 7 13 0 0
BITMAP
0400
0E00
0280
0000
07F4
2D6C
381C
2C08
0F80
3900
B004
756C
2FE0
ENDCHAR
STARTCHAR uni0401.ss01
ENCODING -1
SWIDTH 720 0
DWIDTH 7 0
BBX 7 11 0 0
BITMAP
0364
0000
07F4
2D6C
381C
2C08
0F80
3900
B004
756C
2FE0
ENDCHAR
STARTCHAR uni0416.ss01
ENCODING -1
SWIDTH 1196 0
DWIDTH 12 0
BBX 12 9 0 0
BITMAP
2E091F
074D34
029D70
01DDD0
00FF40
03AAC0
0B28D0
5D34B5
B4342D
ENDCHAR
STARTCHAR uni0417.ss01
ENCODING -1
SWIDTH 725 0
DWIDTH 7 0
BBX 7 9 0 0
BITMAP
0BE0
1D74
2834
0070
07F4
102C
7028
74B4
1F90
ENDCHAR
STARTCHAR uni0418.ss01
ENCODING -1
SWIDTH 800 0
DWIDTH 8 0
BBX 7 9 1 0
BITMAP
3428
7438
7034
B074
A0B4
E0F0
D1F0
EBA0
B9A0
ENDCHAR
STARTCHAR uni0419.ss01
ENCODING -1
SWIDTH 800 0
DWIDTH 8 0
BBX 7 11 1 0
BITMAP
0930
07D0
3428
7438
7034
B074
A0B4
E0F0
D1F0
EBA0
B9A0
ENDCHAR
STARTCHAR uni040D.ss01
ENCODING -1
SWIDTH 800 0
DWIDTH 8 0
BBX 7 13 1 0
BITMAP
1000
2D00
0600
0000
3428
7438
7034
B074
A0B4
E0F0
D1F0
EBA0
B9A0
ENDCHAR
STARTCHAR uni048A.ss01
ENCODING -1
SWIDTH 815 0
DWIDTH 8 0
BBX 7 12 1 -3
BITMAP
3428
7438
7034
B074
A0B4
E0F0
D1F0
EBB4
B9B8
0070
00D0
0040
ENDCHAR
STARTCHAR uni041A.ss01
ENCODING -1
SWIDTH 779 0
DWIDTH 8 0
BBX 8 9 0 0
BITMAP
0D0A
1D0D
1C28
1CB0
7F80
3AD0
34E0
3474
342E
ENDCHAR
STARTCHAR uni040C.ss01
ENCODING -1
SWIDTH 779 0
DWIDTH 8 0
BBX 8 13 0 0
BITMAP
0004
001D
0064
0000
0D0A
1D0D
1C28
1CB0
7F80
3AD0
34E0
3474
342E
ENDCHAR
STARTCHAR uni041B.ss01
ENCODING -1
SWIDTH 706 0
DWIDTH 7 0
BBX 8 9 -1 0
BITMAP
0034
0078
00B4
00F4
01B4
0374
0728
1E2D
780E
ENDCHAR
STARTCHAR uni041C.ss01
ENCODING -1
SWIDTH 967 0
DWIDTH 10 0
BBX 10 9 0 0
BITMAP
034340
078780
0B8B80
0B9F40
0EAA40
1DB740
29F340
75E280
E0D1D0
ENDCHAR
STARTCHAR uni041D.ss01
ENCODING -1
SWIDTH 846 0
DWIDTH 8 0
BBX 9 9 0 0
BITMAP
0D0600
0D0B00
1D0A00
1C0A00
7FFF40
281D00
381C00
341C00
341800
ENDCHAR
STARTCHAR uni041E.ss01
ENCODING -1
SWIDTH 816 0
DWIDTH 8 0
BBX 8 9 0 0
BITMAP
06F4
1E5D
280A
340B
700B
700A
740D
2D68
0BE0
ENDCHAR
STARTCHAR uni041F.ss01
ENCODING -1
SWIDTH 847 0
DWIDTH 8 0
BBX 8 9 1 0
BITMAP
FFFE
7428
7438
7034
B034
A070
A070
D0B0
D0A0
ENDCHAR
STARTCHAR uni0420.ss01
ENCODING -1
SWIDTH 662 0
DWIDTH 7 0
BBX 7 9 0 0
BITMAP
1FD0
2E74
0D28
1C38
1CB0
7F90
2800
3800
3400
ENDCHAR
STARTCHAR uni0421.ss01
ENCODING -1
SWIDTH 704 0
DWIDTH 7 0
BBX 7 9 0 0
BITMAP
06F4
1E6C
281C
3404
7400
7000
7404
2D6C
0BE0
ENDCHAR
STARTCHAR uni0422.ss01
ENCODING -1
SWIDTH 631 0
DWIDTH 6 0
BBX 8 9 0 0
BITMAP
7FFD
1780
0340
0340
0700
0700
0A00
0A00
0900
ENDCHAR
STARTCHAR uni0423.ss01
ENCODING -1
SWIDTH 776 0
DWIDTH 8 0
BBX 7 9 1 0
BITMAP
7024
B034
A074
A0B0
A1F0
7FB0
04A0
95D0
BE40
ENDCHAR
STARTCHAR uni040E.ss01
ENCODING -1
SWIDTH 776 0
DWIDTH 8 0
BBX 7 11 1 0
BITMAP
0D60
0BD0
7024
B034
A074
A0B0
A1F0
7FB0
04A0
95D0
BE40
ENDCHAR
STARTCHAR uni0424.ss01
ENCODING -1
SWIDTH 978 0
DWIDTH 10 0
BBX 10 10 0 -1
BITMAP
003400
0BB7C0
2DBDE0
3474A0
7060E0
70E0D0
72E2C0
3EFF40
00D000
00C000
ENDCHAR
STARTCHAR uni0425.ss01
ENCODING -1
SWIDTH 677 0
DWIDTH 7 0
BBX 9 9 -1 0
BITMAP
0A0340
074A00
02AC00
01F400
01E000
03F000
0E3400
2C2C00
741C00
ENDCHAR
STARTCHAR uni0427.ss01
ENCODING -1
SWIDTH 773 0
DWIDTH 8 0
BBX 7 9 1 0
BITMAP
7024
7034
B074
A0B0
E1F0
7FB0
04A0
00A0
0090
ENDCHAR
STARTCHAR uni0426.ss01
ENCODING -1
SWIDTH 822 0
DWIDTH 8 0
BBX 7 12 1 -3
BITMAP
3428
7438
7034
B074
A0B4
E0F0
D1F0
EB78
B92C
01F8
02A4
02E0
ENDCHAR
STARTCHAR uni0428.ss01
ENCODING -1
SWIDTH 1174 0
DWIDTH 12 0
BBX 11 9 1 0
BITMAP
343434
743434
707074
B0B0B0
A0A0B0
E0D0E0
D2D2E0
EAAAD0
B878D0
ENDCHAR
STARTCHAR uni0429.ss01
ENCODING -1
SWIDTH 1194 0
DWIDTH 12 0
BBX 11 12 1 -3
BITMAP
343434
743434
707074
B0B070
A0A0B0
E0D0E0
D2D2E0
EAAAB4
B87878
0001F4
000374
0003E0
ENDCHAR
STARTCHAR uni040F.ss01
ENCODING -1
SWIDTH 800 0
DWIDTH 8 0
BBX 7 11 1 -2
BITMAP
3428
7438
7034
B074
A0B4
E0F0
D1F0
EBA0
BDA0
1C00
1800
ENDCHAR
STARTCHAR uni042C.ss01
ENCODING -1
SWIDTH 721 0
DWIDTH 7 0
BBX 7 9 0 0
BITMAP
0D00
1C00
1C00
2FE4
B96C
341C
342C
2874
0BD0
ENDCHAR
STARTCHAR uni042A.ss01
ENCODING -1
SWIDTH 863 0
DWIDTH 9 0
BBX 8 9 1 0
BITMAP
BF40
0B00
0D00
1FF8
7D1D
2C0D
1C0D
1D68
07E0
ENDCHAR
STARTCHAR uni042B.ss01
ENCODING -1
SWIDTH 1078 0
DWIDTH 11 0
BBX 11 9 0 0
BITMAP
0D0024
1C0034
1C0074
2FE470
B96C70
341CA0
342CA0
2874E0
0BD0D0
ENDCHAR
STARTCHAR uni0409.ss01
ENCODING -1
SWIDTH 998 0
DWIDTH 10 0
BBX 11 9 -1 0
BITMAP
003400
007800
00B400
00FAE0
01B978
027428
072828
1D2D74
780BD0
ENDCHAR
STARTCHAR uni040A.ss01
ENCODING -1
SWIDTH 1102 0
DWIDTH 11 0
BBX 11 9 0 0
BITMAP
0D1C00
0D1C00
1D2800
1D7FE0
7EB578
28342C
383428
343874
341F90
ENDCHAR
STARTCHAR uni0405.ss01
ENCODING -1
SWIDTH 693 0
DWIDTH 7 0
BBX 7 9 0 0
BITMAP
0BE0
2968
381C
2D04
0BD0
01B4
A038
B474
2F90
ENDCHAR
STARTCHAR uni0404.ss01
ENCODING -1
SWIDTH 704 0
DWIDTH 7 0
BBX 7 9 0 0
BITMAP
06F4
1E6C
281C
3414
7FC0
7400
7404
2D6C
0BE0
ENDCHAR
STARTCHAR uni042D.ss01
ENCODING -1
SWIDTH 755 0
DWIDTH 8 0
BBX 8 9 0 0
BITMAP
0BE0
3978
101D
000D
0BFD
001C
6028
75B4
2F90
ENDCHAR
STARTCHAR uni0406.ss01
ENCODING -1
SWIDTH 357 0
DWIDTH 4 0
BBX 3 9 1 0
BITMAP
34
70
70
B0
A0
E0
D0
D0
C0
ENDCHAR
STARTCHAR uni0407.ss01
ENCODING -1
SWIDTH 357 0
DWIDTH 4 0
BBX 4 11 1 0
BITMAP
99
00
34
70
70
B0
A0
E0
D0
D0
C0
ENDCHAR
STARTCHAR uni0408.ss01
ENCODING -1
SWIDTH 716 0
DWIDTH 7 0
BBX 7 9 0 0
BITMAP
1BF8
3928
7038
2034
0034
0070
1060
35D0
1F80
ENDCHAR
STARTCHAR uni040B.ss01
ENCODING -1
SWIDTH 884 0
DWIDTH 9 0
BBX 9 9 0 0
BITMAP
7FFD00
178000
034000
074000
076E00
079740
0B0740
0A0740
090700
ENDCHAR
STARTCHAR uni042E.ss01
ENCODING -1
SWIDTH 1166 0
DWIDTH 12 0
BBX 12 9 0 0
BITMAP
0D07E0
0D2D6C
1D741D
1CB00D
7FE00D
28E01D
38A02C
3479B4
341F90
ENDCHAR
STARTCHAR uni042F.ss01
ENCODING -1
SWIDTH 827 0
DWIDTH 8 0
BBX 7 9 1 0
BITMAP
0BE8
3968
3438
3878
1FF4
01F4
0374
1E34
F834
ENDCHAR
STARTCHAR uni0402.ss01
ENCODING -1
SWIDTH 843 0
DWIDTH 8 0
BBX 9 14 0 -5
BITMAP
7FFD00
178000
034000
034000
076E00
079740
0B0740
0A0700
090700
001E00
007E00
00DD00
01E800
00F400
ENDCHAR
STARTCHAR uni0462.ss01
ENCODING -1
SWIDTH 721 0
DWIDTH 7 0
BBX 7 9 0 0
BITMAP
0D00
7F40
2C00
2FE4
B96C
341C
342C
2874
0BD0
ENDCHAR
STARTCHAR uni046A.ss01
ENCODING -1
SWIDTH 1196 0
DWIDTH 12 0
BBX 12 9 0 0
BITMAP
2FFFFE
074074
0280B0
01C1D0
00FF40
03AA80
0B28D0
1D34B4
B4342D
ENDCHAR
STARTCHAR uni0472.ss01
ENCODING -1
SWIDTH 816 0
DWIDTH 8 0
BBX 8 9 0 0
BITMAP
06F4
1E5D
280A
340B
7FFF
740A
740D
2D78
0BE0
ENDCHAR
STARTCHAR uni0474.ss01
ENCODING -1
SWIDTH 797 0
DWIDTH 8 0
BBX 9 9 1 0
BITMAP
601F80
B02D40
A02800
A03400
A07000
A0A000
B1D000
7B8000
2E0000
ENDCHAR
STARTCHAR uni0492.ss01
ENCODING -1
SWIDTH 634 0
DWIDTH 6 0
BBX 8 9 1 0
BITMAP
2FFD
1E00
0D00
1D00
7F40
2C00
2800
2800
2400
ENDCHAR
STARTCHAR uni0494.ss01
ENCODING -1
SWIDTH 889 0
DWIDTH 9 0
BBX 7 14 2 -5
BITMAP
BFF4
7800
3400
7400
76E0
7974
B074
A070
9070
01E0
07E0
0DD0
0E80
0F40
ENDCHAR
STARTCHAR uni0496.ss01
ENCODING -1
SWIDTH 1186 0
DWIDTH 12 0
BBX 12 12 0 -3
BITMAP
2E091F
074D34
029D70
01DDD0
00FF40
03AAC0
0B28D0
5D34B4
B4342D
00007C
0001DC
0001F4
ENDCHAR
STARTCHAR uni0498.ss01
ENCODING -1
SWIDTH 725 0
DWIDTH 7 0
BBX 7 12 0 -3
BITMAP
0BE0
1D74
2834
0070
07F4
102C
7028
75B4
2FD0
06C0
1DC0
1F40
ENDCHAR
STARTCHAR uni049A.ss01
ENCODING -1
SWIDTH 779 0
DWIDTH 8 0
BBX 8 12 0 -3
BITMAP
0D0A
1D0D
1C28
1CB0
7F80
3AD0
34E0
3474
342C
00BC
01A8
01F0
ENDCHAR
STARTCHAR uni049C.ss01
ENCODING -1
SWIDTH 779 0
DWIDTH 8 0
BBX 8 9 0 0
BITMAP
0D0A
1D0D
1D28
1EB0
7F80
3BD0
37E0
3674
342E
ENDCHAR
STARTCHAR uni049E.ss01
ENCODING -1
SWIDTH 779 0
DWIDTH 8 0
BBX 8 9 0 0
BITMAP
0D0A
1D0D
3F68
1CB0
7F80
3AD0
34E0
3474
342E
ENDCHAR
STARTCHAR uni04A0.ss01
ENCODING -1
SWIDTH 964 0
DWIDTH 10 0
BBX 9 9 1 0
BITMAP
BF4240
070700
070A00
0A2800
1FE000
0EB000
0D3400
1D2D00
1C0B40
ENDCHAR
STARTCHAR uni04A2.ss01
ENCODING -1
SWIDTH 846 0
DWIDTH 8 0
BBX 9 12 0 -3
BITMAP
0D0600
0D0B00
1D0A00
1C0A00
7FFF40
281D00
381C00
341E00
340B00
002F00
00AA00
007D00
ENDCHAR
STARTCHAR uni04A4.ss01
ENCODING -1
SWIDTH 1026 0
DWIDTH 10 0
BBX 11 9 0 0
BITMAP
0D07F8
0D0B00
1D0A00
1C0A00
7FFF40
281D00
381C00
341C00
341800
ENDCHAR
STARTCHAR uni0524.ss01
ENCODING -1
SWIDTH 892 0
DWIDTH 9 0
BBX 8 12 1 -3
BITMAP
FFFE
7428
7428
7034
B074
A070
A0B0
D078
D02C
00B8
02A4
02F0
ENDCHAR
STARTCHAR uni04A8.ss01
ENCODING -1
SWIDTH 997 0
DWIDTH 10 0
BBX 11 9 0 0
BITMAP
06C000
1E5F80
2879E0
34A070
74E070
74E0A0
34B1D0
2D7F98
0BFBE4
ENDCHAR
STARTCHAR uni04AA.ss01
ENCODING -1
SWIDTH 704 0
DWIDTH 7 0
BBX 7 14 0 -5
BITMAP
06F4
1E6C
281C
3404
7400
7000
7404
2D6C
0BFC
0038
00A4
0274
0360
02D0
ENDCHAR
STARTCHAR uni04AC.ss01
ENCODING -1
SWIDTH 697 0
DWIDTH 7 0
BBX 7 12 1 -3
BITMAP
7FFC
1780
0340
0700
0700
0A00
0A00
0E00
0F40
2B00
7700
7D00
ENDCHAR
STARTCHAR uni04AE.ss01
ENCODING -1
SWIDTH 677 0
DWIDTH 7 0
BBX 7 9 1 0
BITMAP
6034
74A0
39D0
2E80
0F00
0A00
0900
0D00
0900
ENDCHAR
STARTCHAR uni04B0.ss01
ENCODING -1
SWIDTH 677 0
DWIDTH 7 0
BBX 7 9 1 0
BITMAP
6034
74A0
39D0
1F80
0F00
3F80
0E00
0D00
0900
ENDCHAR
STARTCHAR uni04B2.ss01
ENCODING -1
SWIDTH 677 0
DWIDTH 7 0
BBX 9 12 -1 -3
BITMAP
0A0340
074A00
02AC00
01F000
01E000
03B000
0E3400
2C2D00
740F00
002E00
00AA00
00BC00
ENDCHAR
STARTCHAR uni04B4.ss01
ENCODING -1
SWIDTH 965 0
DWIDTH 10 0
BBX 10 12 0 -3
BITMAP
7FF9C0
1381C0
0342C0
034280
070380
070740
0B0B40
0B6B80
07E1D0
000BC0
001DC0
001F40
ENDCHAR
STARTCHAR uni04B6.ss01
ENCODING -1
SWIDTH 804 0
DWIDTH 8 0
BBX 7 12 1 -3
BITMAP
7024
7034
B074
A0B0
E1F0
7FA0
04A0
0078
0068
01F4
0374
02E0
ENDCHAR
STARTCHAR uni04B8.ss01
ENCODING -1
SWIDTH 773 0
DWIDTH 8 0
BBX 7 9 1 0
BITMAP
7024
7034
A574
A9B0
AAF0
7EB0
0CA0
04A0
0090
ENDCHAR
STARTCHAR uni04BA.ss01
ENCODING -1
SWIDTH 744 0
DWIDTH 7 0
BBX 6 9 1 0
BITMAP
3400
7000
7000
B000
ABD0
F9B0
E0B0
D0A0
C0A0
ENDCHAR
STARTCHAR uni0526.ss01
ENCODING -1
SWIDTH 818 0
DWIDTH 8 0
BBX 7 12 1 -3
BITMAP
3400
3400
7000
B000
A7D0
F9B0
E0B0
D0B8
D0B8
00B8
02A4
02E0
ENDCHAR
STARTCHAR uni0528.ss01
ENCODING -1
SWIDTH 846 0
DWIDTH 8 0
BBX 11 12 -2 -3
BITMAP
00D060
00D0B0
01D0A0
01C0A0
07FFF4
0281D0
0381C0
0341C0
074180
070000
5A0000
BC0000
ENDCHAR
STARTCHAR uni052E.ss01
ENCODING -1
SWIDTH 706 0
DWIDTH 7 0
BBX 8 12 -1 -3
BITMAP
0034
0078
00B4
00F4
01F4
02B4
0738
1E29
780F
002F
00AA
00BC
ENDCHAR
STARTCHAR uni04BC.ss01
ENCODING -1
SWIDTH 824 0
DWIDTH 8 0
BBX 9 9 0 0
BITMAP
00BD00
039700
0B0340
5E0700
7FFF00
1D0000
0E0000
0B5500
01FE00
ENDCHAR
STARTCHAR uni04BE.ss01
ENCODING -1
SWIDTH 824 0
DWIDTH 8 0
BBX 9 12 0 -3
BITMAP
00BD00
039700
0B0340
5E0700
7FFF00
1D0000
0E0000
0B5500
02FE00
024000
024000
01E000
ENDCHAR
STARTCHAR uni04C0.ss01
ENCODING -1
SWIDTH 357 0
DWIDTH 4 0
BBX 3 9 1 0
BITMAP
34
70
70
B0
A0
E0
D0
D0
C0
ENDCHAR
STARTCHAR uni04C1.ss01
ENCODING -1
SWIDTH 1196 0
DWIDTH 12 0
BBX 12 11 0 0
BITMAP
002580
001F40
2E091F
074D34
029D70
01DDD0
00FF40
03AAC0
0B28D0
5D34B5
B4342D
ENDCHAR
STARTCHAR uni04C3.ss01
ENCODING -1
SWIDTH 779 0
DWIDTH 8 0
BBX 8 12 0 -3
BITMAP
0D0A
1D0D
1C28
1CB0
7F80
3AD0
34E0
3474
342C
00BC
01A8
01F0
ENDCHAR
STARTCHAR uni04C5.ss01
ENCODING -1
SWIDTH 706 0
DWIDTH 7 0
BBX 8 11 -1 -2
BITMAP
0034
0078
00B4
00F4
01F4
02B4
0738
1E2D
780F
001D
0024
ENDCHAR
STARTCHAR uni04C7.ss01
ENCODING -1
SWIDTH 846 0
DWIDTH 8 0
BBX 9 12 0 -3
BITMAP
0D0600
0D0B00
1D0A00
1C0A00
7FFF40
281D00
381C00
341E00
340B00
002F00
00AA00
007D00
ENDCHAR
STARTCHAR uni04C9.ss01
ENCODING -1
SWIDTH 873 0
DWIDTH 9 0
BBX 9 12 0 -3
BITMAP
0D0600
0D0B00
1D0A00
1C0A00
7FFF40
281D00
381C00
341D00
341F00
000D00
002800
001000
ENDCHAR
STARTCHAR uni04CB.ss01
ENCODING -1
SWIDTH 773 0
DWIDTH 8 0
BBX 7 12 1 -3
BITMAP
7024
7034
B074
A0B0
E1F0
7FB0
04A0
00A0
02D0
1F40
3700
3E00
ENDCHAR
STARTCHAR uni04CD.ss01
ENCODING -1
SWIDTH 967 0
DWIDTH 10 0
BBX 10 11 0 -2
BITMAP
034340
078780
0B8B80
0B9E40
0EAB40
1DB740
29F340
74E290
E0D1D0
000280
000300
ENDCHAR
STARTCHAR uni04D0.ss01
ENCODING -1
SWIDTH 780 0
DWIDTH 8 0
BBX 8 11 0 0
BITMAP
00A2
007D
01BF
0B55
1D0D
381C
742C
7038
7078
39B8
1F74
ENDCHAR
STARTCHAR uni04D2.ss01
ENCODING -1
SWIDTH 780 0
DWIDTH 8 0
BBX 8 11 0 0
BITMAP
00A6
0000
01BF
0B55
1D0D
381C
742C
7038
7078
39B8
1F74
ENDCHAR
STARTCHAR uni04D4.ss01
ENCODING -1
SWIDTH 1057 0
DWIDTH 11 0
BBX 11 9 0 0
BITMAP
01B7F8
0B9A00
1D0D00
381D00
742FF0
702C00
707800
39ED54
1F8BF4
ENDCHAR
STARTCHAR uni04D6.ss01
ENCODING -1
SWIDTH 720 0
DWIDTH 7 0
BBX 7 11 0 0
BITMAP
0358
02F4
07F4
2D6C
381C
2C08
0F80
3900
B004
756C
2FE0
ENDCHAR
STARTCHAR uni04D8.ss01
ENCODING -1
SWIDTH 792 0
DWIDTH 8 0
BBX 8 9 0 0
BITMAP
0BE4
296D
000E
000A
7FFE
741E
741D
3978
0BD0
ENDCHAR
STARTCHAR uni04DA.ss01
ENCODING -1
SWIDTH 792 0
DWIDTH 8 0
BBX 8 11 0 0
BITMAP
0374
0000
0BE4
296D
000E
000A
7FFE
741E
741D
3978
0BD0
ENDCHAR
STARTCHAR uni04DC.ss01
ENCODING -1
SWIDTH 1196 0
DWIDTH 12 0
BBX 12 11 0 0
BITMAP
002680
000000
2E091F
074D34
029D70
01DDD0
00FF40
03AAC0
0B28D0
5D34B5
B4342D
ENDCHAR
STARTCHAR uni04DE.ss01
ENCODING -1
SWIDTH 725 0
DWIDTH 7 0
BBX 7 11 0 0
BITMAP
0374
0000
0BE0
1D74
2834
0070
07F4
102C
7028
74B4
1F90
ENDCHAR
STARTCHAR uni04E0.ss01
ENCODING -1
SWIDTH 744 0
DWIDTH 7 0
BBX 8 9 0 0
BITMAP
0BF9
296D
2838
00B0
07F4
102C
7028
75B4
1F90
ENDCHAR
STARTCHAR uni04E2.ss01
ENCODING -1
SWIDTH 800 0
DWIDTH 8 0
BBX 7 11 1 0
BITMAP
0BD0
0000
3428
7438
7034
B074
A0B4
E0F0
D1F0
EBA0
B9A0
ENDCHAR
STARTCHAR uni04E4.ss01
ENCODING -1
SWIDTH 800 0
DWIDTH 8 0
BBX 7 11 1 0
BITMAP
0AA0
0000
3428
7438
7034
B074
A0B4
E0F0
D1F0
EBA0
B9A0
ENDCHAR
STARTCHAR uni04E6.ss01
ENCODING -1
SWIDTH 816 0
DWIDTH 8 0
BBX 8 11 0 0
BITMAP
02A8
0000
06F4
1E5D
280A
340B
700B
700A
740D
2D68
0BE0
ENDCHAR
STARTCHAR uni04E8.ss01
ENCODING -1
SWIDTH 816 0
DWIDTH 8 0
BBX 8 9 0 0
BITMAP
06F4
1E5D
280A
340B
7FFF
740A
740D
2D68
0BE0
ENDCHAR
STARTCHAR uni04EA.ss01
ENCODING -1
SWIDTH 816 0
DWIDTH 8 0
BBX 8 11 0 0
BITMAP
02A8
0000
06F4
1E5D
280A
340B
7FFF
740A
740D
2D68
0BE0
ENDCHAR
STARTCHAR uni04EC.ss01
ENCODING -1
SWIDTH 755 0
DWIDTH 8 0
BBX 8 11 0 0
BITMAP
0374
0000
0BE0
3978
101D
000D
0BFD
001C
6028
75B4
2F90
ENDCHAR
STARTCHAR uni04EE.ss01
ENCODING -1
SWIDTH 776 0
DWIDTH 8 0
BBX 7 11 1 0
BITMAP
0FC0
0000
7024
B034
A074
A0B0
A1F0
7FB0
04A0
95D0
BE40
ENDCHAR
STARTCHAR uni04F0.ss01
ENCODING -1
SWIDTH 776 0
DWIDTH 8 0
BBX 7 11 1 0
BITMAP
0D90
0000
7024
B034
A074
A0B0
A1F0
7FB0
04A0
95D0
BE40
ENDCHAR
STARTCHAR uni04F2.ss01
ENCODING -1
SWIDTH 776 0
DWIDTH 8 0
BBX 7 13 1 0
BITMAP
0110
06A0
0980
0000
7024
B034
A074
A0B0
A1F0
7FB0
04A0
95D0
BE40
ENDCHAR
STARTCHAR uni04F4.ss01
ENCODING -1
SWIDTH 773 0
DWIDTH 8 0
BBX 7 11 1 0
BITMAP
0DD0
0000
7024
7034
B074
A0B0
E1F0
7FB0
04A0
00A0
0090
ENDCHAR
STARTCHAR uni04F6.ss01
ENCODING -1
SWIDTH 600 0
DWIDTH 6 0
BBX 8 12 1 -3
BITMAP
2FFD
1E00
0D00
1D00
1C00
2C00
2800
2800
2D00
AD00
DC00
F400
ENDCHAR
STARTCHAR uni04F8.ss01
ENCODING -1
SWIDTH 1078 0
DWIDTH 11 0
BBX 11 11 0 0
BITMAP
003740
000000
0D0024
1C0034
1C0074
2FE470
B96C70
341CA0
342CA0
2874E0
0BD0D0
ENDCHAR
STARTCHAR uni04FA.ss01
ENCODING -1
SWIDTH 634 0
DWIDTH 6 0
BBX 10 13 -1 -4
BITMAP
02FFD0
01E000
00D000
01D000
07F400
02C000
02C000
028000
038000
034000
070000
5A0000
7D0000
ENDCHAR
STARTCHAR uni04FC.ss01
ENCODING -1
SWIDTH 846 0
DWIDTH 8 0
BBX 9 12 0 -3
BITMAP
0D0600
0D0B00
1D0A00
1C0A00
7FFF40
281D00
381C00
341E00
340B00
002F00
00AA00
007D00
ENDCHAR
STARTCHAR uni04FE.ss01
ENCODING -1
SWIDTH 677 0
DWIDTH 7 0
BBX 9 9 -1 0
BITMAP
0A0340
074A00
03AC00
01F400
0BFC00
02F000
0A7400
2C2800
741C00
ENDCHAR
STARTCHAR uni0510.ss01
ENCODING -1
SWIDTH 706 0
DWIDTH 7 0
BBX 7 9 0 0
BITMAP
0BE0
1D78
1C28
1D00
2FC0
7000
7028
7974
1FE0
ENDCHAR
STARTCHAR uni0512.ss01
ENCODING -1
SWIDTH 706 0
DWIDTH 7 0
BBX 8 12 -1 -3
BITMAP
0034
0078
00B4
00F4
01F4
02B4
0738
1E29
780F
002F
00AA
00BC
ENDCHAR
STARTCHAR uni051A.ss01
ENCODING -1
SWIDTH 816 0
DWIDTH 8 0
BBX 8 12 0 -3
BITMAP
06F4
1E5D
280B
340B
700B
700A
741D
2EB8
0BD0
00E0
0074
0024
ENDCHAR
STARTCHAR uni051C.ss01
ENCODING -1
SWIDTH 1236 0
DWIDTH 12 0
BBX 12 9 1 0
BITMAP
602809
B0380D
A0741C
A0742C
A0B438
A0F470
A2A4A0
7B6EC0
2D0F40
ENDCHAR
STARTCHAR uni048C.ss01
ENCODING -1
SWIDTH 721 0
DWIDTH 7 0
BBX 7 9 0 0
BITMAP
0D00
7F40
2C00
2FE4
B96C
341C
342C
2874
0BD0
ENDCHAR
STARTCHAR uni048E.ss01
ENCODING -1
SWIDTH 662 0
DWIDTH 7 0
BBX 8 9 0 0
BITMAP
1FD0
2E74
0D28
1CB8
1CBD
7F90
2800
3800
3400
ENDCHAR
STARTCHAR uni0430.fina
ENCODING -1
SWIDTH 458 0
DWIDTH 5 0
BBX 5 5 0 0
BITMAP
1F40
7740
A300
AB00
7B00
ENDCHAR
STARTCHAR uni0431.fina
ENCODING -1
SWIDTH 473 0
DWIDTH 5 0
BBX 5 10 0 0
BITMAP
0140
1F40
2800
1C00
0A00
2F40
7740
A340
A700
3D00
ENDCHAR
STARTCHAR uni0432.fina
ENCODING -1
SWIDTH 475 0
DWIDTH 5 0
BBX 5 10 0 0
BITMAP
0B00
1A40
2640
3700
7900
7E00
7740
6280
7740
2E00
ENDCHAR
STARTCHAR uni0433.fina
ENCODING -1
SWIDTH 382 0
DWIDTH 4 0
BBX 4 5 0 0
BITMAP
7D
1A
28
A6
7D
ENDCHAR
STARTCHAR uni0453.fina
ENCODING -1
SWIDTH 382 0
DWIDTH 4 0
BBX 4 10 0 0
BITMAP
01
07
09
08
00
7D
1A
28
A6
7D
ENDCHAR
STARTCHAR uni0491.fina
ENCODING -1
SWIDTH 394 0
DWIDTH 4 0
BBX 5 7 0 0
BITMAP
0100
0240
3F00
7000
6000
6000
6000
ENDCHAR
STARTCHAR uni0434.fina
ENCODING -1
SWIDTH 449 0
DWIDTH 4 0
BBX 5 10 0 -5
BITMAP
1E00
7740
A300
AB00
7E00
1E00
2900
9C00
D800
B400
ENDCHAR
STARTCHAR uni0435.fina
ENCODING -1
SWIDTH 411 0
DWIDTH 4 0
BBX 5 5 0 0
BITMAP
2E00
7600
A900
B640
2E00
ENDCHAR
STARTCHAR uni0450.fina
ENCODING -1
SWIDTH 411 0
DWIDTH 4 0
BBX 5 10 0 0
BITMAP
1000
3400
2800
0800
0000
2E00
7600
A900
B640
2E00
ENDCHAR
STARTCHAR uni0451.fina
ENCODING -1
SWIDTH 411 0
DWIDTH 4 0
BBX 5 7 0 0
BITMAP
2640
0000
2E00
7600
A900
B640
2E00
ENDCHAR
STARTCHAR uni0436.fina
ENCODING -1
SWIDTH 783 0
DWIDTH 8 0
BBX 8 5 0 0
BITMAP
39AD
2BA9
4BE0
AEE6
B66D
ENDCHAR
STARTCHAR uni0437.fina
ENCODING -1
SWIDTH 395 0
DWIDTH 4 0
BBX 5 10 -1 -5
BITMAP
0B80
05C0
0280
1D00
0A00
0B00
2B00
2700
6A00
7800
ENDCHAR
STARTCHAR uni0438.fina
ENCODING -1
SWIDTH 460 0
DWIDTH 5 0
BBX 5 5 0 0
BITMAP
3240
7340
6700
7F00
7700
ENDCHAR
STARTCHAR uni0439.fina
ENCODING -1
SWIDTH 460 0
DWIDTH 5 0
BBX 5 9 0 0
BITMAP
0040
2180
2F40
0000
3240
7340
6700
7F00
7700
ENDCHAR
STARTCHAR uni045D.fina
ENCODING -1
SWIDTH 460 0
DWIDTH 5 0
BBX 5 10 0 0
BITMAP
1000
2800
1C00
0900
0000
3240
7340
6700
7F00
7700
ENDCHAR
STARTCHAR uni048B.fina
ENCODING -1
SWIDTH 460 0
DWIDTH 5 0
BBX 5 10 0 -2
BITMAP
2580
2F00
0000
3240
7340
6700
7F00
7B40
0A00
0C00
ENDCHAR
STARTCHAR uni043A.fina
ENCODING -1
SWIDTH 541 0
DWIDTH 5 0
BBX 6 5 0 0
BITMAP
3780
7DC0
7C40
7D60
6780
ENDCHAR
STARTCHAR uni045C.fina
ENCODING -1
SWIDTH 541 0
DWIDTH 5 0
BBX 6 10 0 0
BITMAP
0040
0280
0300
0500
0000
3780
7DC0
7C40
7D60
6780
ENDCHAR
STARTCHAR uni043B.fina
ENCODING -1
SWIDTH 463 0
DWIDTH 5 0
BBX 5 5 0 0
BITMAP
0A00
1E00
2E00
7600
D340
ENDCHAR
STARTCHAR uni043C.fina
ENCODING -1
SWIDTH 669 0
DWIDTH 7 0
BBX 7 5 0 0
BITMAP
0DA0
2DF0
2BA0
7B70
D634
ENDCHAR
STARTCHAR uni043D.fina
ENCODING -1
SWIDTH 462 0
DWIDTH 5 0
BBX 5 5 0 0
BITMAP
3240
7240
7F00
6700
6700
ENDCHAR
STARTCHAR uni043E.fina
ENCODING -1
SWIDTH 453 0
DWIDTH 5 0
BBX 5 5 0 0
BITMAP
2E00
7740
A340
A700
2D00
ENDCHAR
STARTCHAR uni043F.fina
ENCODING -1
SWIDTH 484 0
DWIDTH 5 0
BBX 5 5 0 0
BITMAP
3640
7B80
7A40
7340
6340
ENDCHAR
STARTCHAR uni0440.fina
ENCODING -1
SWIDTH 457 0
DWIDTH 5 0
BBX 6 10 -1 -5
BITMAP
1AC0
1DD0
1CD0
2DC0
7E40
A800
E800
A400
A400
E000
ENDCHAR
STARTCHAR uni0441.fina
ENCODING -1
SWIDTH 404 0
DWIDTH 4 0
BBX 4 5 0 0
BITMAP
2D
76
A0
A6
2E
ENDCHAR
STARTCHAR uni0442.fina
ENCODING -1
SWIDTH 732 0
DWIDTH 7 0
BBX 7 5 0 0
BITMAP
376C
7BBC
77DC
7398
6258
ENDCHAR
STARTCHAR uni0443.fina
ENCODING -1
SWIDTH 449 0
DWIDTH 4 0
BBX 5 10 0 -5
BITMAP
3240
7340
6700
7F00
7A00
1E00
2900
9C00
D800
B400
ENDCHAR
STARTCHAR uni045E.fina
ENCODING -1
SWIDTH 449 0
DWIDTH 4 0
BBX 5 14 0 -5
BITMAP
0040
2180
2F40
0000
3240
7340
6700
7F00
7A00
1E00
2900
9C00
D800
B400
ENDCHAR
STARTCHAR uni0444.fina
ENCODING -1
SWIDTH 721 0
DWIDTH 7 0
BBX 7 13 0 -4
BITMAP
0040
01C0
0180
0240
1FB4
77A8
A368
A774
7BD0
0700
0700
0700
0100
ENDCHAR
STARTCHAR uni0445.fina
ENCODING -1
SWIDTH 580 0
DWIDTH 6 0
BBX 6 5 0 0
BITMAP
39D0
2B90
4A00
AF60
BAD0
ENDCHAR
STARTCHAR uni0447.fina
ENCODING -1
SWIDTH 422 0
DWIDTH 4 0
BBX 5 6 0 0
BITMAP
1000
3F00
1D00
3400
7640
3E00
ENDCHAR
STARTCHAR uni0446.fina
ENCODING -1
SWIDTH 468 0
DWIDTH 5 0
BBX 5 8 0 -3
BITMAP
3240
7300
6700
7F40
7740
0B40
2700
2D00
ENDCHAR
STARTCHAR uni0448.fina
ENCODING -1
SWIDTH 693 0
DWIDTH 7 0
BBX 7 5 0 0
BITMAP
3258
7368
6734
7FB4
77B4
ENDCHAR
STARTCHAR uni0449.fina
ENCODING -1
SWIDTH 699 0
DWIDTH 7 0
BBX 7 8 0 -3
BITMAP
3258
7364
6734
7FB4
77A8
0078
01A4
01E0
ENDCHAR
STARTCHAR uni045F.fina
ENCODING -1
SWIDTH 462 0
DWIDTH 5 0
BBX 5 6 0 -1
BITMAP
3240
7340
6700
7F00
7700
2000
ENDCHAR
STARTCHAR uni044C.fina
ENCODING -1
SWIDTH 517 0
DWIDTH 5 0
BBX 5 5 0 0
BITMAP
3000
7B40
7680
7740
2E00
ENDCHAR
STARTCHAR uni044A.fina
ENCODING -1
SWIDTH 543 0
DWIDTH 5 0
BBX 5 5 0 0
BITMAP
7C00
3B40
7680
3680
2F00
ENDCHAR
STARTCHAR uni044B.fina
ENCODING -1
SWIDTH 683 0
DWIDTH 7 0
BBX 7 5 0 0
BITMAP
3018
7B68
76B4
7774
2E30
ENDCHAR
STARTCHAR uni0459.fina
ENCODING -1
SWIDTH 709 0
DWIDTH 7 0
BBX 7 5 0 0
BITMAP
0A00
1EB0
2B74
7734
D2E0
ENDCHAR
STARTCHAR uni045A.fina
ENCODING -1
SWIDTH 751 0
DWIDTH 8 0
BBX 7 5 0 0
BITMAP
3240
73B8
7FAC
6368
61F0
ENDCHAR
STARTCHAR uni0455.fina
ENCODING -1
SWIDTH 394 0
DWIDTH 4 0
BBX 4 5 0 0
BITMAP
1C
2C
6E
DA
2D
ENDCHAR
STARTCHAR uni0454.fina
ENCODING -1
SWIDTH 426 0
DWIDTH 4 0
BBX 5 5 0 0
BITMAP
2E00
7600
BC00
B540
2E00
ENDCHAR
STARTCHAR uni044D.fina
ENCODING -1
SWIDTH 476 0
DWIDTH 5 0
BBX 5 5 0 0
BITMAP
2E00
1740
1F80
A740
7E00
ENDCHAR
STARTCHAR uni0456.fina
ENCODING -1
SWIDTH 222 0
DWIDTH 2 0
BBX 3 7 0 0
BITMAP
28
00
30
70
60
A0
A0
ENDCHAR
STARTCHAR uni0457.fina
ENCODING -1
SWIDTH 222 0
DWIDTH 2 0
BBX 4 7 0 0
BITMAP
99
00
30
70
60
A0
A0
ENDCHAR
STARTCHAR uni0458.fina
ENCODING -1
SWIDTH 229 0
DWIDTH 2 0
BBX 6 12 -3 -5
BITMAP
00D0
0000
00C0
01C0
01C0
0180
0280
0740
1B40
2700
6A00
3800
ENDCHAR
STARTCHAR uni045B.fina
ENCODING -1
SWIDTH 490 0
DWIDTH 5 0
BBX 5 9 0 0
BITMAP
1C00
2800
7F40
3400
3680
7B80
7A40
7340
6240
ENDCHAR
STARTCHAR uni044E.fina
ENCODING -1
SWIDTH 676 0
DWIDTH 7 0
BBX 7 5 0 0
BITMAP
31E0
7364
7F28
6774
62E0
ENDCHAR
STARTCHAR uni044F.fina
ENCODING -1
SWIDTH 496 0
DWIDTH 5 0
BBX 5 5 0 0
BITMAP
2F40
3740
3F40
1F40
F640
ENDCHAR
STARTCHAR uni0452.fina
ENCODING -1
SWIDTH 493 0
DWIDTH 5 0
BBX 5 14 0 -5
BITMAP
1C00
2800
7F40
3400
3680
7B80
7A40
7340
6300
0B00
2A00
6900
AC00
7400
ENDCHAR
STARTCHAR uni0463.fina
ENCODING -1
SWIDTH 517 0
DWIDTH 5 0
BBX 5 7 0 0
BITMAP
2400
3400
BD00
7B40
7680
7740
2E00
ENDCHAR
STARTCHAR uni046B.fina
ENCODING -1
SWIDTH 878 0
DWIDTH 9 0
BBX 9 9 0 0
BITMAP
003400
007400
00B400
00E400
0BAA00
036800
037400
9BF980
B9CB40
ENDCHAR
STARTCHAR uni0473.fina
ENCODING -1
SWIDTH 453 0
DWIDTH 5 0
BBX 5 5 0 0
BITMAP
2E00
7740
BF40
B700
2D00
ENDCHAR
STARTCHAR uni0475.fina
ENCODING -1
SWIDTH 420 0
DWIDTH 4 0
BBX 6 5 0 0
BITMAP
62D0
6340
6A00
7D00
3400
ENDCHAR
STARTCHAR uni0493.fina
ENCODING -1
SWIDTH 407 0
DWIDTH 4 0
BBX 4 5 0 0
BITMAP
2E
1B
6D
76
3E
ENDCHAR
STARTCHAR uni0495.fina
ENCODING -1
SWIDTH 442 0
DWIDTH 4 0
BBX 4 8 0 -3
BITMAP
7D
1A
28
A5
7E
1E
69
78
ENDCHAR
STARTCHAR uni0497.fina
ENCODING -1
SWIDTH 784 0
DWIDTH 8 0
BBX 8 8 0 -3
BITMAP
39AD
2BA9
4BE0
9EE0
B66D
002D
009C
00B4
ENDCHAR
STARTCHAR uni0499.fina
ENCODING -1
SWIDTH 405 0
DWIDTH 4 0
BBX 4 9 0 -4
BITMAP
2E
67
0A
0A
AB
3D
AD
DC
F4
ENDCHAR
STARTCHAR uni049B.fina
ENCODING -1
SWIDTH 533 0
DWIDTH 5 0
BBX 5 8 0 -3
BITMAP
3780
7DC0
7C40
7D40
6780
0780
1A40
1E00
ENDCHAR
STARTCHAR uni049D.fina
ENCODING -1
SWIDTH 567 0
DWIDTH 6 0
BBX 6 5 0 0
BITMAP
3280
76C0
7D40
7E60
67D0
ENDCHAR
STARTCHAR uni049F.fina
ENCODING -1
SWIDTH 541 0
DWIDTH 5 0
BBX 6 5 0 0
BITMAP
BB80
7DC0
7C40
7D60
6780
ENDCHAR
STARTCHAR uni04A1.fina
ENCODING -1
SWIDTH 639 0
DWIDTH 6 0
BBX 7 5 0 0
BITMAP
7DE0
1B70
2F10
2F58
19E0
ENDCHAR
STARTCHAR uni04A3.fina
ENCODING -1
SWIDTH 482 0
DWIDTH 5 0
BBX 5 8 0 -3
BITMAP
3240
7240
7F00
6700
6240
0B40
1B00
2E00
ENDCHAR
STARTCHAR uni04A5.fina
ENCODING -1
SWIDTH 462 0
DWIDTH 5 0
BBX 6 6 0 0
BITMAP
0040
3290
7240
7F00
6700
6700
ENDCHAR
STARTCHAR uni0525.fina
ENCODING -1
SWIDTH 503 0
DWIDTH 5 0
BBX 5 8 0 -3
BITMAP
3640
7B80
7B40
7340
6280
0780
1A40
1E00
ENDCHAR
STARTCHAR uni04A9.fina
ENCODING -1
SWIDTH 644 0
DWIDTH 6 0
BBX 7 5 0 0
BITMAP
2C00
72D0
A690
A6D8
2FE4
ENDCHAR
STARTCHAR uni04AB.fina
ENCODING -1
SWIDTH 404 0
DWIDTH 4 0
BBX 4 8 0 -3
BITMAP
2D
76
A0
A5
3E
1D
69
78
ENDCHAR
STARTCHAR uni04AD.fina
ENCODING -1
SWIDTH 751 0
DWIDTH 8 0
BBX 7 8 0 -3
BITMAP
376C
7BBC
77D8
7398
625C
002C
0098
00B4
ENDCHAR
STARTCHAR uni04AF.fina
ENCODING -1
SWIDTH 450 0
DWIDTH 5 0
BBX 5 9 0 -4
BITMAP
6180
7240
7700
3900
3800
3400
2400
2400
1000
ENDCHAR
STARTCHAR uni04B1.fina
ENCODING -1
SWIDTH 450 0
DWIDTH 5 0
BBX 5 9 0 -4
BITMAP
6180
7240
7300
3A00
3C00
BD00
3400
2400
1000
ENDCHAR
STARTCHAR uni04B3.fina
ENCODING -1
SWIDTH 580 0
DWIDTH 6 0
BBX 6 8 0 -3
BITMAP
39D0
2B90
0A00
9F00
BBD0
02C0
09C0
0B40
ENDCHAR
STARTCHAR uni04B5.fina
ENCODING -1
SWIDTH 468 0
DWIDTH 5 0
BBX 5 10 0 -3
BITMAP
1F80
0000
3240
7300
6700
7F40
7740
0B40
2700
2D00
ENDCHAR
STARTCHAR uni04B7.fina
ENCODING -1
SWIDTH 461 0
DWIDTH 5 0
BBX 4 9 0 -3
BITMAP
10
3F
1D
34
75
3F
1E
3A
3C
ENDCHAR
STARTCHAR uni04B9.fina
ENCODING -1
SWIDTH 473 0
DWIDTH 5 0
BBX 4 6 1 0
BITMAP
60
FD
68
A0
E6
7D
ENDCHAR
STARTCHAR uni0527.fina
ENCODING -1
SWIDTH 519 0
DWIDTH 5 0
BBX 5 13 0 -3
BITMAP
0B00
1A40
2600
3600
7900
7A80
7B80
7A40
7380
61C0
0780
0A40
0E00
ENDCHAR
STARTCHAR uni04BB.fina
ENCODING -1
SWIDTH 490 0
DWIDTH 5 0
BBX 5 10 0 0
BITMAP
0B00
1A40
2600
3600
7900
7A80
7B80
7A40
7340
6240
ENDCHAR
STARTCHAR uni0529.fina
ENCODING -1
SWIDTH 462 0
DWIDTH 5 0
BBX 6 8 -1 -3
BITMAP
0C90
1C90
1FC0
19C0
19C0
1800
9800
F400
ENDCHAR
STARTCHAR uni052F.fina
ENCODING -1
SWIDTH 530 0
DWIDTH 5 0
BBX 5 8 0 -3
BITMAP
0A00
1E00
2E00
7A40
D780
0780
0A40
1E00
ENDCHAR
STARTCHAR uni04BD.fina
ENCODING -1
SWIDTH 501 0
DWIDTH 5 0
BBX 5 5 0 0
BITMAP
0B40
1980
AA40
6D80
0F80
ENDCHAR
STARTCHAR uni04BF.fina
ENCODING -1
SWIDTH 501 0
DWIDTH 5 0
BBX 5 8 0 -3
BITMAP
0B40
1980
AA40
7D40
1F80
0900
0C00
0B40
ENDCHAR
STARTCHAR uni04CF.fina
ENCODING -1
SWIDTH 222 0
DWIDTH 2 0
BBX 3 9 0 0
BITMAP
04
28
28
34
34
70
70
A0
A0
ENDCHAR
STARTCHAR uni04C2.fina
ENCODING -1
SWIDTH 783 0
DWIDTH 8 0
BBX 8 8 0 0
BITMAP
0530
07D0
0000
39AD
2BA9
4BE0
AEE6
B66D
ENDCHAR
STARTCHAR uni04C4.fina
ENCODING -1
SWIDTH 533 0
DWIDTH 5 0
BBX 5 8 0 -3
BITMAP
3780
7DC0
7C40
7D40
6780
0780
1A40
1E00
ENDCHAR
STARTCHAR uni04C6.fina
ENCODING -1
SWIDTH 463 0
DWIDTH 5 0
BBX 5 7 0 -2
BITMAP
0A00
1E00
2A00
7700
D380
0700
0900
ENDCHAR
STARTCHAR uni04C8.fina
ENCODING -1
SWIDTH 482 0
DWIDTH 5 0
BBX 5 8 0 -3
BITMAP
3240
7240
7F00
6700
6240
0B40
1B00
2E00
ENDCHAR
STARTCHAR uni04CA.fina
ENCODING -1
SWIDTH 462 0
DWIDTH 5 0
BBX 5 7 0 -2
BITMAP
3240
7240
7F40
6700
6740
0A00
0C00
ENDCHAR
STARTCHAR uni04CC.fina
ENCODING -1
SWIDTH 422 0
DWIDTH 4 0
BBX 5 7 0 -1
BITMAP
1000
3F00
1D00
3400
7640
3E00
0500
ENDCHAR
STARTCHAR uni04CE.fina
ENCODING -1
SWIDTH 669 0
DWIDTH 7 0
BBX 7 7 0 -2
BITMAP
0DA0
2DF0
2BA0
7B70
D638
0070
0090
ENDCHAR
STARTCHAR uni04D1.fina
ENCODING -1
SWIDTH 458 0
DWIDTH 5 0
BBX 5 9 0 0
BITMAP
0040
2580
1F40
0000
1F40
7740
A300
AB00
7B00
ENDCHAR
STARTCHAR uni04D3.fina
ENCODING -1
SWIDTH 458 0
DWIDTH 5 0
BBX 5 7 0 0
BITMAP
1980
0000
1F40
7740
A300
AB00
7B00
ENDCHAR
STARTCHAR uni04D5.fina
ENCODING -1
SWIDTH 671 0
DWIDTH 7 0
BBX 7 5 0 0
BITMAP
1EB4
76A4
A3B0
AB98
79F4
ENDCHAR
STARTCHAR uni04D7.fina
ENCODING -1
SWIDTH 411 0
DWIDTH 4 0
BBX 5 8 0 0
BITMAP
2240
3E00
0000
2E00
7600
A900
B640
2E00
ENDCHAR
STARTCHAR uni04D9.fina
ENCODING -1
SWIDTH 458 0
DWIDTH 5 0
BBX 5 5 0 0
BITMAP
7E00
1740
7F40
A700
2D00
ENDCHAR
STARTCHAR uni04DB.fina
ENCODING -1
SWIDTH 458 0
DWIDTH 5 0
BBX 5 7 0 0
BITMAP
3640
0000
7E00
1740
7F40
A700
2D00
ENDCHAR
STARTCHAR uni04DD.fina
ENCODING -1
SWIDTH 783 0
DWIDTH 8 0
BBX 8 7 0 0
BITMAP
0770
0000
39AD
2BA9
4BE0
AEE6
B66D
ENDCHAR
STARTCHAR uni04DF.fina
ENCODING -1
SWIDTH 395 0
DWIDTH 4 0
BBX 6 12 -1 -5
BITMAP
0990
0000
0B80
05C0
0280
1D00
0A00
0B00
2B00
2700
6A00
7800
ENDCHAR
STARTCHAR uni04E1.fina
ENCODING -1
SWIDTH 456 0
DWIDTH 5 0
BBX 6 10 -1 -5
BITMAP
1FE0
0790
0A00
1C00
0A00
0B00
2B00
2700
6A00
7800
ENDCHAR
STARTCHAR uni04E3.fina
ENCODING -1
SWIDTH 460 0
DWIDTH 5 0
BBX 5 7 0 0
BITMAP
2F40
0000
3240
7340
6700
7F00
7700
ENDCHAR
STARTCHAR uni04E5.fina
ENCODING -1
SWIDTH 460 0
DWIDTH 5 0
BBX 5 7 0 0
BITMAP
2980
0000
3240
7340
6700
7F00
7700
ENDCHAR
STARTCHAR uni04E7.fina
ENCODING -1
SWIDTH 453 0
DWIDTH 5 0
BBX 5 7 0 0
BITMAP
3640
0000
2E00
7740
A340
A700
2D00
ENDCHAR
STARTCHAR uni04E9.fina
ENCODING -1
SWIDTH 453 0
DWIDTH 5 0
BBX 5 5 0 0
BITMAP
2E00
7740
BF40
B700
2D00
ENDCHAR
STARTCHAR uni04EB.fina
ENCODING -1
SWIDTH 453 0
DWIDTH 5 0
BBX 5 7 0 0
BITMAP
3640
0000
2E00
7740
BF40
B700
2D00
ENDCHAR
STARTCHAR uni04ED.fina
ENCODING -1
SWIDTH 466 0
DWIDTH 5 0
BBX 5 7 0 0
BITMAP
2680
0000
2E00
1740
1F80
A740
7E00
ENDCHAR
STARTCHAR uni04EF.fina
ENCODING -1
SWIDTH 449 0
DWIDTH 4 0
BBX 5 12 0 -5
BITMAP
2F40
0000
3240
7340
6700
7F00
7A00
1E00
2900
9C00
D800
B400
ENDCHAR
STARTCHAR uni04F1.fina
ENCODING -1
SWIDTH 449 0
DWIDTH 4 0
BBX 5 12 0 -5
BITMAP
2980
0000
3240
7340
6700
7F00
7A00
1E00
2900
9C00
D800
B400
ENDCHAR
STARTCHAR uni04F3.fina
ENCODING -1
SWIDTH 449 0
DWIDTH 4 0
BBX 6 15 0 -5
BITMAP
0440
0AD0
0DC0
1940
0000
3240
7340
6700
7F00
7A00
1E00
2900
9C00
D800
B400
ENDCHAR
ENDFONT
